<?xml version="1.0" encoding="utf-8"?>
<!-- Generator: Adobe Illustrator 21.0.0, SVG Export Plug-In . SVG Version: 6.00 Build 0)  -->
<svg version="1.1" id="Layer_1" xmlns="http://www.w3.org/2000/svg" xmlns:xlink="http://www.w3.org/1999/xlink" x="0px" y="0px"
	 viewBox="0 0 400 184" style="enable-background:new 0 0 400 184;" xml:space="preserve">
<style type="text/css">
	.st0{fill:#FFFFFF;}
</style>
<g>
	<polygon id="path-1" class="st0" points="200,164.4 389.1,164.4 389.1,18 200,18 11,18 11,164.4 	"/>
</g>
<title>ananzi</title>
<desc>Created with Sketch.</desc>
<g id="Page-1_1_">
	<g id="ananzi">
		<g id="Page-1" transform="translate(11.000000, 111.000000)">
			<path id="Fill-1" class="st0" d="M278,5.4v1.7h-2.6C276.3,6.6,277.2,6,278,5.4"/>
			<path id="Fill-3" class="st0" d="M247.5-31.9c-4.4,0-8-3.6-8-8s3.6-8,8-8s8,3.6,8,8C255.5-35.4,251.9-31.9,247.5-31.9
				 M247.5-71.9c-17.7,0-32.1,14.4-32.1,32.1s14.4,32.1,32.1,32.1s32.1-14.4,32.1-32.1C279.6-57.6,265.2-71.9,247.5-71.9"/>
			<g id="Group-7" transform="translate(0.000000, 0.370000)">
				<g id="Clip-6">
				</g>
				<path id="Fill-5" class="st0" d="M26.5,22.6c-2.3,0.5-3.8,1-4.5,1.4c-1.1,0.8-1.6,1.7-1.6,2.9c0,1.1,0.4,2.1,1.3,3
					c0.9,0.8,1.9,1.2,3.3,1.2c1.5,0,2.9-0.5,4.2-1.5c1-0.7,1.6-1.6,2-2.7c0.2-0.7,0.3-2,0.3-4v-1.6C30.5,21.7,28.8,22.1,26.5,22.6
					L26.5,22.6z M26.5,22.6c-2.3,0.5-3.8,1-4.5,1.4c-1.1,0.8-1.6,1.7-1.6,2.9c0,1.1,0.4,2.1,1.3,3c0.9,0.8,1.9,1.2,3.3,1.2
					c1.5,0,2.9-0.5,4.2-1.5c1-0.7,1.6-1.6,2-2.7c0.2-0.7,0.3-2,0.3-4v-1.6C30.5,21.7,28.8,22.1,26.5,22.6L26.5,22.6z M26.5,22.6
					c-2.3,0.5-3.8,1-4.5,1.4c-1.1,0.8-1.6,1.7-1.6,2.9c0,1.1,0.4,2.1,1.3,3c0.9,0.8,1.9,1.2,3.3,1.2c1.5,0,2.9-0.5,4.2-1.5
					c1-0.7,1.6-1.6,2-2.7c0.2-0.7,0.3-2,0.3-4v-1.6C30.5,21.7,28.8,22.1,26.5,22.6L26.5,22.6z M119.3,22.6c-2.3,0.5-3.8,1-4.4,1.4
					c-1.1,0.8-1.6,1.7-1.6,2.9c0,1.1,0.4,2.1,1.3,3c0.9,0.8,1.9,1.2,3.3,1.2c1.5,0,2.9-0.5,4.2-1.5c1-0.7,1.6-1.6,2-2.7
					c0.2-0.7,0.3-2,0.3-4v-1.6C123.2,21.7,121.5,22.1,119.3,22.6L119.3,22.6z M119.3,22.6c-2.3,0.5-3.8,1-4.4,1.4
					c-1.1,0.8-1.6,1.7-1.6,2.9c0,1.1,0.4,2.1,1.3,3c0.9,0.8,1.9,1.2,3.3,1.2c1.5,0,2.9-0.5,4.2-1.5c1-0.7,1.6-1.6,2-2.7
					c0.2-0.7,0.3-2,0.3-4v-1.6C123.2,21.7,121.5,22.1,119.3,22.6L119.3,22.6z M26.5,22.6c-2.3,0.5-3.8,1-4.5,1.4
					c-1.1,0.8-1.6,1.7-1.6,2.9c0,1.1,0.4,2.1,1.3,3c0.9,0.8,1.9,1.2,3.3,1.2c1.5,0,2.9-0.5,4.2-1.5c1-0.7,1.6-1.6,2-2.7
					c0.2-0.7,0.3-2,0.3-4v-1.6C30.5,21.7,28.8,22.1,26.5,22.6L26.5,22.6z M26.5,22.6c-2.3,0.5-3.8,1-4.5,1.4
					c-1.1,0.8-1.6,1.7-1.6,2.9c0,1.1,0.4,2.1,1.3,3c0.9,0.8,1.9,1.2,3.3,1.2c1.5,0,2.9-0.5,4.2-1.5c1-0.7,1.6-1.6,2-2.7
					c0.2-0.7,0.3-2,0.3-4v-1.6C30.5,21.7,28.8,22.1,26.5,22.6L26.5,22.6z M119.3,22.6c-2.3,0.5-3.8,1-4.4,1.4
					c-1.1,0.8-1.6,1.7-1.6,2.9c0,1.1,0.4,2.1,1.3,3c0.9,0.8,1.9,1.2,3.3,1.2c1.5,0,2.9-0.5,4.2-1.5c1-0.7,1.6-1.6,2-2.7
					c0.2-0.7,0.3-2,0.3-4v-1.6C123.2,21.7,121.5,22.1,119.3,22.6L119.3,22.6z M119.3,22.6c-2.3,0.5-3.8,1-4.4,1.4
					c-1.1,0.8-1.6,1.7-1.6,2.9c0,1.1,0.4,2.1,1.3,3c0.9,0.8,1.9,1.2,3.3,1.2c1.5,0,2.9-0.5,4.2-1.5c1-0.7,1.6-1.6,2-2.7
					c0.2-0.7,0.3-2,0.3-4v-1.6C123.2,21.7,121.5,22.1,119.3,22.6L119.3,22.6z M26.5,22.6c-2.3,0.5-3.8,1-4.5,1.4
					c-1.1,0.8-1.6,1.7-1.6,2.9c0,1.1,0.4,2.1,1.3,3c0.9,0.8,1.9,1.2,3.3,1.2c1.5,0,2.9-0.5,4.2-1.5c1-0.7,1.6-1.6,2-2.7
					c0.2-0.7,0.3-2,0.3-4v-1.6C30.5,21.7,28.8,22.1,26.5,22.6L26.5,22.6z M26.5,22.6c-2.3,0.5-3.8,1-4.5,1.4
					c-1.1,0.8-1.6,1.7-1.6,2.9c0,1.1,0.4,2.1,1.3,3c0.9,0.8,1.9,1.2,3.3,1.2c1.5,0,2.9-0.5,4.2-1.5c1-0.7,1.6-1.6,2-2.7
					c0.2-0.7,0.3-2,0.3-4v-1.6C30.5,21.7,28.8,22.1,26.5,22.6L26.5,22.6z M119.3,22.6c-2.3,0.5-3.8,1-4.4,1.4
					c-1.1,0.8-1.6,1.7-1.6,2.9c0,1.1,0.4,2.1,1.3,3c0.9,0.8,1.9,1.2,3.3,1.2c1.5,0,2.9-0.5,4.2-1.5c1-0.7,1.6-1.6,2-2.7
					c0.2-0.7,0.3-2,0.3-4v-1.6C123.2,21.7,121.5,22.1,119.3,22.6L119.3,22.6z M119.3,22.6c-2.3,0.5-3.8,1-4.4,1.4
					c-1.1,0.8-1.6,1.7-1.6,2.9c0,1.1,0.4,2.1,1.3,3c0.9,0.8,1.9,1.2,3.3,1.2c1.5,0,2.9-0.5,4.2-1.5c1-0.7,1.6-1.6,2-2.7
					c0.2-0.7,0.3-2,0.3-4v-1.6C123.2,21.7,121.5,22.1,119.3,22.6L119.3,22.6z M26.5,22.6c-2.3,0.5-3.8,1-4.5,1.4
					c-1.1,0.8-1.6,1.7-1.6,2.9c0,1.1,0.4,2.1,1.3,3c0.9,0.8,1.9,1.2,3.3,1.2c1.5,0,2.9-0.5,4.2-1.5c1-0.7,1.6-1.6,2-2.7
					c0.2-0.7,0.3-2,0.3-4v-1.6C30.5,21.7,28.8,22.1,26.5,22.6L26.5,22.6z M26.5,22.6c-2.3,0.5-3.8,1-4.5,1.4
					c-1.1,0.8-1.6,1.7-1.6,2.9c0,1.1,0.4,2.1,1.3,3c0.9,0.8,1.9,1.2,3.3,1.2c1.5,0,2.9-0.5,4.2-1.5c1-0.7,1.6-1.6,2-2.7
					c0.2-0.7,0.3-2,0.3-4v-1.6C30.5,21.7,28.8,22.1,26.5,22.6L26.5,22.6z M119.3,22.6c-2.3,0.5-3.8,1-4.4,1.4
					c-1.1,0.8-1.6,1.7-1.6,2.9c0,1.1,0.4,2.1,1.3,3c0.9,0.8,1.9,1.2,3.3,1.2c1.5,0,2.9-0.5,4.2-1.5c1-0.7,1.6-1.6,2-2.7
					c0.2-0.7,0.3-2,0.3-4v-1.6C123.2,21.7,121.5,22.1,119.3,22.6L119.3,22.6z M308.7,26.8c-0.6-0.7-1.4-1-2.2-1
					c-0.9,0-1.6,0.3-2.2,1s-0.9,1.7-0.9,2.9c0,1.3,0.3,2.3,0.9,2.9c0.6,0.7,1.4,1,2.2,1c0.9,0,1.6-0.3,2.2-1s0.9-1.7,0.9-3
					C309.6,28.4,309.3,27.5,308.7,26.8L308.7,26.8z M308.7,26.8c-0.6-0.7-1.4-1-2.2-1c-0.9,0-1.6,0.3-2.2,1s-0.9,1.7-0.9,2.9
					c0,1.3,0.3,2.3,0.9,2.9c0.6,0.7,1.4,1,2.2,1c0.9,0,1.6-0.3,2.2-1s0.9-1.7,0.9-3C309.6,28.4,309.3,27.5,308.7,26.8L308.7,26.8z
					 M119.3,22.6c-2.3,0.5-3.8,1-4.4,1.4c-1.1,0.8-1.6,1.7-1.6,2.9c0,1.1,0.4,2.1,1.3,3c0.9,0.8,1.9,1.2,3.3,1.2
					c1.5,0,2.9-0.5,4.2-1.5c1-0.7,1.6-1.6,2-2.7c0.2-0.7,0.3-2,0.3-4v-1.6C123.2,21.7,121.5,22.1,119.3,22.6L119.3,22.6z M26.5,22.6
					c-2.3,0.5-3.8,1-4.5,1.4c-1.1,0.8-1.6,1.7-1.6,2.9c0,1.1,0.4,2.1,1.3,3c0.9,0.8,1.9,1.2,3.3,1.2c1.5,0,2.9-0.5,4.2-1.5
					c1-0.7,1.6-1.6,2-2.7c0.2-0.7,0.3-2,0.3-4v-1.6C30.5,21.7,28.8,22.1,26.5,22.6L26.5,22.6z M22.1,24c-1.1,0.8-1.6,1.7-1.6,2.9
					c0,1.1,0.4,2.1,1.3,3c0.9,0.8,1.9,1.2,3.3,1.2c1.5,0,2.9-0.5,4.2-1.5c1-0.7,1.6-1.6,2-2.7c0.2-0.7,0.3-2,0.3-4v-1.6
					c-1,0.3-2.7,0.8-5,1.2C24.3,23.1,22.8,23.6,22.1,24L22.1,24z M114.8,24c-1.1,0.8-1.6,1.7-1.6,2.9c0,1.1,0.4,2.1,1.3,3
					c0.9,0.8,1.9,1.2,3.3,1.2c1.5,0,2.9-0.5,4.2-1.5c1-0.7,1.6-1.6,2-2.7c0.2-0.7,0.3-2,0.3-4v-1.6c-1,0.3-2.7,0.8-5,1.2
					C117,23.1,115.5,23.6,114.8,24L114.8,24z M306.4,25.8c-0.9,0-1.6,0.3-2.2,1s-0.9,1.7-0.9,2.9c0,1.3,0.3,2.3,0.9,2.9
					c0.6,0.7,1.4,1,2.2,1c0.9,0,1.6-0.3,2.2-1s0.9-1.7,0.9-3s-0.3-2.2-0.9-2.9C308.1,26.1,307.3,25.8,306.4,25.8L306.4,25.8z
					 M354.3,31.1c-0.4,0.3-0.7,0.7-0.7,1.2c0,0.5,0.2,0.9,0.5,1.2c0.4,0.4,0.8,0.5,1.4,0.5s1.2-0.2,1.8-0.6c0.4-0.3,0.7-0.7,0.8-1.1
					c0.1-0.3,0.1-0.8,0.1-1.7V30c-0.4,0.1-1.1,0.3-2.1,0.5C355.2,30.7,354.6,30.9,354.3,31.1L354.3,31.1z M358.9,36.2
					c-0.1-0.2-0.2-0.6-0.3-1c-0.1-0.2-0.1-0.3-0.1-0.4c-0.6,0.6-1.2,1-1.9,1.3c-0.7,0.3-1.4,0.4-2.1,0.4c-1.3,0-2.4-0.4-3.1-1.1
					c-0.8-0.7-1.1-1.6-1.1-2.7c0-0.7,0.2-1.4,0.5-2c0.4-0.6,0.8-1,1.5-1.3c0.6-0.3,1.5-0.6,2.7-0.8c1.6-0.3,2.7-0.6,3.3-0.8v-0.3
					c0-0.7-0.2-1.1-0.5-1.4s-0.9-0.4-1.8-0.4c-0.6,0-1.1,0.1-1.4,0.4c-0.3,0.2-0.6,0.7-0.8,1.3l-3.1-0.6c0.4-1.2,1-2.2,1.8-2.8
					c0.9-0.6,2.1-0.9,3.8-0.9c1.5,0,2.7,0.2,3.4,0.5c0.8,0.4,1.3,0.8,1.6,1.4c0.3,0.6,0.5,1.6,0.5,3.1v4c0,1.1,0,2,0.2,2.5
					c0.1,0.5,0.3,1.1,0.6,1.7h-3.7V36.2z M343.4,36.2h-11.5v-2.7l4.8-5.5c0.8-0.9,1.4-1.5,1.8-1.9c-0.4,0-0.9,0-1.6,0h-4.5v-2.8H343
					v2.4l-4.9,5.7l-1.7,1.9c1-0.1,1.5-0.1,1.8-0.1h5.3L343.4,36.2L343.4,36.2z M320.6,36.2h3.4v-3.4h-3.4V36.2z M311.2,34.5
					c-1.3,1.3-2.8,1.9-4.8,1.9c-1.2,0-2.3-0.3-3.4-0.8s-1.9-1.3-2.5-2.4c-0.6-1-0.8-2.3-0.8-3.8c0-1.1,0.3-2.2,0.8-3.3
					c0.6-1.1,1.4-1.9,2.4-2.4c1-0.6,2.2-0.8,3.4-0.8c2,0,3.6,0.6,4.8,1.9c1.2,1.3,1.9,2.9,1.9,4.8C313.1,31.7,312.5,33.3,311.2,34.5
					L311.2,34.5z M291,35.3c-1,0.8-2.3,1.2-4,1.2c-1.9,0-3.4-0.6-4.5-1.8s-1.7-2.8-1.7-5c0-2.1,0.6-3.8,1.7-5s2.6-1.8,4.6-1.8
					c1.6,0,2.8,0.3,3.8,1c0.9,0.7,1.6,1.7,2,3.1l-3.4,0.6c-0.1-0.7-0.4-1.2-0.8-1.5s-0.9-0.5-1.6-0.5c-0.8,0-1.5,0.3-2,0.9
					s-0.8,1.6-0.8,2.9c0,1.5,0.3,2.6,0.8,3.2c0.5,0.6,1.2,0.9,2.1,0.9c0.6,0,1.2-0.2,1.6-0.6c0.4-0.4,0.7-1,0.9-1.9l3.3,0.6
					C292.6,33.3,292,34.5,291,35.3L291,35.3z M251.2-1v35.5h-8V-1.1c-19.7-2.2-35-18.9-35-39.1c0-21.8,17.6-39.4,39.4-39.4
					c21.7,0,39.4,17.6,39.4,39.4C286.9-19.7,271.2-2.8,251.2-1L251.2-1z M269.8,36.2h3.4v-3.4h-3.4V36.2z M224.6,36.2H197v-6.4
					l11.6-13.3c1.9-2.2,3.3-3.7,4.2-4.6c-0.9,0.1-2.2,0.1-3.8,0.1l-10.9,0.1V5.3h25.5v5.8l-11.8,13.6l-4.2,4.5
					c2.3-0.1,3.7-0.2,4.2-0.2h12.6v7.2H224.6z M180.1,36.2h-8.2V20.4c0-3.3-0.2-5.5-0.5-6.5c-0.4-1-0.9-1.7-1.7-2.3
					c-0.8-0.5-1.7-0.8-2.8-0.8c-1.4,0-2.7,0.4-3.8,1.2s-1.9,1.8-2.3,3.1c-0.4,1.3-0.6,3.7-0.6,7.1v14H152V5.3h7.6v4.5
					c2.7-3.5,6.1-5.2,10.2-5.2c1.8,0,3.4,0.3,4.9,1s2.6,1.5,3.4,2.5c0.8,1,1.3,2.2,1.6,3.4c0.3,1.3,0.4,3.1,0.4,5.5L180.1,36.2
					L180.1,36.2z M126,36.2c-0.2-0.6-0.5-1.4-0.8-2.4c-0.1-0.5-0.2-0.8-0.3-1c-1.4,1.4-2.9,2.4-4.5,3.1c-1.6,0.7-3.3,1-5.1,1
					c-3.2,0-5.7-0.9-7.5-2.6c-1.8-1.7-2.7-3.9-2.7-6.5c0-1.8,0.4-3.3,1.2-4.7c0.8-1.4,2-2.4,3.5-3.1s3.7-1.4,6.5-1.9
					c3.8-0.7,6.5-1.4,7.9-2v-0.8c0-1.6-0.4-2.7-1.2-3.4c-0.8-0.7-2.2-1-4.4-1c-1.4,0-2.6,0.3-3.4,0.9c-0.8,0.6-1.5,1.6-2,3l-7.4-1.3
					c0.8-3,2.3-5.2,4.3-6.6s5.1-2.1,9.1-2.1c3.6,0,6.4,0.4,8.1,1.3c1.8,0.9,3,2,3.8,3.3c0.7,1.3,1.1,3.8,1.1,7.3l-0.1,9.5
					c0,2.7,0.1,4.7,0.4,6c0.3,1.3,0.8,2.7,1.5,4.2h-8L126,36.2L126,36.2z M87.3,36.2h-8.2V20.4c0-3.3-0.2-5.5-0.5-6.5
					s-0.9-1.7-1.7-2.3c-0.8-0.5-1.7-0.8-2.8-0.8c-1.4,0-2.7,0.4-3.8,1.2c-1.1,0.8-1.9,1.8-2.3,3.1s-0.6,3.7-0.6,7.1v14h-8.2V5.3h7.6
					v4.5c2.7-3.5,6.1-5.2,10.2-5.2c1.8,0,3.4,0.3,4.9,1s2.6,1.5,3.4,2.5s1.3,2.2,1.6,3.4c0.3,1.3,0.4,3.1,0.4,5.5V36.2z M33.2,36.2
					c-0.2-0.6-0.5-1.4-0.8-2.4c-0.1-0.5-0.2-0.8-0.3-1c-1.4,1.4-2.9,2.4-4.5,3.1c-1.6,0.7-3.3,1-5.1,1c-3.2,0-5.7-0.9-7.5-2.6
					c-1.8-1.7-2.7-3.9-2.7-6.5c0-1.8,0.4-3.3,1.2-4.7c0.8-1.4,2-2.4,3.5-3.1s3.7-1.4,6.5-1.9c3.8-0.7,6.5-1.4,7.9-2v-0.8
					c0-1.6-0.4-2.7-1.2-3.4c-0.8-0.7-2.2-1-4.4-1c-1.5,0-2.6,0.3-3.4,0.9c-0.8,0.6-1.5,1.6-2,3L13,13.5c0.8-3,2.3-5.2,4.3-6.6
					s5.1-2.1,9.1-2.1c3.6,0,6.4,0.4,8.1,1.3c1.8,0.9,3,2,3.8,3.3c0.7,1.3,1.1,3.8,1.1,7.3l0.1,9.3c0,2.7,0.1,4.7,0.4,6
					c0.3,1.3,0.8,2.7,1.5,4.2H33.2z M275.4,6.7c0.9-0.5,1.8-1.1,2.7-1.7c14.3-9.7,23.8-26,23.8-44.6c0-29.7-24.1-53.8-53.8-53.8
					s-53.8,24.1-53.8,53.8c0,8.9,2.2,17.3,6,24.8H0V53h378.1V6.7H275.4z M26.5,22.6c-2.3,0.5-3.8,1-4.5,1.4
					c-1.1,0.8-1.6,1.7-1.6,2.9c0,1.1,0.4,2.1,1.3,3c0.9,0.8,1.9,1.2,3.3,1.2c1.5,0,2.9-0.5,4.2-1.5c1-0.7,1.6-1.6,2-2.7
					c0.2-0.7,0.3-2,0.3-4v-1.6C30.5,21.7,28.8,22.1,26.5,22.6L26.5,22.6z M119.3,22.6c-2.3,0.5-3.8,1-4.4,1.4
					c-1.1,0.8-1.6,1.7-1.6,2.9c0,1.1,0.4,2.1,1.3,3c0.9,0.8,1.9,1.2,3.3,1.2c1.5,0,2.9-0.5,4.2-1.5c1-0.7,1.6-1.6,2-2.7
					c0.2-0.7,0.3-2,0.3-4v-1.6C123.2,21.7,121.5,22.1,119.3,22.6L119.3,22.6z M308.7,26.8c-0.6-0.7-1.4-1-2.2-1
					c-0.9,0-1.6,0.3-2.2,1s-0.9,1.7-0.9,2.9c0,1.3,0.3,2.3,0.9,2.9c0.6,0.7,1.4,1,2.2,1c0.9,0,1.6-0.3,2.2-1s0.9-1.7,0.9-3
					C309.6,28.4,309.3,27.5,308.7,26.8L308.7,26.8z M308.7,26.8c-0.6-0.7-1.4-1-2.2-1c-0.9,0-1.6,0.3-2.2,1s-0.9,1.7-0.9,2.9
					c0,1.3,0.3,2.3,0.9,2.9c0.6,0.7,1.4,1,2.2,1c0.9,0,1.6-0.3,2.2-1s0.9-1.7,0.9-3C309.6,28.4,309.3,27.5,308.7,26.8L308.7,26.8z
					 M119.3,22.6c-2.3,0.5-3.8,1-4.4,1.4c-1.1,0.8-1.6,1.7-1.6,2.9c0,1.1,0.4,2.1,1.3,3c0.9,0.8,1.9,1.2,3.3,1.2
					c1.5,0,2.9-0.5,4.2-1.5c1-0.7,1.6-1.6,2-2.7c0.2-0.7,0.3-2,0.3-4v-1.6C123.2,21.7,121.5,22.1,119.3,22.6L119.3,22.6z M26.5,22.6
					c-2.3,0.5-3.8,1-4.5,1.4c-1.1,0.8-1.6,1.7-1.6,2.9c0,1.1,0.4,2.1,1.3,3c0.9,0.8,1.9,1.2,3.3,1.2c1.5,0,2.9-0.5,4.2-1.5
					c1-0.7,1.6-1.6,2-2.7c0.2-0.7,0.3-2,0.3-4v-1.6C30.5,21.7,28.8,22.1,26.5,22.6L26.5,22.6z M26.5,22.6c-2.3,0.5-3.8,1-4.5,1.4
					c-1.1,0.8-1.6,1.7-1.6,2.9c0,1.1,0.4,2.1,1.3,3c0.9,0.8,1.9,1.2,3.3,1.2c1.5,0,2.9-0.5,4.2-1.5c1-0.7,1.6-1.6,2-2.7
					c0.2-0.7,0.3-2,0.3-4v-1.6C30.5,21.7,28.8,22.1,26.5,22.6L26.5,22.6z M119.3,22.6c-2.3,0.5-3.8,1-4.4,1.4
					c-1.1,0.8-1.6,1.7-1.6,2.9c0,1.1,0.4,2.1,1.3,3c0.9,0.8,1.9,1.2,3.3,1.2c1.5,0,2.9-0.5,4.2-1.5c1-0.7,1.6-1.6,2-2.7
					c0.2-0.7,0.3-2,0.3-4v-1.6C123.2,21.7,121.5,22.1,119.3,22.6L119.3,22.6z M308.7,26.8c-0.6-0.7-1.4-1-2.2-1
					c-0.9,0-1.6,0.3-2.2,1s-0.9,1.7-0.9,2.9c0,1.3,0.3,2.3,0.9,2.9c0.6,0.7,1.4,1,2.2,1c0.9,0,1.6-0.3,2.2-1s0.9-1.7,0.9-3
					C309.6,28.4,309.3,27.5,308.7,26.8L308.7,26.8z M308.7,26.8c-0.6-0.7-1.4-1-2.2-1c-0.9,0-1.6,0.3-2.2,1s-0.9,1.7-0.9,2.9
					c0,1.3,0.3,2.3,0.9,2.9c0.6,0.7,1.4,1,2.2,1c0.9,0,1.6-0.3,2.2-1s0.9-1.7,0.9-3C309.6,28.4,309.3,27.5,308.7,26.8L308.7,26.8z
					 M119.3,22.6c-2.3,0.5-3.8,1-4.4,1.4c-1.1,0.8-1.6,1.7-1.6,2.9c0,1.1,0.4,2.1,1.3,3c0.9,0.8,1.9,1.2,3.3,1.2
					c1.5,0,2.9-0.5,4.2-1.5c1-0.7,1.6-1.6,2-2.7c0.2-0.7,0.3-2,0.3-4v-1.6C123.2,21.7,121.5,22.1,119.3,22.6L119.3,22.6z M26.5,22.6
					c-2.3,0.5-3.8,1-4.5,1.4c-1.1,0.8-1.6,1.7-1.6,2.9c0,1.1,0.4,2.1,1.3,3c0.9,0.8,1.9,1.2,3.3,1.2c1.5,0,2.9-0.5,4.2-1.5
					c1-0.7,1.6-1.6,2-2.7c0.2-0.7,0.3-2,0.3-4v-1.6C30.5,21.7,28.8,22.1,26.5,22.6L26.5,22.6z M26.5,22.6c-2.3,0.5-3.8,1-4.5,1.4
					c-1.1,0.8-1.6,1.7-1.6,2.9c0,1.1,0.4,2.1,1.3,3c0.9,0.8,1.9,1.2,3.3,1.2c1.5,0,2.9-0.5,4.2-1.5c1-0.7,1.6-1.6,2-2.7
					c0.2-0.7,0.3-2,0.3-4v-1.6C30.5,21.7,28.8,22.1,26.5,22.6L26.5,22.6z M119.3,22.6c-2.3,0.5-3.8,1-4.4,1.4
					c-1.1,0.8-1.6,1.7-1.6,2.9c0,1.1,0.4,2.1,1.3,3c0.9,0.8,1.9,1.2,3.3,1.2c1.5,0,2.9-0.5,4.2-1.5c1-0.7,1.6-1.6,2-2.7
					c0.2-0.7,0.3-2,0.3-4v-1.6C123.2,21.7,121.5,22.1,119.3,22.6L119.3,22.6z M119.3,22.6c-2.3,0.5-3.8,1-4.4,1.4
					c-1.1,0.8-1.6,1.7-1.6,2.9c0,1.1,0.4,2.1,1.3,3c0.9,0.8,1.9,1.2,3.3,1.2c1.5,0,2.9-0.5,4.2-1.5c1-0.7,1.6-1.6,2-2.7
					c0.2-0.7,0.3-2,0.3-4v-1.6C123.2,21.7,121.5,22.1,119.3,22.6L119.3,22.6z M26.5,22.6c-2.3,0.5-3.8,1-4.5,1.4
					c-1.1,0.8-1.6,1.7-1.6,2.9c0,1.1,0.4,2.1,1.3,3c0.9,0.8,1.9,1.2,3.3,1.2c1.5,0,2.9-0.5,4.2-1.5c1-0.7,1.6-1.6,2-2.7
					c0.2-0.7,0.3-2,0.3-4v-1.6C30.5,21.7,28.8,22.1,26.5,22.6L26.5,22.6z M26.5,22.6c-2.3,0.5-3.8,1-4.5,1.4
					c-1.1,0.8-1.6,1.7-1.6,2.9c0,1.1,0.4,2.1,1.3,3c0.9,0.8,1.9,1.2,3.3,1.2c1.5,0,2.9-0.5,4.2-1.5c1-0.7,1.6-1.6,2-2.7
					c0.2-0.7,0.3-2,0.3-4v-1.6C30.5,21.7,28.8,22.1,26.5,22.6L26.5,22.6z M119.3,22.6c-2.3,0.5-3.8,1-4.4,1.4
					c-1.1,0.8-1.6,1.7-1.6,2.9c0,1.1,0.4,2.1,1.3,3c0.9,0.8,1.9,1.2,3.3,1.2c1.5,0,2.9-0.5,4.2-1.5c1-0.7,1.6-1.6,2-2.7
					c0.2-0.7,0.3-2,0.3-4v-1.6C123.2,21.7,121.5,22.1,119.3,22.6L119.3,22.6z M119.3,22.6c-2.3,0.5-3.8,1-4.4,1.4
					c-1.1,0.8-1.6,1.7-1.6,2.9c0,1.1,0.4,2.1,1.3,3c0.9,0.8,1.9,1.2,3.3,1.2c1.5,0,2.9-0.5,4.2-1.5c1-0.7,1.6-1.6,2-2.7
					c0.2-0.7,0.3-2,0.3-4v-1.6C123.2,21.7,121.5,22.1,119.3,22.6L119.3,22.6z M26.5,22.6c-2.3,0.5-3.8,1-4.5,1.4
					c-1.1,0.8-1.6,1.7-1.6,2.9c0,1.1,0.4,2.1,1.3,3c0.9,0.8,1.9,1.2,3.3,1.2c1.5,0,2.9-0.5,4.2-1.5c1-0.7,1.6-1.6,2-2.7
					c0.2-0.7,0.3-2,0.3-4v-1.6C30.5,21.7,28.8,22.1,26.5,22.6L26.5,22.6z M26.5,22.6c-2.3,0.5-3.8,1-4.5,1.4
					c-1.1,0.8-1.6,1.7-1.6,2.9c0,1.1,0.4,2.1,1.3,3c0.9,0.8,1.9,1.2,3.3,1.2c1.5,0,2.9-0.5,4.2-1.5c1-0.7,1.6-1.6,2-2.7
					c0.2-0.7,0.3-2,0.3-4v-1.6C30.5,21.7,28.8,22.1,26.5,22.6L26.5,22.6z M26.5,22.6c-2.3,0.5-3.8,1-4.5,1.4
					c-1.1,0.8-1.6,1.7-1.6,2.9c0,1.1,0.4,2.1,1.3,3c0.9,0.8,1.9,1.2,3.3,1.2c1.5,0,2.9-0.5,4.2-1.5c1-0.7,1.6-1.6,2-2.7
					c0.2-0.7,0.3-2,0.3-4v-1.6C30.5,21.7,28.8,22.1,26.5,22.6L26.5,22.6z"/>
			</g>
		</g>
	</g>
</g>
</svg>
