<?xml version="1.0" encoding="utf-8"?>
<!-- Generator: Adobe Illustrator 21.0.0, SVG Export Plug-In . SVG Version: 6.00 Build 0)  -->
<svg version="1.1" id="Layer_1" xmlns="http://www.w3.org/2000/svg" xmlns:xlink="http://www.w3.org/1999/xlink" x="0px" y="0px"
	 viewBox="0 0 400 156" style="enable-background:new 0 0 400 156;" xml:space="preserve">
<style type="text/css">
	.st0{fill:#495057;}
</style>
<title>Auto Mart</title>
<desc>Created with Sketch.</desc>
<g id="Page-1">
	<g id="Auto-Mart">
		<g id="Group-22" transform="translate(21.000000, 150.000000)">
			<path id="Fill-111" class="st0" d="M7.1-31.9h1.2c1.5,0,2.6-0.2,3.2-0.6s0.9-1.1,0.9-2.1c0-1.1-0.3-1.8-0.9-2.3
				c-0.6-0.4-1.7-0.7-3.3-0.7H7.1V-31.9z M7.1-23.2h1.1c1.1,0,2,0,2.5-0.1c0.6-0.1,1-0.2,1.3-0.5c0.4-0.3,0.7-0.6,0.9-1
				s0.3-0.9,0.3-1.5s-0.1-1.2-0.4-1.6c-0.3-0.5-0.6-0.8-1.1-1.1c-0.3-0.2-0.7-0.3-1-0.3c-0.4-0.1-0.9-0.1-1.6-0.1h-1h-1V-23.2z
				 M4-20.5v-19.7h5c1.4,0,2.5,0.1,3.1,0.2c0.7,0.2,1.3,0.4,1.7,0.8c0.6,0.4,1.1,1,1.4,1.8c0.3,0.7,0.5,1.5,0.5,2.4
				c0,1.1-0.2,1.9-0.7,2.6c-0.5,0.7-1.2,1.2-2.1,1.5c1.2,0.2,2.1,0.7,2.7,1.6c0.7,0.9,1,2,1,3.3c0,0.8-0.1,1.6-0.4,2.3
				C16-23.1,15.6-22.5,15-22c-0.5,0.5-1.2,0.9-2,1.2c-0.8,0.2-2.1,0.3-4,0.3H4z M29.3-40.2h3.2v12c0,1.8,0.4,3.1,1.2,4
				s2.1,1.3,3.7,1.3c1.6,0,2.8-0.4,3.7-1.3c0.8-0.9,1.2-2.2,1.2-4v-12h3.2V-28c0,2.7-0.7,4.7-2,6s-3.4,2-6.1,2c-2.7,0-4.7-0.7-6.1-2
				c-1.3-1.3-2-3.3-2-6C29.3-28,29.3-40.2,29.3-40.2z M63.6-20.5v-9l-6.7-10.7h3.4l4.1,6.7c0.1,0.2,0.2,0.4,0.4,0.7
				c0.1,0.3,0.3,0.6,0.4,0.9c0.1-0.3,0.3-0.6,0.4-0.9s0.3-0.5,0.4-0.8l4.2-6.6h3.2l-6.8,10.7v9C66.6-20.5,63.6-20.5,63.6-20.5z
				 M110.2-30.3c0-1-0.2-1.9-0.5-2.8c-0.4-0.9-0.9-1.7-1.6-2.4s-1.4-1.2-2.3-1.6c-0.9-0.4-1.8-0.6-2.8-0.6s-1.9,0.2-2.8,0.6
				c-0.9,0.4-1.7,0.9-2.3,1.6c-0.7,0.7-1.2,1.5-1.6,2.4s-0.5,1.8-0.5,2.9c0,1,0.2,1.9,0.5,2.8c0.4,0.9,0.9,1.7,1.6,2.4
				c0.7,0.7,1.5,1.2,2.3,1.6c0.9,0.4,1.8,0.6,2.8,0.6s1.9-0.2,2.7-0.6c0.9-0.4,1.6-0.9,2.3-1.6c0.7-0.7,1.2-1.5,1.6-2.4
				C110-28.4,110.2-29.3,110.2-30.3L110.2-30.3z M113.6-30.3c0,1.4-0.3,2.7-0.8,4c-0.5,1.2-1.3,2.4-2.3,3.3c-1,1-2.2,1.7-3.4,2.2
				c-1.3,0.5-2.6,0.8-4,0.8s-2.8-0.3-4.1-0.8c-1.3-0.5-2.4-1.3-3.4-2.2c-1-1-1.8-2.1-2.3-3.3c-0.5-1.2-0.8-2.6-0.8-4s0.3-2.7,0.8-4
				c0.5-1.2,1.3-2.4,2.3-3.4s2.1-1.7,3.4-2.2s2.6-0.8,4.1-0.8c1.4,0,2.8,0.3,4,0.8c1.3,0.5,2.4,1.3,3.4,2.2c1,1,1.8,2.1,2.3,3.4
				C113.3-33,113.6-31.7,113.6-30.3L113.6-30.3z M129.9-31.8h0.6c1.7,0,2.8-0.2,3.4-0.6c0.6-0.4,0.8-1.1,0.8-2.1
				c0-1.1-0.3-1.8-0.9-2.3c-0.6-0.4-1.7-0.7-3.3-0.7h-0.6V-31.8z M129.7-29.3v8.8h-3v-19.7h4.5c1.3,0,2.3,0.1,3.1,0.3
				c0.7,0.2,1.3,0.5,1.9,0.8c0.6,0.5,1.1,1.1,1.4,1.8c0.3,0.8,0.5,1.6,0.5,2.5c0,1.6-0.4,2.8-1.1,3.7c-0.8,0.9-1.9,1.4-3.4,1.6
				l6.8,9h-3.6l-6.6-8.8C130.2-29.3,129.7-29.3,129.7-29.3z M158.6-24.5l2.6-1.2c0.2,0.9,0.7,1.5,1.3,2S164-23,165-23
				s1.7-0.3,2.3-0.8s0.8-1.2,0.8-2.1c0-1.2-1-2.2-2.9-3.1c-0.3-0.1-0.5-0.2-0.6-0.3c-2.2-1.1-3.6-2-4.4-2.9
				c-0.7-0.9-1.1-1.9-1.1-3.1c0-1.6,0.5-2.9,1.6-3.9s2.5-1.5,4.3-1.5c1.5,0,2.7,0.3,3.7,0.8c1,0.6,1.7,1.4,2,2.4l-2.5,1.3
				c-0.4-0.6-0.8-1.1-1.3-1.4c-0.5-0.3-1-0.4-1.6-0.4c-0.9,0-1.6,0.2-2.1,0.7c-0.5,0.4-0.8,1-0.8,1.8c0,1.2,1.1,2.3,3.4,3.3
				c0.2,0.1,0.3,0.1,0.4,0.2c2,0.9,3.3,1.8,4,2.6c0.7,0.9,1.1,1.9,1.1,3.2c0,1.9-0.6,3.3-1.8,4.4s-2.8,1.6-4.8,1.6
				c-1.7,0-3.1-0.4-4.1-1.2C159.7-21.9,159-23,158.6-24.5L158.6-24.5z M184.3-20.5v-19.7h11v2.7h-7.8v4.9h7.8v2.8h-7.8v6.4h7.8v2.9
				H184.3z M208.5-20.5v-19.7h3.2v16.8h7.2v2.9C218.9-20.5,208.5-20.5,208.5-20.5z M230.9-20.5v-19.7h3.2v16.8h7.2v2.9
				C241.3-20.5,230.9-20.5,230.9-20.5z M277.3-35.4c-0.9-0.8-1.9-1.4-2.9-1.7c-1-0.4-2.1-0.6-3.2-0.6c-2.2,0-3.9,0.7-5.3,2.1
				c-1.4,1.4-2,3.2-2,5.4c0,2.1,0.7,3.9,2,5.3c1.3,1.4,3,2.1,5,2.1c1.2,0,2.3-0.2,3.3-0.6c1.1-0.4,2.1-1,3-1.9v3.6
				c-0.9,0.6-1.8,1.1-2.8,1.4s-2.1,0.5-3.3,0.5c-1.5,0-2.9-0.2-4.2-0.7c-1.3-0.5-2.4-1.2-3.4-2.2c-1-0.9-1.7-2.1-2.2-3.3
				c-0.5-1.3-0.8-2.6-0.8-4.1c0-1.4,0.3-2.8,0.8-4.1s1.3-2.4,2.2-3.3c1-1,2.1-1.7,3.4-2.2s2.6-0.7,4.1-0.7c1.2,0,2.3,0.2,3.3,0.5
				c1.1,0.3,2.1,0.9,3.1,1.5L277.3-35.4z M294.9-28.3h5.5l-2-4.5c-0.1-0.3-0.2-0.6-0.4-1c-0.1-0.4-0.3-0.8-0.4-1.2
				c-0.1,0.4-0.2,0.8-0.3,1.2c-0.1,0.4-0.2,0.7-0.4,1L294.9-28.3z M303.8-20.5l-2.2-5.1h-7.8l-2.3,5.1h-3.4l9.6-20.5l9.6,20.5H303.8
				z M321.7-31.8h0.6c1.7,0,2.8-0.2,3.4-0.6c0.6-0.4,0.8-1.1,0.8-2.1c0-1.1-0.3-1.8-0.9-2.3c-0.6-0.4-1.7-0.7-3.3-0.7h-0.6V-31.8z
				 M321.5-29.3v8.8h-3v-19.7h4.5c1.3,0,2.3,0.1,3.1,0.3c0.7,0.2,1.3,0.5,1.9,0.8c0.6,0.5,1.1,1.1,1.4,1.8c0.3,0.8,0.5,1.6,0.5,2.5
				c0,1.6-0.4,2.8-1.1,3.7c-0.8,0.9-1.9,1.4-3.4,1.6l6.8,9h-3.6l-6.6-8.8C322-29.3,321.5-29.3,321.5-29.3z M342.2-24.5l2.6-1.2
				c0.2,0.9,0.7,1.5,1.3,2c0.6,0.5,1.5,0.7,2.5,0.7s1.7-0.3,2.3-0.8c0.6-0.5,0.8-1.2,0.8-2.1c0-1.2-1-2.2-2.9-3.1
				c-0.3-0.1-0.5-0.2-0.6-0.3c-2.2-1.1-3.6-2-4.4-2.9c-0.7-0.9-1.1-1.9-1.1-3.1c0-1.6,0.5-2.9,1.6-3.9s2.5-1.5,4.3-1.5
				c1.5,0,2.7,0.3,3.7,0.8c1,0.6,1.7,1.4,2,2.4l-2.5,1.3c-0.4-0.6-0.8-1.1-1.3-1.4c-0.5-0.3-1-0.4-1.6-0.4c-0.9,0-1.6,0.2-2.1,0.7
				c-0.5,0.4-0.8,1-0.8,1.8c0,1.2,1.1,2.3,3.4,3.3c0.2,0.1,0.3,0.1,0.4,0.2c2,0.9,3.3,1.8,4,2.6c0.7,0.9,1.1,1.9,1.1,3.2
				c0,1.9-0.6,3.3-1.8,4.4c-1.2,1.1-2.8,1.6-4.8,1.6c-1.7,0-3.1-0.4-4.1-1.2C343.2-21.9,342.5-23,342.2-24.5L342.2-24.5z"/>
			<path id="Fill-112" class="st0" d="M27.7-87.7L25-70.8h-5l-2.5,15.2H0l6.7-40.6c1.3-7.8,4.3-13.9,8.9-18.3
				c4.7-4.3,10.6-6.5,17.7-6.5c6.9,0,11.7,2,14.3,5.9c2.7,3.9,3.3,10,1.9,18.2l-6.8,41.3H25.4l6.6-40c0.4-2.5,0.4-4.1,0-5.1
				c-0.4-0.9-1.3-1.4-2.7-1.4c-2.8,0-4.5,2.2-5.2,6.5l-1.3,7.9C22.8-87.7,27.7-87.7,27.7-87.7z M59-101.6h16.1l-4.3,26.3
				c-0.4,2.7,0.3,4,2.3,4s3.2-1.3,3.6-4l4.3-26.3h16.1l-4.3,26c-1,6.1-3.7,11.2-8.1,15.3c-4.4,4.2-9.3,6.3-14.6,6.3
				c-6.1,0-10.6-2.4-13.6-7.3c-2.3-3.8-2.9-9-1.8-15.7L59-101.6z M123.3-119.5l-2.9,17.9h7.2l-3,18.5h-7.2c-0.6,3.7-0.5,6.3,0.3,7.7
				c0.8,1.4,2.7,2.1,5.5,2.1l-3,18.4c-0.8,0-1.5,0-1.9,0c-3.6,0-6.9-0.9-9.8-2.8c-2.9-1.8-5.1-4.3-6.5-7.5c-1.8-4-2.2-9.3-1.1-16
				l6.3-38.3H123.3z M155.4-103.2c6.1,0,10.9,2.4,14.5,7.1c3.6,4.8,4.8,10.4,3.7,17.1s-4.3,12.5-9.4,17.2
				c-5.2,4.7-10.9,7.1-17.1,7.1c-6.2,0-11.2-2.4-14.8-7.1c-3.6-4.8-4.9-10.5-3.8-17.2c1.1-6.8,4.3-12.6,9.5-17.2
				C143.1-100.9,148.9-103.2,155.4-103.2L155.4-103.2z M152.2-86c-1.7,0-3.3,0.7-4.7,2c-1.4,1.4-2.3,3-2.6,5c-0.3,1.9,0,3.6,1,5
				s2.3,2.1,4,2.1s3.3-0.7,4.7-2.1s2.3-3,2.6-5s0-3.6-1-5C155.3-85.3,153.9-86,152.2-86L152.2-86z"/>
			<path id="Fill-113" class="st0" d="M176-56l7.6-45.8c0.9-5.7,3.3-10.3,7.1-13.9s8.2-5.4,13.3-5.4c6,0,10.2,3,12.5,8.9
				c2.5-3.2,5-5.5,7.5-6.9s5.4-2.1,8.8-2.1c5.3,0,9.1,1.8,11.3,5.4s2.8,8.8,1.7,15.5L238.4-56h-17.5l6.9-41.3c0.3-2,0.4-3.3,0.2-4
				s-0.8-1-1.7-1c-1.8,0-2.9,1.6-3.4,4.7L216-56h-17.5l6.9-41.3c0.3-2,0.4-3.3,0.2-4s-0.8-1-1.7-1c-1.7,0-2.9,1.7-3.4,5l-7,41.3H176
				z M274-73.3l-3,18c-1.4,0.2-2.6,0.3-3.7,0.3c-6.5,0-11.5-2.3-15-6.9c-3.6-4.6-4.8-10.3-3.6-17.3c1.1-6.7,4.2-12.4,9.4-17.1
				c5.1-4.7,10.8-7,17.1-7c7,0,12.1,2.2,15.4,6.6s4.3,10.4,3,18L289.8-56h-16.2l3.6-21.5c0.4-2.4,0.2-4.4-0.7-5.9
				c-0.9-1.4-2.2-2.2-4.1-2.2c-1.7,0-3.3,0.7-4.7,2c-1.4,1.3-2.3,2.9-2.6,4.7c-0.3,1.9,0,3.5,0.9,4.7s2.2,1.9,3.9,1.9
				C271.3-72.1,272.7-72.5,274-73.3L274-73.3z M329.9-102.8l-3.1,18.6c-1-0.7-2-1-2.9-1c-2.9,0-4.8,2.4-5.6,7.2l-3.7,22h-16.2
				l4.2-25.3c1.1-6.7,3.7-12,7.8-16c4.1-4,8.9-6,14.6-6C326.3-103.3,327.9-103.1,329.9-102.8L329.9-102.8z M354.7-119.5l-3,17.8h7.3
				l-3.1,18.4h-7.3c-0.6,3.7-0.5,6.2,0.3,7.6s2.7,2.1,5.6,2.1l-3,18.3c-0.8,0-1.5,0-1.9,0c-3.7,0-7-0.9-9.9-2.7s-5.1-4.3-6.6-7.4
				c-1.8-4-2.2-9.3-1.1-15.9l6.3-38.1L354.7-119.5L354.7-119.5z"/>
		</g>
	</g>
</g>
</svg>
