<?xml version="1.0" encoding="utf-8"?>
<!-- Generator: Adobe Illustrator 21.0.0, SVG Export Plug-In . SVG Version: 6.00 Build 0)  -->
<svg version="1.1" id="Layer_1" xmlns="http://www.w3.org/2000/svg" xmlns:xlink="http://www.w3.org/1999/xlink" x="0px" y="0px"
	 viewBox="0 0 400 162" style="enable-background:new 0 0 400 162;" xml:space="preserve">
<style type="text/css">
	.st0{fill:#495057;}
</style>
<title>auto slm</title>
<desc>Created with Sketch.</desc>
<g id="Page-1_1_">
	<g id="auto-slm">
		<g id="Page-1" transform="translate(2.000000, 145.000000)">
			<path id="Fill-1" class="st0" d="M135-88c1.4-0.2,2.8-0.5,4.1-0.8c3.9-0.8,7.5-2.6,11-4.4c9.6-5.1,19.2-10.2,28.8-15.3
				c9.6-5,19.6-8.6,30.2-10.6c8-1.5,16.1-2.1,24.3-1.8c15.8,0.5,31.2,3.8,46.2,8.8c12.1,4,23.7,9.2,35.1,14.8
				c5.8,2.8,11.7,5.6,17.8,7.5c6.8,2.2,13.8,3.2,20.9,3.4c9.9,0.3,19.8-0.1,29.7-0.8c4.1-0.3,8.2-0.7,12.3-1c0.5,0,1-0.1,1.5,0.1
				c-1.5,0.5-3,1.1-4.5,1.6c-9.7,3.3-19.6,5.9-29.5,8.1c-11,2.4-22,1.8-32.8-1.4c-8.3-2.5-16.2-6.1-24-9.9
				c-8.8-4.2-17.5-8.5-26.3-12.6c-8.8-4-17.9-7-27.4-8.6c-7.1-1.2-14.2-1.5-21.4-1.1c-20,1.2-38.3,8.1-55.4,18.5
				c-3.5,2.1-7.1,4.1-10.8,5.9c-3.2,1.5-6.7,1.9-10.2,2c-6.3,0.2-12.6-0.5-18.8-1.9c-0.3-0.1-0.6-0.2-0.8-0.3
				C135-87.9,135-88,135-88"/>
			<path id="Fill-4" class="st0" d="M169-78.3c-2.7-0.3-5.3-0.7-8-1c-4.1-0.4-8.2-0.9-12.3-1.2c-9.4-0.8-18.9-1.2-28.4-1.2
				c-9.7,0-19.3,0.3-29,1.1c-12.7,1.1-25.2,3-37.6,6.1c-11.9,3-23.4,7.1-34,13.3c-2.8,1.6-5.4,3.4-8.1,5.1c1.7,3.2,2.1,6.6,2.4,10
				c0.5,5.6,0.8,11.3,0.9,16.9c0.1,2.5-0.4,5-0.7,7.5c-0.1,0.6-0.4,1.2-0.6,1.8c12.2,0.6,23.8,3.6,34.8,8.8
				c-15-3.1-30.2-4.7-45.7-4.4c0.2-0.8,0.4-1.5,0.6-2.2c3.1-12.1,1.9-23.8-2.8-35.2c-0.1-0.3-0.2-0.5-0.3-0.8
				c-0.4-0.6-0.2-1,0.3-1.4c9.6-9,20.5-16,32.4-21.6c11-5.1,22.5-8.8,34.4-11c6.6-1.2,13.3-1.9,20.1-2.3c7.9-0.4,15.7-0.3,23.6,0.3
				c19.7,1.3,38.9,4.9,57.7,10.9c0.1,0,0.3,0.1,0.4,0.2C169-78.4,169-78.4,169-78.3"/>
			<path id="Fill-7" class="st0" d="M334-65.9c2.1,0,4.2,0,6.3,0c1.2,0,2.5-0.3,3.4,0.2c0.8,0.5,1.2,1.9,1.7,2.9
				c5.9,11.2,11.7,22.4,17.6,33.6c0.1,0.2,0.3,0.5,0.5,0.8c1.3-2.5,2.6-4.8,3.8-7.2c5.2-9.8,10.3-19.6,15.5-29.4
				c0.3-0.6,0.7-0.9,1.4-0.9c2.9,0,5.8,0,8.8,0v46.8h-9.7v-26.2c-0.1,0-0.1,0-0.2-0.1c-0.6,1.2-1.3,2.3-1.9,3.5
				c-3.7,7.3-7.4,14.6-11.1,22c-0.3,0.6-0.7,0.8-1.3,0.8c-3.5,0-7,0-10.5,0c-0.7,0-1-0.2-1.3-0.8c-3.7-7.4-7.5-14.7-11.2-22.1
				c-0.6-1.1-1.2-2.2-1.9-3.3v26.2H334V-65.9z"/>
			<path id="Fill-9" class="st0" d="M75.1-56.6c-0.3,0-0.5-0.1-0.8-0.1c-9.5,0-19,0-28.6,0c-0.7,0-0.8,0.2-0.8,0.9c0,2.7,0,5.3,0,8
				c0,0.2,0.1,0.4,0.1,0.6h30.1V-56.6z M85-19h-9.9v-18.7c-0.5,0-0.9-0.1-1.3-0.1c-9.3,0-18.6,0-27.8,0c-0.9,0-1.2,0.2-1.2,1.2
				c0.1,5.5,0,11,0,16.5c0,0.4,0,0.7,0,1.2H35v-1C35-32,35-44,35-56.1c0-5.7,3.8-9.7,9.5-9.7c10.2-0.1,20.4,0,30.5,0
				c4.4,0,9,3.9,9.8,8.2c0.1,0.5,0.1,1,0.1,1.5c0,12.1,0,24.2,0,36.3L85-19L85-19z"/>
			<path id="Fill-11" class="st0" d="M216.1-56.7c-0.4,0-0.6-0.1-0.9-0.1c-9.5,0-18.9,0-28.4,0c-0.9,0-0.9,0.4-0.9,1.1
				c0,8.8,0,17.5,0,26.3c0,0.9,0.3,1.2,1.2,1.2c9.3,0,18.7,0,28,0c0.3,0,0.7,0,1-0.1L216.1-56.7L216.1-56.7z M201-19
				c-4.9,0-9.9,0-14.8,0c-1.5,0-3-0.2-4.4-0.6c-3.3-0.9-5.1-3.3-5.6-6.7c-0.1-1-0.2-1.9-0.2-2.9c0-8.9,0-17.9,0-26.8
				c0-5.6,4-9.8,9.7-9.9c10.3-0.1,20.6-0.1,30.8,0c4.7,0,8.6,3.4,9.4,7.9c0.1,0.6,0.1,1.2,0.1,1.9c0,9.2,0,18.3,0,27.5
				c0,1.1-0.1,2.3-0.3,3.4c-0.7,3.4-3.1,5.6-6.7,6.1c-1.2,0.2-2.4,0.2-3.6,0.2C210.6-19,205.8-19,201-19L201-19z"/>
			<path id="Fill-13" class="st0" d="M275.6-66v9.3H243v9.5h1.1c8.3,0,16.5,0,24.8,0c3.1,0,5.8,0.9,7.8,3.3c1.3,1.5,2.2,3.3,2.2,5.3
				c0.1,3.6,0.1,7.1,0,10.7c-0.1,4.9-3.7,8.5-8.5,8.8c-0.6,0-1.3,0.1-1.9,0.1c-11.2,0-22.4,0-33.6,0h-1v-9.4h35.2v-9.5H268
				c-8.3,0-16.5,0-24.8,0c-1.4,0-2.8-0.2-4.1-0.6c-3.4-1.1-5.6-3.5-5.9-7.2c-0.3-4-0.3-8.1-0.1-12.2c0.3-4.4,4.2-7.9,8.6-8.2
				c0.9-0.1,1.9-0.1,2.9-0.1c9.9,0,19.7,0,29.6,0h1.4V-66z"/>
			<path id="Fill-15" class="st0" d="M92.1-66c3.2,0,6.2,0,9.3,0c0.2,0,0.5,0.4,0.6,0.6s0,0.5,0,0.7c0,11.7,0,23.4,0,35
				c0,1.3,0,1.3,1.3,1.3c9.2,0,18.4,0,27.6,0c1.3,0,1.3,0,1.3-1.3c0-11.7,0-23.4,0-35.1V-66h9.9v1c0,12.1,0,24.1,0,36.2
				c0,5.8-3.8,9.7-9.6,9.7c-10.3,0-20.7,0.1-31,0c-5.5,0-9.4-4.1-9.4-9.6c0-12.1,0-24.2,0-36.4C92-65.3,92-65.6,92.1-66"/>
			<polygon id="Fill-17" class="st0" points="296,-66 296,-29.1 326,-29.1 326,-20 286,-20 286,-66 			"/>
			<path id="Fill-19" class="st0" d="M169-28v9c-0.3,0-0.5,0.1-0.7,0.1c-3.3,0-6.6,0-9.9,0c-5-0.1-9.5-3.9-9.5-9.4
				c0.1-16.1,0-32.3,0-48.4v-1c0.4,0,0.6-0.1,0.9-0.1c2.7,0,5.4,0,8.1,0c0.8,0,1,0.3,1,1c0,3.3,0,6.5,0,9.8v1.3h6.8
				c0,0.4,0.1,0.7,0.1,1c0,1.8,0,3.7,0,5.5c0,0.8-0.2,1.1-1.1,1.1c-1.9-0.1-3.7,0-5.7,0c0,0.5-0.1,0.8-0.1,1.2c0,9.3,0,18.6,0,28
				c0,0.9,0.3,1.2,1.2,1.2c2.6-0.1,5.1,0,7.7,0h1.2V-28z"/>
		</g>
	</g>
</g>
</svg>
