<?xml version="1.0" encoding="utf-8"?>
<!-- Generator: Adobe Illustrator 21.0.0, SVG Export Plug-In . SVG Version: 6.00 Build 0)  -->
<svg version="1.1" id="Layer_1" xmlns="http://www.w3.org/2000/svg" xmlns:xlink="http://www.w3.org/1999/xlink" x="0px" y="0px"
	 viewBox="0 0 400 400" style="enable-background:new 0 0 400 400;" xml:space="preserve">
<style type="text/css">
	.st0{fill:#FFFFFF;}
</style>
<g>
	<polygon id="path-1" class="st0" points="82,318.2 82.2,318.2 82.2,318.1 82,318.1 	"/>
</g>
<title>Autoxloo</title>
<desc>Created with Sketch.</desc>
<g id="Page-1_1_">
	<g id="Autoxloo">
		<g id="Page-1" transform="translate(58.000000, 81.000000)">
			<path id="Fill-1" class="st0" d="M0,206.4c0.3,0,0.4-0.2,0.4-0.4c0.2-2,0.9-4,1.5-5.9c2.6-8.5,5.3-17,8-25.5
				c2.1-6.8,4.2-13.6,6.4-20.4c2.5-7.9,5-15.9,7.4-23.8c2.1-6.8,4.2-13.6,6.4-20.5c1.2-3.8,2.2-7.6,3.7-11.3
				c1.9-4.5,4.4-8.6,7.6-12.4c4-4.7,8.8-8.3,14.4-10.9c4.2-2,8.5-3.3,13.1-3.9c3.1-0.4,6.2-0.5,9.3-0.5c39.1,0,78.3,0,117.4,0
				c0.2,0,0.4,0,0.7,0c0.6-0.1,0.8,0.1,0.6,0.7c-0.7,2.3-1.5,4.7-2.2,7c-1.6,5.1-3.2,10.1-4.7,15.2c-0.4,1.5-1.2,2.7-2.3,3.8
				c-2.3,2.3-4.6,4.7-6.9,7.1c-2.6,2.8-5.2,5.5-7.9,8.3c-0.9,0.9-1.7,1.8-2.5,2.7c-0.5,0.5-1,0.7-1.7,0.7c-11,0-21.9,0-32.9,0
				c-15.7,0-31.4,0-47.1,0c-4,0-7.7,1.2-11.2,3.1c-2.5,1.3-4.8,3-6.7,5.1c-2.8,3-4.9,6.5-6.1,10.5c-1.3,4.2-2.7,8.4-4,12.6
				c-2.3,7.5-4.8,14.9-7,22.5c-1.5,5.5,0.2,10.3,3.9,14.5c2.4,2.6,5.3,4.2,8.8,4.8c1.2,0.2,2.4,0.3,3.6,0.3c29.4,0,58.8,0,88.2,0
				c0.3,0,0.5,0,0.8,0c0.6,0,0.9,0.1,0.6,0.8c-0.4,1.3-0.8,2.7-1.2,4c-2.9,9.1-5.7,18.2-8.6,27.4c-1.4,4.6-2.9,9.2-4.3,13.7
				c-0.1,0.4-0.2,0.8-0.2,1.2H23.8c-0.1-0.1-0.1-0.2-0.2,0h-0.8c0-0.4-0.3-0.3-0.5-0.4c-0.5-0.1-1-0.2-1.6-0.3
				c-5.5-1.3-10.2-4.1-13.9-8.4c-3.4-3.9-5.7-8.2-6.5-13.3c0-0.2-0.1-0.4-0.4-0.4v-6.8c0.1-0.1,0.1-0.1,0-0.2v-0.7H0z"/>
			<path id="Fill-3" class="st0" d="M157,238c0.1-1.3,0.7-2.5,1.1-3.8c3.7-11.9,7.4-23.7,11.1-35.6c0.8-2.4,1.5-4.9,2.3-7.3
				c0.1-0.5,0.4-0.7,0.9-0.7c7.1-0.4,12.7-4.6,14.8-11.4c3.6-11.5,7.2-23,10.8-34.5c0.7-2.1,1.3-4.2,2-6.2c0.3-0.8,0-1-0.7-1
				c-7.8,0-15.6,0-23.4,0h-1c-0.1-0.4,0.2-0.5,0.3-0.7c4.9-5.1,9.7-10.1,14.6-15.2c5.4-5.7,10.9-11.4,16.3-17.1
				c3.9-4.1,7.9-8.2,11.8-12.3c5.4-5.7,10.9-11.4,16.3-17.1c2.1-2.2,4.3-4.5,6.4-6.7c0.4-0.5,0.6-0.5,1,0.1
				c3.6,7,7.2,13.9,10.8,20.9c5.7,11,11.4,22,17.1,33c2.5,4.7,4.9,9.5,7.4,14.2c0.1,0.2,0.2,0.5,0.4,0.8c-0.4,0.2-0.7,0.1-1,0.1
				c-10.8,0-21.6,0-32.4,0c-0.8,0-1.1,0.2-1.4,1c-4.2,13.4-8.3,26.9-12.5,40.3c-3.9,12.6-7.8,25.1-11.7,37.7
				c-1.2,3.8-2.5,7.5-4.9,10.7c-4.4,5.8-10.1,9.3-17.3,10.5c-0.7,0.1-1.5,0-2.1,0.4h-37V238z"/>
			<path id="Fill-5" class="st0" d="M284,116.6v0.4c-3.6,0-7.3,0-10.9,0c-0.6,0-1-0.1-1.3-0.7c-2.8-5.5-5.7-11-8.5-16.5
				c-6.1-11.9-12.2-23.7-18.3-35.6c-1-1.9-2-3.9-3-5.8c-0.3-0.7-0.6-0.9-1.2-0.2c-6.3,6.7-12.7,13.3-19,20c-3.8,4-7.7,8.1-11.5,12.1
				c-5.5,5.8-11,11.6-16.5,17.4c-2.8,3-5.7,6-8.5,9c-0.2,0.3-0.5,0.4-0.9,0.4c-3.4,0-6.8,0-10.2,0c-0.1,0-0.2,0-0.2-0.1
				c-0.1-0.3,0.2-0.4,0.3-0.6c3.4-3.6,6.9-7.2,10.3-10.8c5.5-5.7,10.9-11.5,16.4-17.2c3.9-4.1,7.8-8.2,11.7-12.3
				c2.9-3,5.8-6.1,8.7-9.2c0.2-0.2,0.4-0.5,0.6-0.8c0.1-1.3,0.7-2.5,1.1-3.8c1.8-5.9,3.6-11.8,5.5-17.7c0.2-0.7,0.1-1-0.7-0.9
				c-0.2,0-0.5,0-0.8,0H52.2c-1.4,0-1.4,0-1-1.3c2.2-6.9,4.3-13.8,6.5-20.8c2.2-6.9,4.3-13.8,6.4-20.7c0.1-0.3,0.2-0.6,0.2-0.9H280
				c0,0.4,0.4,0.4,0.6,0.6c1.7,1,2.4,2.6,2.2,4.5c-0.1,0.8-0.4,1.5-0.6,2.3c-1.7,5.5-3.4,10.9-5.1,16.4c-2.9,9.4-5.8,18.8-8.8,28.3
				c-1.1,3.6-2.2,7.2-3.3,10.7c-1.1,3.5-2.2,7-3.3,10.5c0.2,0.3,0.3,0.7,0.5,1c2.2,4.3,4.4,8.6,6.7,12.9c4.8,9.3,9.5,18.5,14.3,27.8
				C283.3,115.6,283.5,116.2,284,116.6"/>
			<path id="Fill-7" class="st0" d="M0,208c0.2,0.1,0.2,0.2,0,0.2V208z"/>
			<g id="Group-11" transform="translate(24.000000, 237.000000)">
				<g id="Clip-10">
				</g>
				<path id="Fill-9" class="st0" d="M0,0.2C0.1,0,0.2,0,0.2,0.2H0z"/>
			</g>
		</g>
	</g>
</g>
</svg>
