<?xml version="1.0" encoding="utf-8"?>
<!-- Generator: Adobe Illustrator 21.0.0, SVG Export Plug-In . SVG Version: 6.00 Build 0)  -->
<svg version="1.1" id="Layer_1" xmlns="http://www.w3.org/2000/svg" xmlns:xlink="http://www.w3.org/1999/xlink" x="0px" y="0px"
	 viewBox="0 0 392 98" style="enable-background:new 0 0 392 98;" xml:space="preserve">
<style type="text/css">
	.st0{fill:#FFFFFF;}
</style>
<title>barloworld</title>
<desc>Created with Sketch.</desc>
<g id="Page-1">
	<g id="barloworld">
		<path id="Fill-4" class="st0" d="M122.6,17.5c1.2,0,2.4,0.1,3.6,0c3-0.2,4.5-2.1,3.8-5.1c-0.2-1.1-0.9-1.8-1.9-2.1
			c-1.8-0.6-3.6-0.3-5.5-0.3C122.6,10,122.6,17.5,122.6,17.5z M122.7,33.1c2.1,0,4.1,0.1,6.1,0c0.9-0.1,1.9-0.4,2.8-0.7
			c1.3-0.5,2-1.6,2.1-3c0.2-2.5-0.8-4-3.3-4.6s-5.1-0.4-7.8-0.4L122.7,33.1L122.7,33.1z M113,3c5.9,0.2,11.7,0.2,17.5,0.5
			c2.4,0.1,4.7,1,6.5,2.9c2.1,2.3,2.8,6.6,1.5,9.4c-0.8,1.7-2.1,2.9-4.2,3.8c0.3,0.1,0.6,0.2,0.8,0.3c3.3,1.1,6,3,7.2,6.4
			c2.1,5.7-1.1,11.6-7.3,13c-1.6,0.4-3.2,0.6-4.9,0.7c-5.6,0.1-11.2,0-16.8,0.1c-0.1,0-0.2,0-0.4,0L113,3L113,3z"/>
		<path id="Fill-6" class="st0" d="M276.8,30.3c0.6-2.9,1.1-5.7,1.7-8.6c0.5-2.7,1-5.3,1.6-8c0.1-0.4,0.1-0.8,0.7-0.8
			c2.6,0,5.3,0,7.9,0c0.1,0,0.2,0,0.4,0.1c-0.5,1.9-1,3.8-1.5,5.7c-1.8,6.8-3.6,13.5-5.3,20.3c-0.2,0.7-0.5,1-1.2,0.9
			c-2.7-0.1-5.3,0-8,0h-0.9c-1.4-5.9-2.7-11.7-4-17.6h-0.1c-1.3,5.8-2.7,11.7-4,17.5c-0.2,0-0.5,0-0.7,0c-2.8,0-5.6,0-8.4,0
			c-0.5,0-0.7-0.1-0.9-0.6c-2.3-8.6-4.6-17.3-6.8-25.9c0-0.1,0-0.2,0-0.4h8.8c1.1,5.7,2.3,11.5,3.4,17.2h0.1
			c0.1-0.2,0.1-0.4,0.2-0.7c1.1-5.3,2.3-10.6,3.4-15.9c0.1-0.6,0.3-0.8,0.9-0.8c2.8,0,5.5,0,8.3,0c0.6,0,0.8,0.2,0.9,0.8
			c1.1,5.3,2.3,10.6,3.4,16c0,0.2,0.1,0.4,0.2,0.6C276.7,30.3,276.7,30.3,276.8,30.3"/>
		<path id="Fill-8" class="st0" d="M382.8,32.2V17.7c-1.7,0-3.4,0-5,0.6c-1.4,0.5-2.4,1.5-2.9,2.8c-1,2.5-1.1,5-0.2,7.5
			c0.7,1.9,2,3.3,4.1,3.6C380.1,32.4,381.5,32.2,382.8,32.2 M382.8,11.1V0h9.2v38.9c-0.2,0-0.4,0.1-0.7,0.1c-4.1,0-8.2,0-12.3,0
			c-2.4,0-4.7-0.4-6.8-1.4c-3.3-1.6-5.5-4.1-6.5-7.6c-0.9-3.1-0.9-6.3,0-9.5c1.6-5,5.3-7.5,10.2-8.7c1.9-0.4,3.9-0.5,5.8-0.7
			C382.1,11,382.4,11.1,382.8,11.1"/>
		<path id="Fill-10" class="st0" d="M311.2,25.6c-0.1,0-0.1,0-0.2-0.1c0-1.7-0.2-3.4-0.9-5c-0.8-1.8-2.1-2.9-4-2.9
			c-2,0-3.4,0.9-4.2,2.8c-1.4,3.3-1.4,6.7,0,10c0.8,1.8,2.2,2.9,4.2,2.8s3.4-1.2,4-3C310.7,28.8,310.9,27.2,311.2,25.6 M292,24.4
			c0-2.5,0.9-5.9,3.3-8.7c2.8-3.3,6.5-4.6,10.6-4.6c4.7,0,8.8,1.6,11.6,5.7c2.2,3.2,2.8,6.9,2.4,10.7c-0.3,3.5-1.6,6.6-4.2,9
			c-3.6,3.3-7.9,4.1-12.5,3.3c-4.1-0.7-7.3-2.8-9.4-6.5C292.6,31.1,292,28.4,292,24.4"/>
		<path id="Fill-12" class="st0" d="M236.4,25.4c-0.4-1.7-0.6-3.3-1.2-4.8c-0.7-1.9-2.2-3-4.2-2.9c-2,0-3.4,1.2-4.1,3
			c-1.2,3.1-1.2,6.3,0,9.5c0.7,1.8,2,3,4.1,3s3.5-1,4.2-2.9C235.7,28.8,236,27.1,236.4,25.4 M245,26.7c-0.1,4.4-2,9-7.1,11.7
			c-4.2,2.2-8.6,2.2-13,0.4c-3.4-1.4-5.7-3.9-6.9-7.3c-1.2-3.2-1.3-6.5-0.6-9.9c0.6-2.7,1.8-5.1,3.9-7c3.3-3,7.3-3.9,11.6-3.4
			c3.9,0.4,7.2,2.1,9.6,5.5C244.3,19.3,245,22.3,245,26.7"/>
		<path id="Fill-14" class="st0" d="M162.7,25.3c-1.5,0.3-2.9,0.5-4.3,0.8c-1.1,0.3-2,0.9-2.6,1.8c-1.3,1.9-0.7,4.2,1.4,4.7
			c1.8,0.4,3.6,0.3,5.5,0.4L162.7,25.3L162.7,25.3z M149.7,19.1c0-2.1,0-4.2,0-6.4c0-0.1,0.2-0.4,0.4-0.4c4.9-1.3,9.9-1.8,14.8-0.4
			c4.5,1.2,6.9,4.2,7,8.8c0.1,6,0,12.1,0,18.1c0,0.1,0,0.1-0.1,0.2c-0.2,0-0.4,0.1-0.6,0.1c-5.5,0-11,0-16.4,0
			c-2.1,0-4.1-0.5-5.9-1.7c-2.7-1.8-3.6-4.8-2.6-8.3c1-3.2,3.3-5.2,6.3-6.5c2.8-1.2,5.8-1.6,8.8-1.7c0.4,0,0.7,0,1.1,0
			c0.4-1.8-0.2-2.9-1.9-3.4c-1.9-0.5-3.7-0.3-5.6,0.1C153.3,18,151.5,18.5,149.7,19.1L149.7,19.1z"/>
		<polygon id="Fill-16" class="st0" points="350,39 359,39 359,0 350,0 		"/>
		<polygon id="Fill-18" class="st0" points="202,39 211,39 211,0 202,0 		"/>
		<path id="Fill-19" class="st0" d="M237.1,87H234V61.6h2.8v4.1c0.1,0,0.1,0.1,0.2,0.1c1.5-3.3,4.1-4.8,7.7-4.9
			c3.5-0.1,5.7,1.5,7,5.4c0.1-0.3,0.3-0.5,0.4-0.7c2.9-5.6,10.4-5.8,13.6-2.5c1.4,1.5,2.2,3.3,2.2,5.3c0.1,6.1,0,12.2,0.1,18.3
			c0,0.1,0,0.1-0.1,0.2h-3v-1c0-5.2,0-10.3,0-15.5c0-0.8,0-1.5-0.2-2.3c-0.6-3.6-3.6-5.4-7.1-4.3c-2.8,0.9-4.1,3.2-4.7,5.9
			c-0.2,1.1-0.3,2.3-0.3,3.5c0,4.2,0,8.5,0,12.7V87h-3.1v-0.9c0-5.2,0-10.3,0-15.5c0-0.7,0-1.4-0.1-2c-0.5-4.1-4.2-6.1-8-4.2
			c-2.5,1.3-3.6,3.5-4,6.1c-0.2,1-0.2,2-0.2,3c0,4.2,0,8.4,0,12.6L237.1,87L237.1,87z"/>
		<path id="Fill-20" class="st0" d="M196,11.8v7.4c-0.4-0.2-0.7-0.3-1.1-0.4c-1.7-0.7-3.4-1.2-5.3-0.9c-1.5,0.2-2.4,1-2.6,2.5
			c-0.1,0.6-0.1,1.2-0.1,1.8c0,5.3,0,10.6,0,15.9c0,0.3,0,0.7,0,1.1h-8.8c0-0.1-0.1-0.2-0.1-0.3c0-6.4,0-12.8,0.1-19.2
			c0.1-3.9,2.3-6.6,6-7.7c1.2-0.4,2.4-0.6,3.6-0.7c2.6-0.2,5.1-0.1,7.7,0.5C195.6,11.6,195.8,11.7,196,11.8"/>
		<path id="Fill-21" class="st0" d="M334.9,39H326c0-0.3,0-0.6,0-0.9c0-5.6,0-11.2,0-16.8c0-1.2,0.1-2.4,0.4-3.5
			c0.9-3.7,3.5-5.6,7-6.3c3.4-0.7,6.9-0.6,10.3,0.2c0.1,0,0.2,0.1,0.3,0.1v7.3c-1.1-0.3-2.1-0.8-3.1-1s-2-0.4-3-0.3
			c-1.8,0.1-2.8,1.2-2.9,3c0,0.5,0,1,0,1.5c0,5.3,0,10.5,0,15.8L334.9,39L334.9,39z"/>
		<path id="Fill-22" class="st0" d="M155.9,74.5c-0.1-2.6-0.5-5.1-1.8-7.4c-1.5-2.5-3.7-3.6-6.6-3.4c-2.8,0.2-4.7,1.7-5.7,4.3
			c-1.7,4.3-1.7,8.7,0,12.9c1,2.5,2.9,4.1,5.7,4.3c2.9,0.3,5.2-0.9,6.7-3.4C155.4,79.6,155.8,77.1,155.9,74.5 M155.9,65.6v-3.9h3.1
			V98h-3.1V83.3c-0.1-0.1-0.2-0.1-0.3-0.2c0,0.1,0,0.3,0,0.3c-2,4.1-5.7,5.1-9.8,4.5c-3.5-0.6-5.9-2.7-7.2-5.9c-2-5-2-10.1-0.1-15.1
			c1.7-4.4,5.4-6,9.8-5.8c3.1,0.1,5.4,1.6,7.1,4.1c0.1,0.2,0.3,0.3,0.4,0.5C155.8,65.6,155.8,65.6,155.9,65.6"/>
		<path id="Fill-23" class="st0" d="M223.6,74.4c-0.4-1.9-0.6-3.8-1.1-5.7c-0.7-2.2-2.1-3.9-4.4-4.7c-3.9-1.2-7.5,0.7-9,4.7
			c-1.4,3.8-1.4,7.7,0,11.5c1.2,3.3,3.7,5.1,6.9,5.1c3.3-0.1,5.6-1.9,6.6-5.3C223.1,78.2,223.3,76.3,223.6,74.4L223.6,74.4z
			 M205,61.6h3v4.5c0.2-0.2,0.3-0.3,0.4-0.5c1.8-3.1,4.5-4.7,8.2-4.6c4.1,0.1,7.3,1.8,8.9,5.6c2.1,5.4,2.2,10.9-0.4,16.2
			c-2.7,5.5-8.7,6-12.6,4.5c-1.7-0.7-2.9-1.9-3.8-3.5c-0.1-0.2-0.2-0.4-0.5-0.6V98H205V61.6z"/>
		<path id="Fill-24" class="st0" d="M130.4,55h-13.8v12.5h13.1v2.9c-0.3,0-0.7,0-1,0c-3.7,0-7.5,0-11.2,0c-0.8,0-1,0.2-1,1
			c0,3.9,0,7.8,0,11.7c0,0.7,0.2,1,1,1c4.2,0,8.3,0,12.5,0h1V87h-17.9c0-0.3,0-0.6,0-0.9c0-11.1,0-22.1,0-33.2c0-0.8,0.2-1,1-1
			c5.2,0,10.4,0,15.6,0c0.2,0,0.5,0,0.8,0V55H130.4z"/>
		<path id="Fill-25" class="st0" d="M277.6,72.6h13.9c0.2-1.7-0.4-4.2-1.3-5.8c-1.3-2.3-3.7-3.5-6.3-3
			C280.2,64.5,277.3,68.6,277.6,72.6L277.6,72.6z M277.6,75.4c-0.4,4.6,2.3,8.7,6.2,9.6c2.9,0.7,5.7-0.1,8.4-1.2
			c0.2-0.1,0.5-0.2,0.8-0.4c0,1,0,1.9,0,2.8c0,0.2-0.2,0.4-0.3,0.5c-4.2,1.4-8.4,2-12.7,0.1c-2.2-1-3.7-2.6-4.6-4.8
			c-1.9-5-2.1-10.1,0.2-15c3.3-7,10.6-7,14.4-4.5c2.5,1.6,3.8,4.1,4.3,6.9c0.3,1.7,0.3,3.4,0.5,5.2c0.1,0.7-0.2,0.9-0.9,0.9
			c-5.2,0-10.4,0-15.5,0L277.6,75.4L277.6,75.4z"/>
		<path id="Fill-26" class="st0" d="M320.9,87h-3.1v-0.9c0-4.8,0-9.5,0-14.3c0-1.1-0.1-2.2-0.3-3.2c-0.7-3.7-3.3-5.5-7.1-4.8
			c-3.2,0.5-5,2.5-5.7,5.5c-0.4,1.3-0.5,2.8-0.5,4.2c-0.1,4.2,0,8.3,0,12.5v1H301V61.6h2.8v4.3c0.1,0,0.1,0,0.2,0
			c0.1-0.1,0.1-0.2,0.2-0.3c1.7-3.6,4.7-4.8,8.5-4.7c2.8,0.1,5.3,1,6.8,3.5c1,1.6,1.4,3.3,1.4,5.1c0.1,5.7,0,11.3,0,17
			C321,86.7,321,86.8,320.9,87"/>
		<path id="Fill-27" class="st0" d="M166,62h3.1c0,0.4,0,0.7,0,1.1c0,5.1,0,10.1,0,15.2c0,0.7,0.1,1.4,0.2,2c0.7,3.8,3.4,5.6,7.1,5
			c3.2-0.5,5-2.6,5.8-5.6c0.3-1.3,0.5-2.6,0.5-4c0.1-4.2,0-8.5,0-12.7v-1h3.1v25.4H183v-4.5c-0.2,0.3-0.3,0.4-0.4,0.5
			c-1.7,3.4-4.6,4.8-8.2,4.7c-1.1,0-2.2-0.2-3.2-0.5c-3-1-4.5-3.3-5.1-6.3c-0.2-1-0.3-2.1-0.3-3.1c0-5.2,0-10.3,0-15.5
			C166,62.4,166,62.3,166,62"/>
		<path id="Fill-28" class="st0" d="M340.9,84.8c0,0.2,0,0.4,0.1,0.5c0.2,2.1,0.2,2.2-1.9,2.5c-1.2,0.2-2.5,0.2-3.7,0
			c-2.5-0.4-3.9-2.1-4-5.1c-0.1-2.9-0.1-5.8-0.2-8.7c0-3.3,0-6.6,0-10H326v-2.7h5.1c0-1.9,0-3.7,0-5.5c0-0.6,0.1-0.9,0.7-1.1
			c0.8-0.2,1.6-0.5,2.5-0.8v7.4h6V64h-5.9c0,0.4,0,0.7,0,1c0,5.2,0,10.3,0,15.5c0,0.4,0,0.9,0.1,1.3c0.3,2.7,1.9,3.8,4.6,3.4
			C339.6,85.1,340.2,85,340.9,84.8"/>
		<polygon id="Fill-29" class="st0" points="195,88 198,88 198,62 195,62 		"/>
		<polygon id="Fill-38" class="st0" points="195,54 198,54 198,50 195,50 		"/>
		<g id="World">
			<path id="Fill-39" class="st0" d="M85.6,47.2c0,0.3,0.2,0.6,0.1,0.8c-0.2,0.9,0.4,1.9-0.3,2.8c-0.1,0.1,0,0.4,0.1,0.4
				c0.2,0.1,0.4,0.1,0.6,0c0.6-0.2,1.1-0.4,1.9-0.6v2.1h-0.1c-0.1-0.2-0.1-0.3-0.2-0.4c-0.3-0.3-0.6-0.5-0.9-0.8
				c-0.3,0.4-0.6,0.8-0.8,1.2c-0.2,0.3-0.1,0.7-0.3,1c-0.2,0.2-0.8,0.5-0.9,0.4c-0.3-0.2-0.4-0.6-0.5-1c0-0.2,0.2-0.5,0.2-0.7
				c0-0.4-0.1-0.9-0.2-1.3c-0.1-0.4-0.2-0.9-0.3-1.3c0-0.2,0-0.4,0.1-0.6c0.1-0.3,0.2-0.7,0.4-1c0.2-0.4,0.5-0.7,0.8-1
				C85.4,47.1,85.5,47.1,85.6,47.2"/>
			<path id="Fill-40" class="st0" d="M49,67.6c0.4-0.3,0.7-0.5,1-0.7c1.1-0.7,1.1-2,0-2.7c-0.1-0.1-0.3-0.1-0.4-0.2
				c-0.2-0.2-0.3-0.5-0.4-0.7c0.3-0.1,0.6-0.3,0.8-0.2c0.8,0.3,1.6,0.6,2.2,1c0.4,0.3,0.8,0.9,0.1,1.4c-0.8,0.7-0.6,1,0.4,1.3
				c0.2,0.1,0.3,0.3,0.4,0.5c-0.3,0.2-0.7,0.5-0.8,0.5c-0.5-0.2-0.9-0.1-1.3,0.2c-0.2,0.1-0.4,0.1-0.6,0
				C49.9,67.9,49.6,67.8,49,67.6"/>
			<path id="Fill-41" class="st0" d="M79.8,16c-1.9-0.4-3.9-0.4-4.8-2.2v-2.7c0.1,0,0.2-0.1,0.3-0.1c1.6,1.6,3.1,3.1,4.7,4.7
				C79.9,15.8,79.8,15.9,79.8,16"/>
			<path id="Fill-42" class="st0" d="M63.7,65c0.9,0.6,1.4,1.3,1,2.4c-0.1,0.3,0,0.8,0.1,1.1c0.2,0.6,0.1,1-0.3,1.5
				c-0.3-0.4-0.6-0.8-1.1-0.4c0,0-0.4-0.3-0.4-0.5c0-0.3,0-0.7,0-1.1c0.1-0.8,0.3-1.6,0.4-2.4C63.5,65.4,63.6,65.2,63.7,65"/>
			<path id="Fill-43" class="st0" d="M34,13c0-0.1,0.1-0.4,0.1-0.7c0-1,0.7-1.6,1.7-1.4c0.2,0,0.6-0.1,0.7-0.2
				c0.3-0.4,0.7-0.9,1.2-0.5c0.3,0.2,0.4,0.9,0.3,1.3c-0.1,0.4-0.5,0.8-0.9,0.9C36,12.7,35,12.8,34,13"/>
			<path id="Fill-44" class="st0" d="M27,60.1l0.1-0.1c1.3,0.8,1.9-0.2,2.6-1.4c0.3-0.6,0.7-1.1,1.1-1.7c0.1,0,0.1,0,0.2,0.1
				c0,0.4,0,0.7,0,1.1c-0.1,0.6-0.3,1.2-0.4,1.8c-0.3,0.9-0.8,0.8-1.4,0.6C28.5,61.3,27.6,61.1,27,60.1"/>
			<path id="Fill-45" class="st0" d="M71.3,23c0.4,0.2,0.8,0.4,1.2,0.6c0.1,0,0.2,0.1,0.2,0.1c0.6,0.7,1.1,1.5,1.8,2.2
				c0.4,0.4,0.9,0.7,1.3,1c0.1-0.1,0.1-0.1,0.2-0.2c0,0.3,0,0.7,0.1,1c-0.1,0.1-0.1,0.1-0.2,0.2c-0.9-0.8-1.7-1.6-2.6-2.4
				c-0.4-0.3-0.9-0.6-1.2-0.9c-0.4-0.5-0.7-1.1-1-1.6L71.3,23z"/>
			<path id="Fill-46" class="st0" d="M91,53c-0.3,1.1-0.6,2-0.8,3c-0.4-0.4-0.3-1-1.3-0.8c-0.1,0-0.2-0.2-0.3-0.3
				c-0.1-0.2-0.2-0.4-0.3-0.7c-0.1-0.2-0.2-0.4-0.3-0.6c0.3,0.1,0.6,0.1,0.9,0.2c0.4,0.2,0.7,0.2,0.8-0.2C89.8,53,90.2,53,91,53"/>
			<path id="Fill-47" class="st0" d="M22.9,22c-0.5-0.2-0.9-0.1-1.2,0.5c-0.1,0.3-0.8,0.6-1,0.4c-0.3-0.2-0.6-0.7-0.7-1.2
				c-0.1-0.4,0.4-0.7,0.7-0.5c0.5,0.5,0.9,0.3,1.5,0c0.3-0.2,0.7-0.3,1.1-0.3c0.2,0,0.5,0.3,0.7,0.5c-0.2,0.2-0.4,0.4-0.7,0.5
				C23.2,22,23.1,22,22.9,22"/>
			<path id="Fill-48" class="st0" d="M47.2,71c-0.1-1-0.1-1.8-0.2-2.7c0-0.1,0.3-0.3,0.4-0.3c0.4,0.1,0.8,0.1,1,0.3
				c0.3,0.3,0.4,0.8,0.6,1.3c0.1,0.4,0,0.7-0.5,0.8C48.1,70.5,47.8,70.7,47.2,71"/>
			<path id="Fill-49" class="st0" d="M59,78c1.1,0.1,1.7-1.7,3-0.8C60.9,79.3,59.8,79.6,59,78"/>
			<path id="Fill-50" class="st0" d="M41,16.2c1.5-0.5,4.3-0.1,5,0.8c-0.9-0.1-1.6-0.1-2.4-0.2c-0.3,0-0.7,0-1,0.1
				C41.9,17.2,41.5,17,41,16.2"/>
			<path id="Fill-51" class="st0" d="M60.7,7.1c0.6,0,1.1-0.1,1.7-0.1c0.2,0,0.5,0.1,0.5,0.2c0.1,0.1,0,0.4-0.2,0.5
				c-0.4,0.2-0.9,0.6-1.4,0c-0.1-0.1-0.4-0.1-0.6-0.1c-0.2,0-0.5,0-0.7,0c-0.1,0-0.1-0.3,0-0.4C60.2,7.2,60.5,7.1,60.7,7.1L60.7,7.1
				"/>
			<path id="Fill-52" class="st0" d="M88.4,60c-0.5-0.8-0.5-1.5,0-3c0.1,0.3,0.1,0.4,0.2,0.7c0.1-0.1,0.2-0.2,0.3-0.3H89
				C88.8,58.2,88.6,59.1,88.4,60"/>
			<path id="Fill-53" class="st0" d="M34.3,27c-0.1-0.2-0.1-0.3-0.2-0.4C33.9,26,34,25.9,34.7,26c0.4,0,1-0.1,1.3,0.5
				C35.4,26.7,34.9,26.8,34.3,27"/>
			<path id="Fill-54" class="st0" d="M74,47c0,0.6-0.1,1.2-0.1,1.7c0,0.1-0.3,0.3-0.3,0.3c-0.2-0.1-0.4-0.2-0.5-0.3
				C72.9,48.4,73.5,47.3,74,47"/>
			<path id="Fill-55" class="st0" d="M42,11.5c-0.6,0.2-1.2,0.3-1.8,0.5c-0.1,0-0.3-0.3-0.2-0.4c0.2-0.2,0.3-0.6,0.5-0.6
				c0.5,0,0.9,0.1,1.4,0.2C42,11.3,42,11.4,42,11.5"/>
			<path id="Fill-56" class="st0" d="M35.1,27.7c0.4-0.2,0.7-0.4,1.1-0.6c0.2-0.1,0.5-0.1,0.5,0c0.2,0.2,0.2,0.4,0.3,0.6
				c0,0-0.3,0.2-0.5,0.2C36.2,28,35.9,28,35.7,28s-0.4-0.1-0.6-0.1V27.7z"/>
			<path id="Fill-57" class="st0" d="M72,56c0.5-1.6,2.1-1.2,3-2C75,54.8,74,55.4,72,56"/>
			<path id="Fill-58" class="st0" d="M68,21.9c0.4-0.3,0.7-0.6,1.2-0.9c0.3,0.7,0.5,1.2,0.8,1.8c-0.1,0.1-0.2,0.1-0.3,0.2
				C69.2,22.7,68.7,22.3,68,21.9"/>
			<path id="Fill-59" class="st0" d="M67.5,22c-0.2-0.5-0.4-1-0.5-1.6c0-0.1,0.1-0.4,0.2-0.4c0.2,0,0.4,0.1,0.5,0.2
				c0.1,0.6,0.2,1.1,0.3,1.7C67.8,21.9,67.7,22,67.5,22"/>
			<path id="Fill-60" class="st0" d="M53.2,64c-0.1-0.4-0.1-0.7-0.2-1c0.3,0.1,0.7,0.2,1,0.2c0,0.1,0,0.2,0,0.2
				C53.8,63.6,53.6,63.8,53.2,64"/>
			<path id="Fill-61" class="st0" d="M86.5,62c0.2,0.2,0.4,0.4,0.5,0.7c0,0.1-0.4,0.2-0.6,0.3c-0.1-0.3-0.3-0.6-0.4-0.8
				C86.2,62.1,86.3,62.1,86.5,62"/>
			<path id="Fill-62" class="st0" d="M71,25c0.6,0.1,1.3,1.6,0.9,2c-0.1,0.1-0.6-0.1-0.6-0.2C71.1,26.2,71.1,25.6,71,25"/>
			<path id="Fill-63" class="st0" d="M82.1,73c-0.2-1.2,0-1.6,0.9-2C82.7,71.7,82.4,72.3,82.1,73"/>
			<path id="Fill-64" class="st0" d="M88,62c-0.3,0.7-0.6,1.3-0.9,2C86.8,63,87.1,62.1,88,62"/>
			<path id="Fill-65" class="st0" d="M65,11.1c-0.2,0.3-0.4,0.6-0.6,0.9c-0.1-0.1-0.2-0.1-0.4-0.2c0.2-0.3,0.5-0.6,0.7-0.8
				C64.8,11,64.9,11.1,65,11.1"/>
			<path id="Fill-66" class="st0" d="M90.8,42c0.1,0.3,0.1,0.7,0.2,1c-0.1,0-0.3,0-0.4,0c-0.2-0.3-0.4-0.6-0.6-1
				C90.3,42,90.6,42,90.8,42"/>
			<path id="Fill-67" class="st0" d="M87.4,44c-0.1-0.3-0.2-0.6-0.4-1C88.4,43.3,88.1,43.7,87.4,44"/>
			<path id="Fill-68" class="st0" d="M87.7,41c0.1,0.3,0.2,0.6,0.3,0.9c0,0-0.5,0.1-0.7,0.1L87,41.1C87.2,41.1,87.5,41,87.7,41"/>
			<path id="Fill-69" class="st0" d="M79,55c-0.5,1.3-0.7,1.3-1,0.1C78.3,55.1,78.6,55.1,79,55"/>
			<path id="Fill-70" class="st0" d="M74,56.2c-0.1,0.2-0.3,0.5-0.5,0.8c-0.2-0.2-0.5-0.4-0.5-0.4c0.1-0.2,0.4-0.4,0.6-0.6L74,56.2z
				"/>
			<path id="Fill-32" class="st0" d="M57.5,57.2c0.3,0.2,0.6,0.4,0.9,0.6c0.2,0.1,0.5,0.3,0.7,0.4c0.1-0.2,0.2-0.2,0.1-0.2
				c-0.6-0.9-0.6-2.1-1.4-3c-0.3-0.4-0.5-0.9-0.6-1.4c0-0.1,0.1-0.4,0.2-0.5c0.1-0.1,0.4,0,0.5,0.1c0.2,0.2,0.4,0.5,0.5,0.7
				c0.3,0.5,0.7,1.1,1,1.6c0.2,0.3,0.2,0.8,0.4,1.1c0.4,0.5,0.9,1,1.4,1.4c1.4,1.4,2.9,2.8,2.9,5.1c0,0.1,0,0.2,0,0.4
				c-0.9-0.9-1.7-1.8-2.6-2.6c-0.1,0.1-0.2,0.2-0.3,0.3c0.3,0.5,0.6,1.1,0.9,1.6c0,0.1-0.1,0.1-0.1,0.2c-0.4-0.1-0.8-0.2-1.2-0.4
				c0.2,0.4,0.3,0.8,0.6,1.4c-0.4-0.1-0.6-0.1-0.8-0.2c-0.6-0.5-1.2-1-1.8-1.4c-0.4-0.3-0.8-0.5-1.2,0.1c0,0.1-0.1,0.1-0.2,0.2
				c-0.4,0.1-0.8,0.2-1.1,0.3c-0.1-0.4-0.1-0.8-0.2-1.2h1.2c-0.2-0.4-0.3-0.7-0.5-1.1c-0.2-0.5-0.5-0.9-0.7-1.4
				c-0.1-0.4,0.1-0.9,0.5-0.7c0.9,0.4,0.9,0,0.8-0.8C57.3,57.6,57.4,57.5,57.5,57.2"/>
			<path id="Fill-33" class="st0" d="M76.6,52.5c-0.5,0.1-0.9,0.2-1.4,0.3c0-0.1-0.1-0.1-0.1-0.2c0.3-0.3,0.7-0.7,1.1-0.9
				c0.9-0.6,1.2-1.5,1.2-2.5c0-0.2-0.3-0.5-0.4-0.7c-0.2,0.2-0.4,0.4-0.5,0.7c-0.1,0.8-0.8,1.7-1.6,1.9C74.6,51.2,74.3,51,74,51
				c0.1-0.3,0-0.6,0.2-0.9c0.3-0.5,0.8-0.9,1-1.4c0.4-0.8,0.8-1.7,1.2-2.6c0.1-0.2,0.1-0.4,0.2-0.5c0.3-0.2,0.6-0.5,1-0.5
				c0.2,0,0.5,0.3,0.7,0.5c0.3,0.4,0.6,0.9,0.9,1.2s0.7,0.4,1.3,0.6c-0.1,0.2-0.2,0.6-0.4,0.9c-0.4,0.4-0.4,0.8,0.2,1
				s0.9,0.6,0.7,1.1c-0.2,0.4-0.8,0.7-1.2,0.7c-0.6,0-0.9,0.2-1.1,0.7c-0.1,0.3-0.3,0.6-0.6,0.8c-1.3,0.6-1.8,1.7-2.1,2.9
				c-0.1,0.2-0.2,0.4-0.3,0.6C75.1,55.4,75.1,55.4,76.6,52.5"/>
			<path id="Fill-34" class="st0" d="M84.8,31c-0.6,0-0.9,0.4-0.5,0.9c0.4,0.5,1,0.9,1.5,1.3c0.1,0,0.6-0.3,0.7-0.6
				C86.6,32.1,85.4,31,84.8,31 M90,35.9c-0.4-0.1-0.6-0.1-0.8-0.2c-0.6-0.3-0.9,0-1.1,0.5s-0.4,1.1-0.7,1.8
				c-0.2-0.4-0.5-0.6-0.5-0.8c0.1-1-0.4-0.8-1-0.5c-0.2-1.4-0.4-2.8-2-3.6c-0.4-0.2-0.5-0.7-0.9-1c-0.5-0.5-1.1-0.9-1.6-1.4
				c-0.7-0.8-0.6-0.9,0.4-1.2c0.1,0,0.1-0.1,0.4-0.3c-0.5-0.2-0.9-0.4-1.4-0.7c0.9-0.1,1.1-0.6,0.9-1.3c0.1,0,0.2-0.1,0.2-0.1
				c1.2,1.2,2.5,2.4,3.7,3.6c0.6,0.6,1.2,1.4,1.8,2.1c0.2,0.3,0.4,0.6,0.5,0.9c0.1,0.2,0.2,0.4,0.3,0.4C89.7,34,89.7,35,90,35.9"/>
			<path id="Fill-35" class="st0" d="M76.9,63.4c-0.3,0.5-0.4,1.1-0.8,1.3c-0.5,0.4-1.1,0.4-1.5-0.3c-0.3-0.5-0.6-1-0.9-1.4
				c-0.6-0.7-0.9-0.7-1.6,0c0.1-0.5,0.1-1.1,0.3-1.5c0.5-0.8,1.1-1.5,1.6-2.3c0.2-0.3,0.4-0.7,0.4-1.1c0.1-1.1,0.6-1.5,1.6-1.5
				c0.2,0,0.4-0.3,0.6-0.5c0.1-0.1,0.3-0.1,0.5-0.2c0,0.2,0.1,0.3,0.1,0.5c0,0.1-0.1,0.2-0.1,0.3C76.5,58,76.5,58,77,58.9
				c-0.3,0.1-0.8,0.2-0.9,0.4C76,60,76,60.7,76,61.4c0.3,0,0.6,0,1-0.1c0,0.4-0.3,0.7-0.7,1c-0.4,0.4-0.8,0.8-1.1,1.3
				c-0.1,0.1,0.1,0.4,0.2,0.7c0.2-0.1,0.3-0.2,0.5-0.3c0.3-0.2,0.5-0.5,0.7-0.7C76.8,63.3,76.8,63.4,76.9,63.4"/>
			<path id="Fill-36" class="st0" d="M87,56.7c-0.3-0.1-0.4-0.1-0.5-0.1c-0.2,0-0.5,0-0.7,0c0.1,0.3,0.2,0.5,0.4,0.8
				c0.6,0.9,0.2,1.9,0.2,2.8c-0.1,0-0.2,0.1-0.3,0.1c-0.3-0.7-0.5-1.5-0.8-2.4c-0.9,2-0.9-0.2-1.6,0c0,0.3,0.1,0.7,0.1,0.7
				c-0.7,0.9-1.2,1.7-1.8,2.5c-0.4-0.3-0.5-0.7-0.1-1.3c0.2-0.4,0.2-0.8-0.1-0.9c-0.2-0.1-0.5,0.2-0.7,0.4c-0.4,0.6-0.7,0.4-1.1,0.1
				c-0.6-0.4-1.2-0.9-1.8-1.3c0.2-0.5,1-0.7,1.5-0.2c0.9,0.9,1.7-0.1,2.5,0c0.1,0,0.2-0.4,0.2-0.7s0-0.6,0-0.9
				c0.3,0.3,0.5,0.7,0.8,0.7s0.6-0.3,0.9-0.6c0.4-0.4,0.7-0.9,1.1-1.2c0.2-0.2,0.6-0.2,0.8,0C86.3,55.5,86.5,56,87,56.7"/>
			<path id="Fill-37" class="st0" d="M84,44.7c-0.5,0.8-0.9,1.5-1.4,2.3c-0.5-0.5-1.1-1-1.6-1.5v-0.1c0.3-1.7-1-1.8-2-2.2
				c0,0,0,0-0.1-0.1c0.1-0.1,0.2-0.3,0.4-0.3c0.8-0.4,0.9-0.6,0.2-1.4c-0.4-0.5-0.6-0.9,0-1.3c0.5,0.6,1.1,1.2,1.7,1.8
				c0.2,0.2,0.5,0.2,0.7,0.4s0.3,0.5,0.3,0.7c-0.3,1.2,0.2,1.8,1.3,1.7C83.6,44.6,83.7,44.6,84,44.7"/>
			<path id="Fill-30" class="st0" d="M40.6,61.2c0.7,0.4,1,0,1.2-0.5c0-0.1-0.1-0.1-0.1-0.2C41.3,60.8,40.9,61,40.6,61.2 M43.3,59.1
				H43c-0.2,0.4-0.6,0.8-0.6,1.2c0,0.2,0.5,0.5,0.8,0.6c0.5,0.1,0.9-0.1,1.1-0.7C43.1,60.6,43.2,59.9,43.3,59.1 M47.8,56.1H47
				c0,0.1,0,0.2,0,0.3c0.1,0.4,0.4,0.9,0.4,1.3c-0.2,1.7-0.1,3.3,0.6,4.8c0.2,0.6-0.2,1.6-0.8,1.9c-0.8,0.3-0.8,0.9-0.8,1.6
				c0.1,1-0.3,1.3-1.2,1.2c0.1-0.3,0.1-0.7,0.1-1c0-0.2-0.2-0.3-0.3-0.5c-0.1,0.1-0.4,0.2-0.4,0.3c-0.1,0.4-0.2,0.9-0.3,1.3
				c-0.1,0.2-0.2,0.4-0.3,0.7c-0.2-0.2-0.5-0.4-0.5-0.6c0-1,0-2,0.9-2.9c-0.7-0.1-1.3-0.1-2-0.2c-0.2,0-0.4,0-0.5-0.1s0-0.3,0-0.5
				c0.2-0.7,0.4-1.5,0.6-2.2c-0.1-0.1-0.2-0.1-0.3-0.2c-0.2,0.2-0.5,0.4-0.6,0.7c-0.4,0.6-0.7,1.2-1.6,0.6c-0.1-0.1-0.3,0-0.5,0
				s-0.6-0.1-0.6-0.2c0-0.2,0-0.6,0.2-0.7c1.3-1.2,2.6-2.4,3.9-3.6c0.6-0.6,0.8-1.9,0.4-2.6c-0.1-0.2-0.1-0.6,0-0.8
				c0-0.1,0.4-0.2,0.6-0.1c0.5,0.2,1.1,0.2,1.2,0.9c0,0.1,0.2,0.1,0.3,0.2c0.1-0.1,0.2-0.3,0.1-0.4c-0.6-1,0-1.7,0.4-2.5
				c0.2-0.5,0.6-0.7,1.1-0.5s0.5,0.6,0.2,1.1c-0.1,0.3,0,0.8,0,1.2C47.5,55,47.7,55.5,47.8,56.1"/>
			<path id="Fill-31" class="st0" d="M60.5,55c0-0.3-0.1-0.6-0.1-0.8c0.1-0.9-0.2-1.3-1.1-1.5c-0.2,0-0.5-0.2-0.6-0.4
				c-0.4-0.5-0.6-1-1-1.5c-0.2-0.4-0.5-0.6-0.8,0c-0.2,0.5-0.6,0.3-0.8,0c-0.1-0.1-0.2-0.2-0.2-0.3c-0.7-1.3-1.5-2.5-2.2-3.8
				c-0.2-0.4,0-1.1,0.2-1.6c0.2-0.4,0.4-0.8-0.1-1.1c-0.1-0.1-0.2-0.2-0.2-0.2c0.1-1-0.7-1.3-1.4-1.7c-0.1,0.1-0.1,0.3-0.3,0.4
				c-0.2,0.1-0.4,0.2-0.5,0.2s-0.2-0.3-0.2-0.5s0.1-0.4,0.1-0.5c-0.1-0.4,0-1-0.3-1.3c-0.4-0.5-1-0.5-1.6-0.1
				c-0.4,0.2-0.7,0.6-1.3,0.2c1-0.9,2.2-1.2,3.5-1.2c0.5,0,0.9,0,1.4-0.1c0.1,0,0.2,0,0.3,0c1.7,0.8,3.1,1.9,4,3.6
				c0.1,0.2,0.1,0.5,0.1,0.8c0,0.4,0,0.8,0.2,1.2c0.2,0.7,0.6,1.3-0.4,1.8c-0.6,0.4,0,1,0.4,1.3c0.5,0.4,1,0.8,1.4,1.2
				c0.2,0.2,0.4,0.5,0.4,0.7c0,0.7,0.3,1.3,0.8,1.8C61,52.5,61.4,53.6,60.5,55"/>
			<path id="Fill-1" class="st0" d="M58.2,25.9c-0.1,0.1-0.1,0.3-0.2,0.4c0.3,0.1,0.7,0.3,1,0.4c0.1-0.1,0.1-0.2,0.2-0.4
				C58.9,26.2,58.6,26.1,58.2,25.9 M31.9,37.1c-0.9-0.6-1.1-0.5-1.3,0.3C31,37.3,31.4,37.2,31.9,37.1 M32.8,37.5
				c0.4-0.4,0.7-0.7,1.1-1c-0.3-0.3-0.5-0.5-0.8-0.8c-0.3,0.4-0.5,0.8-0.8,1.3C32.2,37,32.5,37.2,32.8,37.5 M26.9,11.5
				c0.7-0.2,1.5-0.3,2.2-0.5c0.1,0,0.2-0.2,0.3-0.3c0.2-0.4,0.5-0.8,0.7-1.2C29.5,9.3,28.2,10,26.9,11.5 M58.3,36.5
				c-0.1,0.3-0.2,0.6-0.1,0.7c0.5,0.8,1.1,1.5,1.7,2.2c0.1,0.1,0.3,0.1,0.5,0.2c0.1-0.2,0.2-0.4,0.1-0.6c-0.4-0.7-0.8-1.3-1.2-1.9
				C59.1,37,58.7,36.8,58.3,36.5 M29,41.8c0.7,0.3,1.2-0.5,1.5,0.4c0.2,0.8,0.6,1.5,1.4,1.7c0.2,0.1,0.5,0.1,0.7,0.2
				c0-0.3,0-0.6-0.1-0.8c-0.3-0.4-0.7-0.7-0.9-1.2c-0.2-0.3-0.3-0.7-0.3-1c0.1-0.9,0.7-1.2,1.6-1.3c0.3,0,0.8-0.1,0.9-0.3
				c0.2-0.6,0.3-1.3,0.5-2c-0.1-0.1-0.2-0.1-0.2-0.2c-0.5,0.4-1,0.8-1.4,1.2C32.5,38.7,32.2,39,32,39C30.4,39.4,30.2,41,29,41.8
				 M65.7,44.7c-0.1-0.5-0.3-1-0.4-1.5c-0.2-0.6-0.5-0.7-0.9-0.1c-0.3,0.5-0.7,1.2-0.6,1.7c0.1,1.2-0.4,2.1-1,3
				c-0.2,0.2-0.1,0.6-0.1,1c0,0.1,0.1,0.3,0.1,0.4c-0.4,1.3,0.6,2,1.3,2.8c0.5,0.7,0.7,1.2,0.4,2c-0.4,1.2-0.4,1.1,0.7,1.9
				c0.4,0.3,0.9,1.1,0.8,1.5c-0.2,1.2,0.2,2,0.9,2.8c0,0,0,0.1,0.1,0.3c-0.7-0.2-1.2-0.5-1.4-1.1c-0.1-0.3-0.3-0.5-0.5-0.7
				c-0.8-0.9-1.9-1.6-2.2-3c-0.2-0.9-0.7-1.8-0.6-2.8c0-0.4-0.4-0.9-0.7-1.3c-0.6-0.9-1.2-1.7-1.8-2.5c-0.4-0.6-0.3-1.1,0.1-1.6
				c0.4-0.5,0.8-0.9,1-1.4c0.3-0.8,0.5-1.6,0-2.4c-0.2-0.4-0.3-0.7,0-1.1c0.2-0.3,0.3-0.7,0.3-1.1c0-0.6-0.2-0.9-0.9-0.6
				c-0.2,0.1-0.6,0-0.9,0c-0.4,0-0.8,0.1-1.2,0.1c-0.2,0-0.4,0.1-0.4,0c-0.1-0.1-0.2-0.4-0.1-0.5c0.4-0.8-0.2-1.4-0.7-1.9
				c-0.1-0.1-0.5-0.2-0.6-0.1c-0.4,0.4-0.7,0.2-0.9-0.1c-0.6-0.9-1.4-1.3-2.4-1.2c-0.3,0-0.6-0.1-0.9-0.4c0.3-0.1,0.7-0.1,1-0.2
				c0.5-0.3,0.8-0.7,1.2-1.1c0,0-0.3-0.6-0.5-0.6c-2.4-0.1-4.8-0.6-7.1,0.3c-0.4,0.2-0.8,0.5-1.2,0.7c1.4,0.3,2.6,0.6,4,0.9
				c-1.2,0.6-2.2,1.2-3.2,1.7c-0.4,0.2-0.8,0.5-1.1,0.8c-1.4,1.5-2.7,3.1-4.1,4.6c-0.4,0.4-0.9,0.7-1.4,1c-1.1,0.5-1.2,0.9-0.2,2
				c0.2,0.2,0.3,0.4,0.5,0.6c-0.3,0.2-0.5,0.3-0.8,0.5c-0.1,0.1-0.4,0.1-0.4,0.2c-0.3,0.9-1.1,0.9-1.7,1.3c-0.5,0.3-0.8,0.5-0.3,1.1
				c0.2,0.2,0.2,0.7,0.1,0.9c-0.3,0.4-0.7,0.7-1.2,0.9c-0.4,0.2-1,0.2-1.6,0.2c-0.4-0.5-0.9-1.1-0.4-2.1c0.1-0.2,0.1-0.5-0.1-0.7
				c-0.1-0.1-0.4-0.1-0.6-0.1c-0.3,0-0.8,0.1-1-0.1c-0.2-0.2,0-0.6,0-0.9c-0.6-0.6-1.1-1.4-1.8-1.9c-0.6-0.4-1.4-0.5-2.2-0.7
				c-0.1,0-0.3,0.4-0.3,0.6c0,0.2,0.2,0.4,0.3,0.6c0,0.1-0.1,0.1-0.1,0.2c-0.3-0.1-0.6-0.2-0.9-0.4c-1.8-0.9-3.5-1.9-5.3-2.8
				c-0.2-0.1-0.4-0.2-0.6-0.2s-0.4,0.2-0.6,0.2c0.1,0.2,0.2,0.4,0.3,0.5c0.6,0.4,1.2,0.8,1.7,1.3c1.9,1.3,3.8,2.6,5.6,4
				c1.5,1.2,2.3,2.9,2.2,4.8c0,0.3-0.2,0.6-0.5,0.9c-0.2-0.7-0.5-1.4-0.7-2.1c-0.1,0-0.2,0-0.3,0c0,0.3-0.2,0.6-0.1,0.8
				c0.4,0.9-0.3,1.4-0.6,2c-0.1,0.2-0.8,0.2-1,0C27,56.6,26.8,56,27,55.8c1.1-1.5,0.2-4-1.2-5c-0.2-0.1-0.4-0.3-0.7-0.3
				c-0.4,0-0.7,0.1-1.1,0.1c0.1,0.3,0.3,0.7,0.4,1c0.3,0.6,0.8,1.1,1,1.7c0.1,0.4,0.1,0.9,0,1.3c-0.9,2.2-0.5,4.2,1.2,5.9
				c1.1,1.1,2.4,1.8,3.5,2.8c0.5,0.4,0.9,1.1,1.3,1.7c0.1,0.2-0.1,0.5-0.2,0.9c0.8,0.6,1.5,1.4,2.4,1.8s2,0.4,2.9,0.5
				c0,0.1,0,0.2,0,0.3c-0.4,0.1-0.8,0.3-1.1,0.3c-0.8,0-1.7,0-2.5,0c-0.3,0-0.6,0.2-1.1,0.3c0.7,1.1,1.3,2.1,2,3.1
				c0.5,0.7,0.9,1.5,1.4,2.2c0.3,0.4,0.6,0.8,0.9,1.1c1.8,1.5,3.6,3.1,5.5,4.5c1.3,1,2.8,1.8,4.2,2.5c2.1,1.1,4.4,1.8,6.8,2.3
				c0.6,0.1,1.3,0.1,1.9,0.1c2.7,0.1,5.4,0,8.1-0.6c1.5-0.3,3-0.9,4.5-1.4c0.3-0.1,0.5-0.4,0.6-0.7c0.4-1.1,1.3-1.5,2.4-1.2
				c0.3,0.1,0.7-0.1,1-0.2c0.4-0.1,0.8-0.4,1.2-0.4c0.9,0.2,1.5-0.1,2.1-0.7s1.3-0.9,2-1.4c0.2-0.1,0.3-0.4,0.4-0.6
				c0.4-0.7,0.7-1.4,1.5-1.6c0.2-0.1,0.4-0.3,0.6-0.6c0.9-1.1,1.6-2.3,3-2.9c-9.1,13.1-31.7,25-55.5,13.9C3.2,75.8-7.2,47.3,5.4,24
				C18.1,0.5,44.3-3.8,60.6,2.8c-0.4,0-0.7,0-1.1,0c-0.3,0-0.6,0-0.8,0.1c-0.4,0.3-0.7,0.7-1.2,1c0.1,0.1,0.2,0.2,0.3,0.4
				C57.9,4.6,58,4.9,58,5.2c-0.3,0.1-0.6,0.2-0.9,0.2C56.3,5.3,55.6,5,54.8,5c-0.3,0-0.7,0.5-1.1,0.9c-0.2-0.4-0.4-0.8-0.6-1.2
				c-0.3-0.4-0.6-0.7-1-0.9s-0.9-0.1-0.8,0.6c0.1,0.7-0.4,0.9-1,1c-1.5,0.1-2.9-0.1-4-1.4c-0.1-0.1-0.4-0.1-0.6-0.2
				c0,0.2-0.1,0.5,0,0.7c0.2,0.3,0.6,0.5,0.9,0.7c0.2,0.2,0.5,0.3,0.8,0.4C47.2,5.7,47,5.8,47,5.9c0,0.2,0,0.4,0.1,0.6
				c0.2-0.1,0.5-0.1,0.5-0.2c0.2-0.5,0.6-0.5,1-0.3c-0.1,0.3-0.2,0.5-0.3,0.9c0.3,0,0.6-0.1,0.9,0c0.3,0.1,0.6,0.3,0.9,0.5
				C50.2,7.5,50,7.9,49.8,8c-0.4,0.2-1.1,0.4-1.1,0.4c-0.4-0.7-1.2-0.7-1.8-1C46.3,7.2,46,6.8,46,6.2c0-0.2-0.3-0.4-0.4-0.7
				C45.4,5.7,45.2,5.8,45,6c-0.3,0.3-0.5,0.7-0.8,0.9c-1,0.6-2,1.2-3.1,1.8c-0.2,0.1-0.5,0.2-0.8,0.3c0-0.1-0.1-0.2-0.1-0.2
				c0.2-0.2,0.4-0.5,0.6-0.7c0.1-0.2,0.2-0.4,0.3-0.6c-0.2-0.1-0.4-0.1-0.6-0.2c-0.2,0-0.3-0.1-0.5-0.1c0.3-0.5,0.5-1,0.8-1.5
				c-0.1,0,0.1,0,0.2,0.1c0.2,0.1,0.4,0.3,0.6,0.4c0.1-0.2,0.1-0.5,0.2-0.7C41.9,5.3,42,5.2,42.2,5c0.1,0.2,0.2,0.3,0.3,0.5v0.1
				c0.1,0.4,0.1,0.7,0.2,1.1c0.1-0.3,0.3-0.6,0.4-0.9c0.1-0.3,0.3-0.6,0.4-0.9c-0.3-0.1-0.5-0.1-0.9-0.2c0.2-0.3,0.4-0.6,0.8-1
				c-0.6-0.2-1.1-0.5-1.5-0.4c-1,0.2-2.1,0.6-3,1.1c-0.3,0.2-0.4,0.8-0.7,1.2C38,6,37.8,6.5,37.5,6.8c-0.4,0.4-0.9,0.5-1.3,0.9
				C35.7,8.1,35,8.2,34.9,9c0,0.2-0.4,0.3-0.6,0.4C34,9.6,33.7,9.8,33.4,10c0,0.1,0.1,0.1,0.1,0.2c0.3-0.1,0.5-0.3,0.8-0.3
				s0.5,0.2,0.8,0.3c-0.1,0.2-0.1,0.4-0.3,0.6c-1,1.2-2.5,1.5-3.9,1.9c-1.1,0.4-2.2,0.8-3.3,1.2c-0.1,0-0.1,0.2-0.4,0.5
				c0.6-0.1,1,0,1.3-0.2c0.7-0.4,1.4-0.4,2,0c0.6,0.5,1.5,0.4,2,1.2c0.6,1,0.6,1.7-0.4,2.3c-0.2,0.1-0.4,0.2-0.3,0.2
				c0.4,0.5,0.8,1.1,1.2,1.6c0.1,0.1,0.3,0.1,0.4,0.1c0.4,0,0.9,0,1.3-0.1c0.3-0.1,0.6-0.4,1-0.8c0.5,0.1,1.3,0.3,2.1,0.4
				c0.2,0,0.6,0,0.7-0.2c1.1-1,2.2-1.1,3.4-0.2c0.2,0.1,0.6,0.1,0.7,0c0.6-0.8,1.3-0.3,2-0.3c0.6,0,1.3,0.2,1.9,0.3
				c0,0-0.1,0.2-0.4,0.5c0.5,0,0.8,0,1.1,0c1.3-0.2,2.6-0.4,4-0.6c0.6-0.1,1.2-0.2,1.8-0.3c0.8-0.1,1.6-0.4,2.4-0.4c1,0,1,0.1,1-0.8
				c0-0.2,0-0.4,0-0.6c-0.1,0-0.1-0.1-0.2-0.1c-0.4,0-0.8-0.1-1.1-0.1c0.1-0.4,0.2-0.8,0.4-1.1c0.4-0.6,0.9-1.2,1.8-1.3
				c0.6-0.1,1.2-0.7,1.7-1c-0.1-0.1-0.1-0.2-0.2-0.3c-0.4,0.1-0.7,0.2-1.1,0.2c-0.9,0.2-1.8,0.2-2.5,0.9c-0.2,0.2-0.5,0.2-0.8,0.2
				c-0.4-0.2-0.8-0.1-1.1,0.2c-0.1,0.1-0.5,0.1-0.7,0c-0.5-0.2-0.9-0.3-1.4,0c-0.4,0.2-1,0.2-1.7,0.1c0.3-0.2,0.6-0.3,0.9-0.5
				c0.2-0.2,0.4-0.5,0.5-0.7c-0.3-0.1-0.5-0.3-0.8-0.4c-0.4-0.1-0.7-0.2-1.1-0.2c0.3-0.2,0.6-0.5,1-0.6c0.7-0.2,1.5-0.4,2.2-0.4
				c1.9-0.2,3.7-0.4,5.6,0c0.6,0.1,1.4-0.1,2-0.3c0.2,0,0.2-0.5,0.4-0.7c-0.3-0.1-0.5-0.2-0.8-0.2c-0.6-0.1-1.3-0.2-1.9-0.3
				c-0.3,0-0.6-0.1-0.9-0.1c-1,0-2,0-3-0.1c-0.3,0-0.6-0.5-0.8-0.8c0-0.1,0.3-0.5,0.5-0.5c0.3-0.1,0.7-0.2,1.1-0.2
				c0.7,0.1,1.5,0.3,2.2,0.4c0.5,0.1,1,0.2,1.4,0.3C58.3,9,58.7,9,59.1,9c0.2,0,0.4-0.1,0.5-0.1c1.2,0.8,2.2-0.2,3.4-0.3
				s1.4-1.1,0.6-2.1c-0.1-0.1,0-0.6,0.1-0.6c0.9-0.2,1.7-0.5,2.6-0.6c0.4,0,0.9,0.4,1.4,0.7c0,0,0,0.1,0.1,0.3c-0.3,0-0.6,0.1-0.8,0
				c-0.8-0.4-1.7-0.1-2.1,0.7c-0.3,0.7-0.8,1.2-1.2,1.9c-0.1,0.2,0,0.4,0,0.7c0,0.2,0.2,0.5,0.2,0.7c-0.1,0.2-0.4,0.3-0.7,0.4
				c-0.4,0.1-0.7,0.1-1.2,0.2c0.2,0.3,0.3,0.4,0.4,0.5c0.4,0.4,0.2,0.7-0.3,0.8c-0.8,0.1-1.6,0.2-2.4,0.4c-0.2,0.1-0.6,0.5-0.6,0.7
				c0.1,0.7-0.2,0.9-0.8,1.1c-0.7,0.2-1.3,0.6-1.9,0.9c-0.5,0.3-0.4,0.6,0.1,0.7c0.4,0.1,0.8,0.1,1.2,0.2c0.2,0,0.4,0.1,0.6,0.2
				c0.3,0.1,0.5,0.2,1,0.4c0.2,1.5,1.6,0.7,2.5,1c-0.3,0.1-0.6,0.2-0.8,0.4c-0.2,0.2-0.5,0.5-0.6,0.7c0,0.2,0.3,0.5,0.6,0.6
				c0.7,0.3,1.5,0.6,2.3,0.9c0.2,0.1,0.3,0.2,0.4,0.4c0.5,0.4,0.9,0.9,1.6,1.3c-0.9-1-0.3-1.8,0.2-2.5c0.2-0.2,0.5-0.4,0.9-0.5
				c-0.3,1.5,0.5,2.6,1.2,3.8c0.1,0.2,0.1,0.5,0.1,0.7c0.1,0.3,0.1,0.7,0.2,1c0.3-0.1,0.6-0.2,0.8-0.4c0.7,0.8,1.4,1.5,2.1,2.4
				c0.1,0.2,0,0.6-0.2,0.9c-0.7-1.4-0.9-1.4-2-0.2c-0.5,0.5-1.4,0.4-2-0.2c-0.6-0.7-1.4-0.9-2.1-0.5c-1-0.9-1.9-1.8-2.8-2.7
				c-0.2-0.2-0.7-0.6-0.8-0.5c-1,0.6-1.8-0.2-2.6-0.4c-0.5-0.1-0.9-0.2-1.3,0.4c-0.3,0.6,0,1,0.4,1.2c1.2,0.6,2.3,1.1,3.5,1.6
				c1,0.4,1.9,1,2.6,1.9c0.3,0.4,0.7,0.6,1,0.9c0.2,0.2,0.6,0.4,0.6,0.6c0,0.4-0.1,0.9-0.2,1.3c-0.4-0.1-0.9-0.2-1.3-0.4
				c-0.3-0.1-0.3-0.5-0.5-0.8s-0.4-0.5-0.6-0.7c-0.1,0.1-0.2,0.1-0.3,0.2c0.2,0.4,0.4,0.8,0.7,1.3s0.7,1,1,1.5c0.1,0.2,0,0.6,0,0.9
				c-0.3,0-0.5,0-0.8-0.1c-1.1,0-1.7-0.9-2.5-1.5c-0.2-0.1-0.2-0.5-0.4-1c-0.5-0.4-1.3-1-1.9-1.6c-0.4-0.4-0.6-1-0.9-1.4
				c-0.6-0.8-1.5-0.9-2.4-1c-0.5,0-0.9-0.1-1.1-0.6c0-0.1-0.2-0.2-0.3-0.3c-1.7-0.6-3.4-1.4-5.3-1c-0.4,0.1-0.8,0-1.2,0
				c-1.5,0-2.9,0.4-4.3,0.9c-0.5,0.2-1.1,0.2-1.7,0.5c-0.3,0.1-0.5,0.4-0.8,0.7l0.2,0.3c0.3-0.1,0.6-0.3,0.8-0.4
				c0.1-0.1,0.2-0.1,0.4-0.2c-0.1,0.5-0.1,0.9-0.2,1.4c0.1,0,0.1,0.1,0.2,0.1c-0.3,0.2-0.7,0.4-1.1,0.6c0-0.4,0-0.6-0.1-0.8
				c-0.6-0.2-1.3-0.3-1.9-0.6c-0.7-0.3-1.5-0.6-1.9-1.2c-1.2-1.4-3-1.6-4.3-2.6c-0.5-0.4-1-0.9-1.5-1.3c-0.4-0.3-1-0.4-1.5-0.6
				c-0.2-0.1-0.4-0.1-0.6-0.2c0.1-0.2,0.3-0.4,0.4-0.6c0.3-0.4,0.7-0.8,1-1.2c0.1-0.2,0.1-0.4,0.2-0.6c-0.2-0.1-0.4-0.1-0.6-0.1
				c-0.3,0-0.6,0-0.8,0c-0.7,0.1-1.1-0.1-1.2-0.9c-0.1-0.9-0.8-1.1-1.6-1c-1,0.1-1.9,0.2-2.8-0.4c-0.4-0.2-1.6,0.5-1.8,1.1
				c-0.1,0.3-0.2,0.7-0.3,1c-0.1,0.2-0.1,0.5-0.2,0.7c0.7,0.1,1.4,0.1,2.1,0.2c-0.9,1.3-2.3,1.5-2.9,0.7c-1.3,0.6-1.1,2-1.6,3.2
				c0.4,0.2,0.7,0.3,1.1,0.5c0.9,0.3,1,0.5,0.4,1.3c0,0.1-0.1,0.1-0.1,0.2c0.2,0.3,0.7,0.8,0.6,0.9c-0.4,0.5-0.8,1-1.3,1.5
				c-0.5,0.6-1,1.2-1.5,1.9c-0.1,0.1-0.1,0.5,0,0.5c0.9,0.9,0.1,2,0.2,3c0,0.2-0.1,0.4,0,0.7c0.4-0.4,0.8-0.8,1.1-1.2
				c0.7-1,1.5-1.4,2.7-1.2c1.1,0.1,2.2,0.3,3.3,0.4c0.3,0,0.7-0.1,1-0.3c0.6-0.5,1.2-0.3,1.8,0c0.1,0.1,0.2,0.3,0.2,0.5
				c0,0.1-0.2,0.3-0.3,0.3c-0.4,0.1-1,0.2-0.8,0.7c0.2,0.4,1,0.9,1.2,0.7c0.8-0.4,1.5-1,2.2-1.6c0.5-0.4,0.9-0.8,1.3-1.1
				c0.4-0.3,0.7-0.6,1.1-0.8c0.3-0.2,0.6-0.4,0.9-0.4c0.2,0,0.4,0.4,0.5,0.6c-0.2,0.2-0.5,0.4-0.7,0.5s-0.5,0-0.6,0.2
				c-0.2,0.2-0.3,0.5-0.5,0.7c0.3,0.1,0.5,0.2,0.8,0.2c0.2,0,0.5-0.1,0.6,0c0.5,0.3,1,0.8,1.4-0.1c0-0.1,0.3-0.1,0.4,0
				c1.6,0.4,3,0,4.4-0.8c0.2-0.1,0.5,0.1,0.8,0.1c-0.1,0.2-0.2,0.4-0.3,0.6s-0.3,0.3-0.7,0.5c1.1,0.3,2.1,0.6,2,1.8
				c-0.4,0.3-0.8,0.7-1.3,1.2c-0.2-0.2-0.3-0.6-0.5-0.7c-0.3-0.2-0.7-0.3-1.1-0.4c-0.1,0.3-0.2,0.7-0.2,1c0,0.2,0,0.4-0.2,0.6
				c-0.3,0.3-0.6,0.6-1.1,1c-0.6-0.1-1.4-0.8-2.1,0.2c-0.5,0.6-0.6,1.3-0.4,2.2c0.3-0.3,0.5-0.5,0.6-0.6c0.2-0.2,0.5-0.4,0.7-0.4
				c0.1,0,0.3,0.3,0.4,0.4c-0.2,0.2-0.4,0.4-0.6,0.6c-0.2,0.1-0.5,0.2-0.8,0.3c-0.6,0.2-0.8,0.9-0.2,1.2c0.7,0.4,1.4,0.8,2.2,1.2
				c0-0.1,0.1-0.1,0.1-0.2c0,0.2,0,0.5,0.1,1c0.5-0.3,1-0.5,1.3-0.8c0.1-0.1-0.1-0.5-0.2-0.9c0.9-0.6,2-1.2,2.9-2
				c1.5-1,2.8-2.2,4.3-3.2c1.7-1.2,3.5-1.9,5.6-1.7c0.8,0.1,1.7-0.2,2.5-0.3c0.3,0,0.7-0.2,1-0.1c1.6,0.5,3.3,0.9,4.8,1.6
				c0.6,0.3,0.9,1.1,1.3,1.7c0.5,0.7,1.1,1.5,1.5,2.3c0.3,0.6,0.6,1.3,0.7,2c0.1,0.8,0.2,0.9,1.3,1c0.7,0.1,0.7-0.4,0.7-0.9
				c0-0.7,0.1-1.4-0.4-2c-0.1-0.1-0.1-0.4-0.2-0.7c0.1,0,0.1-0.1,0.2-0.1c0.4,0.4,0.8,0.8,1.1,1.2c0.5,0.7,1,1.5,1.5,2.3
				s0.5,1.3-0.2,2c-0.5,0.5-0.9,1.1-1.4,1.6C65.9,44.8,65.8,44.7,65.7,44.7"/>
		</g>
	</g>
</g>
</svg>
