<?xml version="1.0" encoding="utf-8"?>
<!-- Generator: Adobe Illustrator 21.0.0, SVG Export Plug-In . SVG Version: 6.00 Build 0)  -->
<svg version="1.1" id="Layer_1" xmlns="http://www.w3.org/2000/svg" xmlns:xlink="http://www.w3.org/1999/xlink" x="0px" y="0px"
	 viewBox="0 0 400 116" style="enable-background:new 0 0 400 116;" xml:space="preserve">
<style type="text/css">
	.st0{fill:#FFFFFF;}
</style>
<g>
	<polygon id="path-1" class="st0" points="396.9,42.1 396.9,79.9 363.2,79.9 363.2,42.1 	"/>
</g>
<title>CarFind</title>
<desc>Created with Sketch.</desc>
<g id="Page-1_1_">
	<g id="CarFind">
		<g id="Page-1" transform="translate(3.000000, 177.000000)">
			<g id="Group-3" transform="translate(195.000000, 0.000000)">
				<path id="Fill-1" class="st0" d="M27.7-117.2c0.1-1-0.1-2.1-0.4-3.2c-1.1-3.9-4-6.5-8-6.7c-3.2-0.2-6.5,1.5-8.1,5.4
					c-1.3,3.2-1.3,6.5,0.2,9.7c2.5,5.5,9.4,6.8,13.5,2.6C26.9-111.4,27.7-114,27.7-117.2 M27.7-104c-1.2,1.3-2.2,2.4-3.4,3.3
					c-6.2,4.4-14,3.4-19.3-2.5c-7.1-8-6.5-21.6,1.3-28.7c6.2-5.6,15.1-5.1,20.6,1.2c0.2,0.2,0.4,0.5,0.7,0.8
					c0.2-0.3,0.1-0.6,0.1-0.9c0-6.3,0-12.7,0-19c0-0.7,0.2-0.9,0.9-0.9c2.8,0,5.6,0,8.4,0c0.6,0,0.9,0.1,0.9,0.8
					c0,16.8,0,33.7,0,50.5c0,0.6-0.2,0.8-0.8,0.8c-2.9,0-5.8,0-8.7,0c-0.6,0-0.7-0.2-0.7-0.8C27.7-100.9,27.7-102.4,27.7-104"/>
			</g>
			<path id="Fill-4" class="st0" d="M155-117.8c0,5.6,0,11.2,0,16.9c0,0.7-0.2,0.9-0.9,0.9c-2.8,0-5.6-0.1-8.4,0
				c-0.8,0-1.1-0.1-1.1-1c0-8.5,0-17,0-25.4c0-0.8-0.2-1-1-1c-2.3,0.1-4.6,0-6.9,0c-0.6,0-0.8,0.2-0.7,0.7c0,0.1,0,0.3,0,0.4
				c0,8.5-0.1,16.9-0.1,25.4c0,0.7-0.2,0.8-0.8,0.8c-2.9,0-5.8,0-8.8,0c-0.7,0-0.8-0.2-0.8-0.8c0-8.5,0-17.1,0-25.6c0-0.8-0.2-1-1-1
				c-0.9,0.1-1.9,0-2.9,0c-0.5,0-0.7-0.1-0.7-0.6c0-2.4,0-4.7,0-7.1c0-0.5,0.1-0.7,0.6-0.6c1,0,1.9-0.1,2.9,0
				c0.9,0.1,1.1-0.3,1.1-1.1c0-2.9,0.7-5.5,2.4-7.9c2.9-4.2,7-6.3,12.2-6.3c2,0,2,0,2,1.9c0,1.8,0,3.7,0,5.5c0,0.7-0.2,0.9-0.9,1.1
				c-3,0.5-5.2,3.1-5.3,6c0,0.7,0.2,0.8,0.8,0.8c5.6,0,11.3,0,16.9,0c1.2,0,1.2,0,1.2,1.3v16.7L155-117.8L155-117.8z"/>
			<path id="Fill-6" class="st0" d="M37.5-98c-12.4,0-22.8-9.3-24.3-21.7c-1.6-13.1,7.7-25.2,20.7-27c8.5-1.2,15.8,1.5,21.7,7.7
				c0.5,0.5,0.4,0.8,0,1.2c-2,1.9-3.9,3.8-5.8,5.8c-0.4,0.5-0.6,0.4-1,0c-5.7-6.6-15.2-7.1-21.4-1.1c-4.1,4-5.5,8.9-4,14.4
				c1.5,5.6,5.3,9.2,10.9,10.5c5.7,1.3,10.5-0.5,14.4-4.8c0.5-0.5,0.7-0.5,1.1,0c2,2,4,4,6,5.9c0.4,0.4,0.3,0.6,0,0.9
				c-4.1,4.5-9.1,7.2-15.1,8c-0.5,0.1-1,0.1-1.5,0.2C38.6-98,38-98,37.5-98"/>
			<path id="Fill-8" class="st0" d="M307.9-116.1c0.1-1.4-0.3-3-0.9-4.5c-2.7-6-10.7-7.5-15.2-2.7c-2,2.2-2.7,4.9-2.6,7.8
				c0.4,6.7,6.3,10.9,12.4,9C305.5-107.7,307.9-111.3,307.9-116.1 M298.5-97c-7.9-0.3-14.1-3.5-17.6-10.9
				c-5.3-11.2,1.6-24.6,13.7-26.7c6-1.1,11.7-0.1,16.6,3.9c5.3,4.3,7.5,10.1,6.8,16.9c-0.9,8.7-7.8,15.5-16.7,16.6
				C300.3-97.1,299.4-97.1,298.5-97"/>
			<path id="Fill-10" class="st0" d="M74.7-114c-2.4,0-4.4,0.5-5.6,1.3c-1.5,1-2,2.5-1.9,4.2c0.1,1.8,1.1,3,2.8,3.6
				c1.1,0.5,2.3,0.6,3.5,0.5c3.8-0.2,7.9-2.2,7.6-7.5c0-0.6-0.3-0.9-0.8-1.1C78.4-113.6,76.4-113.9,74.7-114 M80.8-101.5
				c-5.2,4.8-11.1,5.6-17.4,3.1c-4.1-1.6-6.1-4.9-6.4-9.2c-0.2-3.3,0.5-6.3,2.8-8.7c2-2.1,4.6-3.1,7.5-3.6c4.3-0.7,8.5-0.5,12.7,0.8
				c0.9,0.3,1,0.3,0.9-0.8c-0.3-3.7-2.6-5.9-6.5-6.2c-3.7-0.3-7.3,0.4-10.8,1.7c-0.6,0.2-0.9,0.2-1.1-0.5c-0.7-2.2-1.4-4.4-2.1-6.5
				c-0.2-0.5-0.1-0.8,0.4-1c3.8-1.6,7.8-2.5,12-2.6c2.7-0.1,5.4,0,8,0.7c5.6,1.5,8.8,5.2,9.8,10.9c0.3,1.5,0.4,3.1,0.4,4.6
				c0,6.7,0,13.4,0,20.1c0,0.7-0.1,1-0.9,1c-2.8-0.1-5.7,0-8.5,0c-0.6,0-0.8-0.2-0.8-0.8C80.8-99.5,80.8-100.4,80.8-101.5"/>
			<g id="Group-14" transform="translate(360.000000, 16.000000)">
				<g id="Clip-13">
				</g>
				<path id="Fill-12" class="st0" d="M17.4-130c-1.3,0-2.8,0.2-4.2,0.8c-1.9,0.9-3,2.5-2.9,4.6c0.1,1.9,1.3,3.3,3.4,3.9
					c1.1,0.3,2.2,0.4,3.3,0.3c3.5-0.3,7.5-2.2,7.1-7.6c0-0.5-0.2-0.7-0.6-0.8C21.5-129.6,19.5-129.9,17.4-130 M23.8-117.6
					c-5.1,4.8-10.9,5.6-17.1,3.2c-4.7-1.8-7.1-6.4-6.4-11.6c0.7-5.5,4.1-8.8,9.9-9.8c4.3-0.7,8.6-0.5,12.8,0.8
					c0.7,0.2,0.9,0.2,0.8-0.6c-0.1-3.7-2.4-6-6.3-6.3c-3.7-0.3-7.3,0.3-10.8,1.6c-0.7,0.2-0.9,0.1-1.1-0.5c-0.7-2.2-1.4-4.4-2.1-6.5
					c-0.1-0.4-0.2-0.6,0.3-0.8c6.6-2.8,13.3-3.6,20.3-1.8c5.7,1.5,9,5.9,9.6,11.9c0.2,2.7,0.1,5.3,0.2,8c0,5.1,0,10.3,0,15.4
					c0,0.8-0.2,0.9-0.9,0.9c-2.7,0-5.5,0-8.2,0c-0.8,0-1-0.2-0.9-1C23.8-115.7,23.8-116.6,23.8-117.6"/>
			</g>
			<path id="Fill-15" class="st0" d="M169.6-130.2c1.8-2.2,3.7-4,6.2-4.9c4.5-1.7,12-1.1,15.3,4.7c1.3,2.2,1.9,4.6,1.9,7
				c0,7.9,0,15.8,0,23.7c0,0.6-0.1,0.7-0.7,0.7c-3,0-6,0-9,0c-0.7,0-0.8-0.2-0.8-0.8c0-6.5,0-13,0-19.5c0-1-0.1-1.9-0.3-2.8
				c-0.8-3-2.8-4.5-5.9-4.5c-3.2,0-5.5,1.6-6.3,4.5c-0.3,1-0.4,2.1-0.4,3.2c0,6.4,0,12.7,0,19.1c0,0.7-0.2,0.9-0.9,0.9
				c-3,0-5.9,0-8.9,0c-0.7,0-0.8-0.2-0.8-0.8c0-11.6,0-23.2,0-34.7c0-0.6,0.1-0.8,0.8-0.8c3,0,6,0,9,0c0.6,0,0.8,0.2,0.8,0.8
				C169.5-133.2,169.6-131.8,169.6-130.2"/>
			<path id="Fill-17" class="st0" d="M341.1-107.3h3.3c4.9,0,9.8,0,14.7,0c0.7,0,0.8,0.2,0.8,0.8c0,2.2,0,4.5,0,6.7
				c0,0.6-0.1,0.8-0.8,0.8c-9.5,0-18.9,0-28.4,0c-0.5,0-0.7-0.1-0.7-0.7c0-2.6,0-5.3,0-7.9c0-0.5,0.3-0.8,0.6-1.1
				c5.3-5.8,10.7-11.6,16-17.4c0.1-0.1,0.2-0.3,0.5-0.5H346c-5.4,0-10.8,0-16.2,0c-0.7,0-0.9-0.1-0.9-0.9c0.1-2.3,0-4.5,0-6.8
				c0-0.6,0.2-0.7,0.7-0.7c9.8,0,19.6,0,29.5,0c0.6,0,0.8,0.2,0.8,0.8c0,1.9,0,3.9,0,5.8c0,0.4-0.1,0.8-0.4,1.1
				c-5.7,6.2-11.4,12.4-17.2,18.6C342-108.3,341.7-107.9,341.1-107.3"/>
			<path id="Fill-19" class="st0" d="M266.9-97c-10.3,0.1-18.1-6.3-19.7-15.7c-1.8-11.1,5.6-20.9,16.4-22.1
				c5.2-0.6,10.2,0.2,14.5,3.4c0.8,0.6,1.6,1.3,2.3,2c0.3,0.3,0.5,0.6,0,1c-1.9,2-3.7,3.9-5.5,5.9c-0.4,0.5-0.7,0.2-1-0.1
				c-1.4-1.5-3-2.6-5-3.2c-5.3-1.4-10.3,1.6-11.4,7c-0.7,3.4-0.3,6.7,2,9.5c2.9,3.5,8,4.2,12.2,1.8c1-0.6,1.9-1.3,2.8-2.1
				c0.3-0.3,0.6-0.3,0.9,0c1.7,1.8,3.5,3.5,5.2,5.3c0.4,0.4,0.4,0.6,0,1C276.8-99,272-96.9,266.9-97"/>
			<path id="Fill-21" class="st0" d="M106.4-129.3c2.1-4.2,5.7-5.4,9.9-5.5c0.8,0,1.9-0.4,2.4,0.2c0.5,0.5,0.1,1.5,0.2,2.3
				c0,1.8,0,3.5,0,5.3c0,0.7-0.2,0.9-0.8,0.9c-2.4-0.1-4.7,0.1-6.9,1.1c-3.5,1.6-4.8,4.6-4.8,8.3c0,5.9,0,11.8,0,17.7
				c0,0.8-0.1,1-1,1c-2.9-0.1-5.8,0-8.6,0c-0.6,0-0.9-0.1-0.9-0.8c0-11.8,0-23.6,0-35.4c0-0.6,0.1-0.8,0.7-0.7c3,0,6,0,9,0
				c0.6,0,0.7,0.2,0.7,0.8C106.4-132.6,106.4-130.9,106.4-129.3"/>
			<g id="Group-25" transform="translate(0.000000, 43.000000)">
				<path id="Fill-23" class="st0" d="M15-150.9c1.8,2.8,4,5.1,6.6,7c0.5,0.3,0.3,0.5,0,0.8c-2.6,2.8-5.2,5.6-7.9,8.3
					c-2.1,2.2-4.1,4.3-6.2,6.6c-0.5,0.5-0.7,0.5-1.1,0c-2-2-4-4.1-6-6.1c-0.5-0.5-0.4-0.8,0-1.2c4.1-4.3,8.2-8.7,12.3-13
					C13.4-149.3,14.1-150.1,15-150.9"/>
			</g>
			<path id="Fill-26" class="st0" d="M26.4-128.1c0.8-1.4,1.9-2.6,3.1-3.6c0.4-0.4,0.8-0.4,1.3-0.1c3.9,2.1,7.7,4.2,11.6,6.3
				c0.5,0.3,1,0.4,1.5,0.4c1.7,0,3.4,0.1,5.1,0c0.6,0,0.8,0.2,0.9,0.8c0.2,1.5,0.2,2.9,0,4.4c-0.1,0.7-0.4,0.8-1,0.8
				c-1.6,0-3.2,0-4.8,0c-0.6,0-1.2,0.1-1.7,0.4c-3.8,2.2-7.6,4.3-11.4,6.5c-0.5,0.3-0.9,0.3-1.4-0.1c-1.5-1.2-2.8-2.6-3.6-4.3
				c3.5-1.9,6.9-3.8,10.5-5.8C33-124.4,29.7-126.2,26.4-128.1"/>
			<path id="Fill-28" class="st0" d="M242.5-99c-1.6,0-3.1,0-4.7,0c-0.6,0-0.8-0.2-0.8-0.8c0-2.5,0-5,0-7.5c0-0.6,0.2-0.7,0.8-0.7
				c3.2,0,6.4,0,9.5,0c0.5,0,0.7,0.2,0.7,0.7c0,2.5,0,5.1,0,7.6c0,0.6-0.2,0.7-0.7,0.7C245.7-99,244.1-99,242.5-99"/>
			<path id="Fill-30" class="st0" d="M322.4-99c-1.6,0-3.2,0-4.7,0c-0.5,0-0.7-0.1-0.7-0.7c0-2.6,0-5.2,0-7.8c0-0.4,0.1-0.6,0.6-0.6
				c3.3,0,6.6,0,9.8,0c0.5,0,0.6,0.2,0.6,0.6c0,2.6,0,5.2,0,7.8c0,0.5-0.2,0.6-0.6,0.6C325.7-99,324.1-99,322.4-99"/>
			<path id="Fill-32" class="st0" d="M150.5-151c1.3,0,2.6,0,3.9,0c0.4,0,0.6,0.1,0.6,0.6c0,2.6,0,5.2,0,7.8c0,0.4-0.1,0.6-0.5,0.6
				c-2.6,0-5.3,0-7.9,0c-0.5,0-0.6-0.2-0.6-0.7c0-2.5,0-5.1,0-7.6c0-0.6,0.1-0.7,0.7-0.7C147.9-151,149.2-151,150.5-151"/>
			<path id="Fill-34" class="st0" d="M32-111.2c3.8-2.3,7.5-4.4,11.1-6.6c0.3-0.2,0.6-0.2,0.9-0.2c1.3,0,2.6,0,3.9,0
				c1.1,0,1.2,0.1,0.7,1.1c-1.8,3.5-4.6,5.7-8.5,6.6C37.4-109.7,34.7-110,32-111.2"/>
			<path id="Fill-36" class="st0" d="M32-133.8c6.7-3.3,14.1,0.7,16,6.8c-1.7,0-3.4,0-5,0c-0.2,0-0.4-0.1-0.6-0.2
				C39-129.4,35.5-131.6,32-133.8"/>
			<path id="Fill-38" class="st0" d="M25.9-126c2.3,1.3,4.6,2.5,7.1,3.9c-2.5,1.4-5,2.8-7.5,4.1C24.8-120.7,24.8-123.4,25.9-126"/>
		</g>
	</g>
</g>
</svg>
