<?xml version="1.0" encoding="utf-8"?>
<!-- Generator: Adobe Illustrator 21.0.0, SVG Export Plug-In . SVG Version: 6.00 Build 0)  -->
<svg version="1.1" id="Layer_1" xmlns="http://www.w3.org/2000/svg" xmlns:xlink="http://www.w3.org/1999/xlink" x="0px" y="0px"
	 viewBox="0 0 410 118" style="enable-background:new 0 0 410 118;" xml:space="preserve">
<style type="text/css">
	.st0{fill:#495057;}
</style>
<title>dunquip</title>
<desc>Created with Sketch.</desc>
<g id="Page-1">
	<g id="dunquip">
		<path id="Fill-2" class="st0" d="M119.3,40.4v49.2H84.6c-7.9,0-14.2-6.4-14.2-14.3V40.4h14.2v34.9H105V40.4H119.3z"/>
		<path id="Fill-4" class="st0" d="M314.8,40.6v49.2h-34.7c-7.9,0-14.2-6.4-14.2-14.3V40.6h14.2v34.9h20.4V40.6H314.8z"/>
		<path id="Fill-6" class="st0" d="M63.6,51.1v0.8C63.6,51.7,63.6,51.4,63.6,51.1L63.6,51.1z"/>
		<path id="Fill-8" class="st0" d="M63.6,79.1c0-0.3,0-0.5,0-0.8L63.6,79.1L63.6,79.1z"/>
		<path id="Fill-10" class="st0" d="M63.6,51.1c0,0.2,0,0.4,0,0.7v26.5c0,0.2,0,0.3,0,0.5c-0.2,6.1-5.2,10.9-11.3,10.9H15V40.4h37.3
			C58.3,40.4,63.2,45.2,63.6,51.1z M29.2,78.3h20.1V51.8H29.2V78.3z"/>
		<polygon id="Fill-12" class="st0" points="177,40.4 177,89.7 162.9,89.7 142.9,57.8 141.6,55.7 141.6,89.7 127.5,89.7 127.5,40.4 
			146.5,40.4 162.9,65.2 162.9,40.4 		"/>
		<polygon id="Fill-13" class="st0" points="322.8,89.8 336.5,89.8 336.5,40.6 322.8,40.6 		"/>
		<path id="Fill-14" class="st0" d="M392,64.2L392,64.2c0,5-4,9-8.9,9h-24.6v16.6h-14.3V40.6h14.3v0.1h24.3c4.9,0,9,3.9,9.2,8.8
			c0,0.1,0,0.1,0,0.2V64.2z M358.5,64.2h19.5V51.8h-19.5V64.2z"/>
		<path id="Fill-15" class="st0" d="M392,49.4v0.5C392,49.7,392,49.6,392,49.4L392,49.4z"/>
		<path id="Fill-16" class="st0" d="M392,49.9v1.9h0v-2.2C392,49.7,392,49.8,392,49.9"/>
		<path id="Fill-17" class="st0" d="M229.1,10c14.1,18.2,11.3,42.8-4.7,72.5c4,9,9.5,13.8,16.2,15.3C269.4,73,270.4,11.4,229.1,10"
			/>
		<path id="Fill-18" class="st0" d="M228,10.6c3.9,3.9,5.6,7.7,5.7,11.4c-21.2-1-33.6,10.3-45.9,21.9
			C195.9,28.6,204.5,13.5,228,10.6"/>
		<path id="Fill-19" class="st0" d="M201.9,35c-5.5,2.9-10.6,7.8-15.6,14.5c-3.9,30.9,7.1,42,20.7,49.6
			C198.1,82.5,190.8,64.9,201.9,35"/>
		<path id="Fill-20" class="st0" d="M215,68.5c-6.9,3.3-10.7,8.1-11.4,14.5c-0.2,2,0.1,4.1,1,5.9c9.5,19.9,26.9,19.8,47,13.1
			c-15.9,0.4-29-6.7-34.8-32.7C216.6,68.5,215.7,68.1,215,68.5"/>
	</g>
</g>
</svg>
