<?xml version="1.0" encoding="utf-8"?>
<!-- Generator: Adobe Illustrator 21.0.0, SVG Export Plug-In . SVG Version: 6.00 Build 0)  -->
<svg version="1.1" id="Layer_1" xmlns="http://www.w3.org/2000/svg" xmlns:xlink="http://www.w3.org/1999/xlink" x="0px" y="0px"
	 viewBox="0 0 400 400" style="enable-background:new 0 0 400 400;" xml:space="preserve">
<style type="text/css">
	.st0{fill:#FFFFFF;}
</style>
<title>Evernote</title>
<desc>Created with Sketch.</desc>
<g id="Page-1">
	<g id="Evernote">
		<g id="evernote-icon" transform="translate(81.000000, 59.000000)">
			<path id="Shape" class="st0" d="M181.6,117c-11.4-0.4-14.6,9.4-15.6,17.4c3.6-0.6,7.3-0.8,10.9-0.7c7.2,0.3,13.8,1.8,19.1,4.2
				C196,129.7,194.2,117.5,181.6,117L181.6,117z"/>
			<path id="Shape_1_" class="st0" d="M23.2,54.5h26.5c1.5,0,2.7-1.2,2.7-2.8c0,0-0.3-22.9-0.3-29.3v-0.1c0-5.2,1.1-9.8,3-13.6L56,7
				c-0.1,0-0.2,0.1-0.3,0.2L4.2,58.7C4.1,58.8,4,58.9,4,59c1.1-0.5,2.5-1.3,2.7-1.4C11.2,55.6,16.6,54.5,23.2,54.5L23.2,54.5z"/>
			<path id="Shape_2_" class="st0" d="M230.5,49.1c-2.1-11.3-8.8-16.8-14.9-19c-6.6-2.4-19.8-4.8-36.5-6.8
				c-13.4-1.6-29.2-1.4-38.8-1.2c-1.1-7.8-6.6-14.9-12.8-17.4c-16.4-6.6-41.7-5-48.2-3.2C74.1,3,68.4,6,65.2,10.5
				c-2.1,3-3.5,6.9-3.5,12.4c0,3.1,0.1,10.3,0.2,16.7c0.1,6.5,0.2,12.2,0.2,12.3c0,5.8-4.7,10.4-10.5,10.4H24.9
				c-5.7,0-10,0.9-13.3,2.4s-5.7,3.5-7.4,5.9C0.6,75.4,0,81.3,0,87.2c0,0,0.1,4.9,1.2,14.3c1,7.3,9,58.4,16.5,74
				c2.9,6,4.9,8.6,10.7,11.2c12.8,5.5,42.2,11.6,55.9,13.3s22.3,5.4,27.5-5.3c0,0,1-2.7,2.4-6.5c4.5-13.4,5.1-25.4,5.1-34
				c0-0.9,1.3-0.9,1.3,0c0,6.1-1.2,27.7,15.2,33.4c6.5,2.3,19.9,4.3,33.5,5.9c12.3,1.4,21.2,6.2,21.2,37.7c0,19.1-4,21.8-25.1,21.8
				c-17.1,0-23.6,0.4-23.6-13.1c0-10.9,10.9-9.8,18.9-9.8c3.6,0,1-2.7,1-9.4s4.2-10.6,0.2-10.7c-27.8-0.8-44.2,0-44.2,34.6
				c0,31.5,12.1,37.3,51.6,37.3c31,0,41.9-1,54.7-40.5c2.5-7.8,8.7-31.6,12.4-71.6C238.7,144.6,234.1,68.3,230.5,49.1L230.5,49.1z
				 M176.5,133.4c-3.8-0.1-7.5,0.1-10.9,0.7c1-7.8,4.2-17.3,15.6-16.9c12.6,0.4,14.4,12.3,14.4,20.4
				C190.3,135.1,183.7,133.6,176.5,133.4L176.5,133.4z"/>
		</g>
	</g>
</g>
</svg>
