<?xml version="1.0" encoding="utf-8"?>
<!-- Generator: Adobe Illustrator 21.0.0, SVG Export Plug-In . SVG Version: 6.00 Build 0)  -->
<svg version="1.1" id="Layer_1" xmlns="http://www.w3.org/2000/svg" xmlns:xlink="http://www.w3.org/1999/xlink" x="0px" y="0px"
	 viewBox="0 0 400 285" style="enable-background:new 0 0 400 285;" xml:space="preserve">
<style type="text/css">
	.st0{fill:#FFFFFF;}
</style>
<title>Gumtree</title>
<desc>Created with Sketch.</desc>
<g id="Page-1_1_">
	<g id="Gumtree">
		<g id="Page-1" transform="translate(11.000000, 75.000000)">
			<path id="Fill-1" class="st0" d="M181.2,78.3c0.2-5.7-0.5-11.2,1.2-16.5c3.8-12.4,14.4-20.4,27.4-20.6
				c11.5-0.2,20.8-7.3,23.8-18.3c2.9-10.6-1.6-21.8-11.3-27.6c-5.2-3.1-7.5-7.7-7.7-13.7c-0.3-10.4-6.9-19.4-16.7-22.7
				c-9.7-3.4-20.4-0.3-27.1,7.8c-3.6,4.4-5.5,9.5-5.6,15.2c-0.1,6-2.7,10.4-7.8,13.6c-8.8,5.5-13,13.6-11.8,23.9
				c1.2,10.5,7.4,17.5,17.4,20.9c1.8,0.6,3.7,1.1,5.5,1.9c1.7,0.8,2.5,2,2.3,3.9c-0.3,3.4-1.1,6.6-2.5,9.6c-0.8,1.9-2.1,2.6-4.2,2.4
				c-7.9-0.8-14.8-4.1-20.8-9.1c-21-17.5-20.3-49.5,1.5-66.1c2.1-1.6,3.1-3.4,3.4-6c2.5-20.5,20.1-36.5,40.4-36.9
				c21.4-0.4,39.6,14.5,42.8,35.1c0.6,3.8,2.1,6.3,5,8.8c13.3,11.3,18.3,25.9,14.1,42.8c-4.2,16.6-15.4,26.9-32,30.9
				c-2.6,0.6-5.4,0.8-8.1,0.9c-7.2,0.1-11.7,4.8-11.8,11.9c0,5.7,0,11.3,0,17c0,6.1-0.9,6.9-6.9,7.4c-2.2,0.2-4.5,0-6.7-0.4
				c-1.9-0.3-2.9-1.4-3.3-3.3C180.9,86.8,181.5,82.4,181.2,78.3"/>
			<path id="Fill-3" class="st0" d="M46,153.3c4.7,0,9.4,0,14.1,0c0.8,0,1.7-0.2,1.8,1.2c0.9,11.9-2.1,22.4-12.2,29.6
				c-9.7,7-20.5,7.5-31.2,2.9C8,182.4,1.6,174.1,0.2,162.5c-2-17.1,8.2-31.7,24.8-34.8c11.1-2.1,21.4,0.3,29.7,8.6
				c4.1,4.1,4.1,4.2-0.6,7.4c-1.5,1-3,1.9-4.4,3c-1.1,0.8-1.6,0.7-2.5-0.5c-4.7-6.5-11.3-8.4-18.8-7.3c-7.5,1.1-12.5,5.6-15,12.7
				c-3,8.5-0.2,17.5,6.7,22.8c6.5,4.9,16.2,5.2,22.8,0.6c3.1-2.2,5.1-5.1,6.4-8.6c0.6-1.6,0.1-1.9-1.5-1.9c-5.3,0.1-10.7,0-16,0.1
				c-1.5,0-2-0.4-1.9-1.9c0.1-2.6,0.1-5.1,0-7.7c0-1.3,0.3-1.7,1.7-1.7C36.4,153.3,41.2,153.3,46,153.3"/>
			<path id="Fill-5" class="st0" d="M134.9,147.6c6.9-5.2,14.1-5.9,21.7-2.7c2,0.8,3.7,2.2,4.9,4c0.9,1.3,1.4,1,2.3,0.1
				c5-5.3,11.3-6.7,18.1-5.6c8.3,1.3,13.8,8.3,14,17.1c0.1,9,0,18,0.1,26.9c0,1.3-0.4,1.5-1.6,1.5c-2.8-0.1-5.7-0.1-8.5,0
				c-1.3,0-1.7-0.3-1.6-1.6c0.1-8,0.1-16,0-23.9c0-5.3-3.3-9.1-7.9-9.4c-6-0.4-10.3,3.8-10.8,10.7c-0.5,7.3-0.2,14.7-0.2,22
				c0,2-0.6,2.5-2.5,2.4c-2.5-0.2-5.1-0.1-7.7,0c-1.5,0.1-1.7-0.5-1.7-1.8c0.1-7.8,0-15.5,0-23.3c0-5.4-2.9-9.3-7.4-9.9
				c-5.1-0.7-9.1,2.1-10.6,7.5c-0.5,1.8-0.7,3.6-0.7,5.5c0,6.6-0.1,13.3,0.1,19.9c0,1.9-0.5,2.2-2.2,2.1c-2.7-0.1-5.4-0.1-8.1,0
				c-1.2,0-1.6-0.2-1.6-1.5c0-13.8,0-27.7,0-41.5c0-1.4,0.5-1.6,1.7-1.6c2.7,0.1,5.4,0.1,8.1,0c1.6-0.1,2.4,0.4,2.1,2.1
				C134.8,146.8,134.9,147.1,134.9,147.6"/>
			<path id="Fill-7" class="st0" d="M356.3,161.4c3,0,6-0.1,9,0c1.5,0,1.6-0.4,1.1-1.7c-1.6-4.1-5.2-6.4-10.2-6.4
				c-4.3,0.1-8.5,2.9-9.9,6.7c-0.5,1.4,0,1.4,1.1,1.4C350.4,161.4,353.4,161.4,356.3,161.4L356.3,161.4z M362.4,169.7
				c-5,0-10.1,0-15.1,0c-1.4,0-1.7,0.3-1.2,1.7c1.4,4.2,3.9,7.4,8.3,8.2c4.6,0.9,9-0.1,12-4.2c0.9-1.2,1.7-1.4,3-1
				c2.2,0.6,4.5,1,6.8,1.4c1.3,0.2,1.8,0.5,1,2c-4.4,8.6-11.6,12.2-20.8,12.1c-13.7-0.1-23.4-11.6-22.3-25.5
				c0.9-11,8.3-18.3,15.7-20.5c14.7-4.4,28.7,5.9,29.2,21.5c0.1,4.2,0.1,4.2-3.9,4.2h-12.7V169.7z"/>
			<path id="Fill-9" class="st0" d="M294.1,161.4c6.7,0,13.1,0,19.6,0c1.4,0,1.3-0.5,0.9-1.5c-1.6-4.3-5.7-6.8-10.9-6.6
				C299.1,153.6,295.1,156.9,294.1,161.4L294.1,161.4z M310.3,169.7c-4.9,0-9.7,0-14.6,0c-2.2,0-2.3,0.1-1.5,2.3
				c1.4,4,4.1,6.9,8.3,7.6c4.6,0.8,8.9-0.3,11.9-4.2c0.9-1.2,1.7-1.3,3-1c2.3,0.6,4.7,1.1,7,1.5c1.2,0.2,1.5,0.6,0.9,1.8
				c-4.4,8.7-11.7,12.3-21,12.3c-12.8-0.1-22.3-9.8-22.3-22.8c0-11.3,5.5-19.7,15-22.9c15-5.2,30,5.6,30,21.5c0,3.9,0,3.9-3.8,3.9
				L310.3,169.7L310.3,169.7z"/>
			<path id="Fill-11" class="st0" d="M102.4,184.8c-2.9,2.5-5.7,4.1-9,4.7c-13,2.5-22.1-5-22.4-18.6c-0.1-8.4,0-16.8-0.1-25.3
				c0-1.4,0.4-1.7,1.7-1.6c2.8,0.1,5.6,0.1,8.4,0c1.5-0.1,1.7,0.5,1.7,1.8c-0.1,7.3,0,14.6,0,21.8c0,1.3,0,2.6,0.3,3.8
				c1,4.6,3.6,7.2,7.9,7.6c4.2,0.5,8.1-1.8,9.8-5.8c1.3-3,1.6-6.2,1.7-9.4c0-5.9,0.1-11.8,0-17.8c0-1.9,0.5-2.3,2.2-2.2
				c2.6,0.1,5.2,0.1,7.8,0c1.2,0,1.7,0.2,1.7,1.6c-0.1,13.8,0,27.7,0,41.5c0,1.3-0.4,1.6-1.6,1.5c-2.7-0.1-5.3-0.2-8,0
				c-1.8,0.1-2.4-0.5-2.1-2.2C102.4,186.1,102.4,185.7,102.4,184.8"/>
			<path id="Fill-13" class="st0" d="M211.4,164.2c0-3.2,0-6.5,0-9.7c0-1.1-0.3-1.5-1.4-1.5c-2.1,0.1-4.2,0-6.3,0
				c-1.2,0.1-1.8-0.3-1.7-1.6c0.1-2.2,0.1-4.4,0-6.6c0-1.1,0.3-1.5,1.4-1.4c2,0.1,4.1-0.1,6.1,0.1c1.4,0.1,2-0.3,1.9-1.8
				c-0.1-3.3,0-6.6-0.1-10c0-1.3,0.3-1.7,1.6-1.7c2.8,0.1,5.6,0.1,8.4,0c1.4-0.1,1.6,0.5,1.6,1.7c-0.1,3.2,0.1,6.5-0.1,9.7
				c-0.1,1.5,0.3,2.1,2,2c3.6-0.1,7.2,0,10.8-0.1c1.2,0,1.8,0.2,1.7,1.6c-0.1,2.1-0.1,4.2,0,6.4c0.1,1.3-0.3,1.7-1.7,1.7
				c-3.7-0.1-7.4,0-11.2,0c-1,0-1.6,0.1-1.6,1.4c0.1,5.7-0.1,11.4,0.2,17.2c0.3,5.1,3,7.1,8.1,6.3c1.5-0.2,3-0.7,4.4-1.5
				c0.8-0.5,1.2-0.3,1.5,0.6c0.9,2.6,1.7,5.2,2.6,7.8c0.2,0.7,0.2,1-0.5,1.3c-6.9,3.4-13.8,4.2-20.8,0.4c-5-2.7-6.8-7.5-7.1-12.9
				C211.4,170.5,211.5,167.3,211.4,164.2L211.4,164.2z"/>
			<path id="Fill-15" class="st0" d="M260.9,151.6c4.2-5.5,9-8.3,15.3-8.5c0.1,0,0.3-0.1,0.4-0.1c3.2-0.1,3.5,0.2,3.3,3.3
				c-0.2,2.4-0.4,4.8-0.4,7.2c0,1.2-0.5,1.4-1.6,1.4c-2.2-0.1-4.4,0-6.6,0.6c-5.8,1.7-9.4,6.3-10.2,13.3c-0.7,5.8-0.3,11.6-0.3,17.4
				c0,1.5-0.4,1.9-1.9,1.8c-2.9-0.1-5.7-0.1-8.6,0c-1.2,0-1.4-0.4-1.4-1.4c0-13.8,0-27.6,0-41.4c0-1.1,0.3-1.5,1.4-1.5
				c3,0.1,6,0.1,9,0c1.1,0,1.5,0.3,1.5,1.4C260.8,147.1,260.9,149,260.9,151.6"/>
		</g>
	</g>
</g>
</svg>
