<?xml version="1.0" encoding="utf-8"?>
<!-- Generator: Adobe Illustrator 21.0.0, SVG Export Plug-In . SVG Version: 6.00 Build 0)  -->
<svg version="1.1" id="Layer_1" xmlns="http://www.w3.org/2000/svg" xmlns:xlink="http://www.w3.org/1999/xlink" x="0px" y="0px"
	 viewBox="0 0 400 209" style="enable-background:new 0 0 400 209;" xml:space="preserve">
<style type="text/css">
	.st0{fill:#FFFFFF;}
</style>
<title>Hyundai</title>
<desc>Created with Sketch.</desc>
<g id="Page-1">
	<g id="Hyundai">
		<g id="hyundai-motor-company-2" transform="translate(21.000000, 113.000000)">
			<path id="Shape" class="st0" d="M0,31.9h13.9v15.2h24.8V31.9h13.7v42.8H38.7v-18h-25v17.8H0V31.9z M54,31.9h13.5l14.2,16.5
				l14.1-16.5h13.4L88.6,58.1v16.6H74.8V56.9L54,31.9L54,31.9z M111,31.9h13.7V65h22.1c3.5,0,5.7-3.5,5.7-7.1v-26h13.7V66
				c0,5.4-6.1,8.5-9.5,8.5H111V31.9z M169.1,31.9h45.7c5.4,0,9.7,3.3,9.7,10v32.7l-13.7,0.1v-26c0-3.6-1.2-5.8-5.9-5.8h-20.7v31.9
				h-15.1V31.9L169.1,31.9z M228.7,31.9h39.9c8,0,14.2,6.4,14.2,11.3v19.7c-0.1,3.5-5,11.8-11,11.8h-43.1L228.7,31.9L228.7,31.9
				L228.7,31.9z M242.7,65.2h21.1c3,0,5.4-2.3,5.4-5V47.7c0-3-2.5-4.8-5.7-4.8h-20.8L242.7,65.2L242.7,65.2z M299.7,31.7h42.8v43
				h-15.3V63.6h-26.3v11.1h-15.5V46.8C285.1,37.4,293.5,31.7,299.7,31.7L299.7,31.7z M300.7,47v6.9h26.4V43h-22.2
				C302.3,43,300.7,44.6,300.7,47z M345.3,31.8H359V76h-13.7V31.8z M180.3-92c-56.9,0-103,22.7-103,50.8c0,28,46.1,50.8,103.1,50.8
				c56.9,0,103.1-22.7,103.1-50.8C283.4-69.3,237.3-92,180.3-92z M170.6-80.7c11.8-4.2,46.7,0,60.3,6.5c4.3,4.2-19.4,17.5-47.6,23.3
				C142.9-42.8,162-73.8,170.6-80.7z M101.2-20.5c-8.9-6.3-26.3-24.4,2.5-43.2c15.2-8.9,23.7-10.8,34.2-13c5.1-1.1,8.7,0.2,4.2,4
				c-9.6,9.9-29.5,42.8-31.3,50C109.4-17.8,106.5-16.6,101.2-20.5L101.2-20.5z M184.1,0.4c-17,1.8-54.9-3.8-55.6-8.7
				c0.7-11.8,60.1-31.3,70.8-20.4C203.9-20.2,195.2-0.1,184.1,0.4L184.1,0.4z M270.7-33.7c-4.3,9.9-19,21.1-49.8,28.7
				c-4.7,1.1-6.3-1.8-3.3-4.5c5.1-3.1,29.5-43.9,32.6-52c1.8-4.2,5.2-2.5,7.4-0.9C267.4-56.1,274.8-45.8,270.7-33.7L270.7-33.7z"/>
		</g>
	</g>
</g>
</svg>
