<?xml version="1.0" encoding="utf-8"?>
<!-- Generator: Adobe Illustrator 21.0.0, SVG Export Plug-In . SVG Version: 6.00 Build 0)  -->
<svg version="1.1" id="Layer_1" xmlns="http://www.w3.org/2000/svg" xmlns:xlink="http://www.w3.org/1999/xlink" x="0px" y="0px"
	 viewBox="0 0 400 176" style="enable-background:new 0 0 400 176;" xml:space="preserve">
<style type="text/css">
	.st0{fill:#FFFFFF;}
</style>
<g>
	<polygon id="path-3" class="st0" points="396.8,39.1 396.8,107.8 334.1,107.8 334.1,39.1 	"/>
</g>
<g>
	<polygon id="path-1" class="st0" points="173,157.4 153.2,157.4 153.2,127 173,127 	"/>
</g>
<title>Imperial Auto Auction</title>
<desc>Created with Sketch.</desc>
<g id="Page-1_1_">
	<g id="Imperial-Auto-Auction">
		<g id="Page-1" transform="translate(5.000000, 129.000000)">
			<path id="Fill-1" class="st0" d="M72-72.7V-51c0,8.7,0,17.4,0,26.1c0,1.5-0.3,2-1.9,1.9c-2.1-0.1-4.1-0.1-6.2,0
				c-1.4,0.1-1.9-0.3-1.9-1.8c0.1-4.7,0-9.4,0-14.1v-9.3c-3.2,3-5.9,5.6-8.6,8.2c-1.4,1.3-2.7,2.6-4,4.1c-0.9,1-1.4,0.8-2.2,0
				c-3.6-3.7-7.3-7.4-10.9-11c-0.4-0.4-0.7-0.7-1.1-1c-0.6,0.6-0.3,1.3-0.3,1.9c0,7.1-0.1,14.2,0,21.3c0,1.4-0.3,1.9-1.8,1.8
				c-2.2-0.1-4.4-0.1-6.6,0c-0.9,0-1.5-0.1-1.5-1.2c0.1-16.1,0.1-32.1,0.1-48.2c0,0,0.1-0.1,0.3-0.3c4.4,4.6,8.8,9.2,13.3,13.8
				c2.8,2.9,5.6,5.8,8.2,8.8c1.3,1.4,1.9,1.2,3.1-0.1c6.8-7.3,13.8-14.5,20.7-21.7c0.3-0.3,0.5-0.7,0.7-1.1
				C71.6-72.9,71.8-72.8,72-72.7"/>
			<path id="Fill-3" class="st0" d="M181.8-55.6c0.3,1.8-1,4.6,0.5,5.8c1.5,1.1,4.3,0.4,6.5,0.1c0.1,0,0.1,0,0.2,0
				c2.7-0.8,4.7-2.2,5.2-5c0.4-2.5-0.4-4.6-2.6-6c-1.6-1-3.4-1.3-5.3-1.4c-4.5-0.2-4.5-0.2-4.5,4.3L181.8-55.6L181.8-55.6z M207-22
				c-3.2,0-6.1-0.1-8.9,0c-1.2,0-1.5-0.6-1.9-1.4c-2.4-4.9-5-9.8-7.2-14.8c-0.9-2-2-2.6-4.2-2.5c-3,0.2-3,0-3,3c0,4.7,0,9.4,0,14.1
				c0,1.2-0.3,1.7-1.6,1.6c-2.3-0.1-4.6-0.1-6.9,0c-1.1,0-1.4-0.3-1.4-1.3c0-15.4,0-30.9,0-46.3c0-0.8,0-1.4,1.1-1.3
				c5.9,0.2,11.9-0.4,17.8,0.4c6.9,1,11.7,4.7,13.2,10.3c1.7,6.4-0.5,12.4-6.3,16.3c-1.5,1-1.2,1.7-0.6,2.9
				C200.5-34.9,203.7-28.6,207-22L207-22z"/>
			<path id="Fill-5" class="st0" d="M161-71c-1.4,2.8-2.7,5.4-3.9,8c-0.5,1-1.3,0.8-2,0.8c-5,0-10,0.1-14.9-0.1
				c-2.1-0.1-2.6,0.6-2.5,2.5c0.2,2.7,0.2,5.5,0,8.2c-0.1,1.7,0.5,2,2.1,2c3.6-0.1,7.2,0.1,10.8-0.1c1.8-0.1,2.2,0.6,2.1,2.2
				c-0.1,1.7-0.1,3.5,0,5.2c0.1,1.3-0.4,1.5-1.6,1.5c-3.9-0.1-7.8,0-11.6-0.1c-1.3,0-1.8,0.3-1.7,1.7c0.1,2.2,0.1,4.5,0,6.7
				c-0.1,1.4,0.5,1.6,1.7,1.6c6.3-0.1,12.6,0,18.9-0.1c1.5,0,1.9,0.4,1.8,1.8c-0.1,1.7-0.1,3.3,0,5c0.1,1.5-0.3,2-1.9,2
				c-9.4-0.1-18.7-0.1-28.1,0c-1.7,0-2.1-0.4-2.1-2c0.1-13.9,0-27.8,0-41.8c0-1.2,0.1-2.3,0-3.5s0.2-1.8,1.6-1.8
				C140-70.9,150.3-71,161-71"/>
			<path id="Fill-7" class="st0" d="M268.2-41.7c-2.1-4.2-4.1-8.2-6.2-12.5c-2.1,4.3-4.1,8.4-6.2,12.5H268.2z M236-23
				c8.7-16.8,17.3-33.3,26-50c8.7,16.7,17.2,33.2,26,50c-3.4,0-6.5,0-9.6,0c-1.1,0-1.3-0.7-1.7-1.4c-1.3-2.6-2.6-5.1-3.8-7.8
				c-0.5-1.2-1.2-1.7-2.6-1.7c-5.5,0.1-11,0.1-16.6,0c-1.5,0-2.2,0.5-2.7,1.8c-1.2,2.6-2.5,5-3.7,7.6c-0.5,1-1,1.6-2.3,1.5
				C242.2-23.1,239.3-23,236-23L236-23z"/>
			<path id="Fill-9" class="st0" d="M95-55.8c0,1.7,0,3.3,0,5c0,0.9,0.2,1.4,1.2,1.3c1.9-0.1,3.9,0.1,5.8-0.2c3.4-0.7,5.5-3,5.5-6.1
				s-1.9-5.3-5.3-6c-0.9-0.2-1.9-0.3-2.9-0.3c-4.3-0.1-4.3-0.1-4.3,4C95-57.4,95-56.6,95-55.8 M85-46.6c0-7.4,0-14.8,0-22.2
				c0-1.6,0.2-2.3,2.1-2.2c5.7,0.3,11.5-0.3,17.2,0.5c10.3,1.4,15.8,9.5,12.9,19.2c-1.8,6.1-6.8,8.8-12.7,10.2
				c-2.5,0.6-5,0.6-7.6,0.5c-1.5-0.1-2,0.4-2,1.9c0.1,5,0,9.9,0.1,14.9c0,1.6-0.5,2-2,1.9c-2-0.1-4-0.1-6,0c-1.6,0.1-2-0.3-2-1.9
				C85.1-31.5,85-39,85-46.6"/>
			<path id="Fill-11" class="st0" d="M331-22.1c-0.7,0-1.1,0.1-1.5,0.1c-10.5,0-21.1,0-31.6,0c-1.4,0-1.9-0.3-1.9-1.8
				c0.1-15.1,0.1-30.3,0-45.4c0-1.6,0.5-1.9,2-1.8c2,0.1,4.1,0.1,6.1,0c1.6-0.1,2,0.4,2,1.9c0,12,0.1,24.1,0,36.1
				c0,1.9,0.5,2.4,2.5,2.3c5.4-0.1,10.8,0,16.2-0.1c1.3,0,2,0.4,2.6,1.5C328.5-26.9,329.7-24.6,331-22.1"/>
			<path id="Fill-13" class="st0" d="M228-46.5c0,7.6,0,15.1,0,22.7c0,1.4-0.3,1.9-1.6,1.8c-1.9-0.1-3.9-0.1-5.8,0
				c-1.1,0-1.5-0.2-1.5-1.5c0-15.3,0-30.6,0-45.8c0-1.2,0.3-1.7,1.4-1.6c1.9,0.1,3.8,0.1,5.6,0c1.5-0.1,1.9,0.3,1.9,2
				C227.9-61.5,228-54,228-46.5"/>
			<path id="Fill-15" class="st0" d="M12-46.3c0,7.5,0,15,0,22.5c0,1.4-0.3,1.9-1.7,1.8c-1.8-0.1-3.6-0.1-5.4,0
				C3.4-21.9,3-22.4,3-24c0.1-13.2,0-26.4,0-39.5c0-2,0-4,0-6c0-1,0.3-1.4,1.2-1.4c2,0.1,4,0.1,6,0c1.3-0.1,1.7,0.4,1.7,1.8
				C11.9-61.6,12-53.9,12-46.3"/>
			<path id="Fill-17" class="st0" d="M266.9,2.7c0,7.4,0,14.7,0,22c0,1.3,0.1,2.3-1.8,2.3c-2,0-2-1-2-2.4c0-8.3,0-16.6,0-24.9
				c0-0.9-0.7-2.4,0.9-2.4c1.5-0.1,3.3-0.9,4.5,0.9c2.8,4.4,5.6,8.7,8.5,13.1c1.9,2.9,3.7,5.7,6,8.5V4.5c0-1.8,0.1-3.6,0-5.4
				c-0.1-1.7,0.6-2,2.1-2s1.8,0.6,1.8,1.9c-0.1,8.5,0,17-0.1,25.5c0,0.8,0.7,2.1-0.8,2.3c-1.3,0.1-2.8,0.6-3.9-1.1
				c-1.8-3-3.8-5.9-5.8-8.9c-2.9-4.5-5.8-9-8.7-13.5C267.6,3.1,267.5,2.7,266.9,2.7"/>
			<path id="Fill-19" class="st0" d="M96.3,12.1c0-3-0.1-6-1.5-8.8c-1.1-2.3-2.9-3.6-5.7-3.6c-2.7,0-4.7,1.1-5.7,3.5
				c-2.5,5.6-2.4,11.4-0.3,17.1c1,2.7,3.3,3.9,6.2,3.9c2.9-0.1,4.9-1.6,5.9-4.3C96.2,17.4,96.4,14.7,96.3,12.1 M101,12
				c0,3-0.3,5.8-1.6,8.6c-1.8,4-4.8,6.2-9.4,6.4c-5,0.2-9-1.2-11-5.9c-2.9-6.7-2.8-13.3,0.9-19.8c3.3-5.7,14.9-5.9,18.5,0.2
				C100.3,4.8,101,8.3,101,12"/>
			<path id="Fill-21" class="st0" d="M250.3,12c0-2.6-0.1-5.1-1-7.6c-1.3-3.3-3.3-4.8-6.5-4.7c-2.9,0-5.2,1.7-6.2,4.8
				c-1.5,5-1.5,10,0,15c0.9,3,3.4,4.7,6.4,4.6c3,0,5.2-1.7,6.3-4.7C250.2,17,250.2,14.5,250.3,12 M255,11.4
				c-0.1,4.6-0.6,8.3-2.9,11.5c-3,4.2-7.4,4.5-11.9,3.8c-4-0.6-6.5-3.3-7.8-7c-1.7-4.6-1.7-9.4-0.4-14.1s4.3-9.3,12.8-8.6
				c4.8,0.4,8.7,4,9.7,9.5C254.7,8.4,255.1,10.2,255,11.4"/>
			<path id="Fill-23" class="st0" d="M34.5,9.8c0,3.1,0,6.2,0,9.3c0.1,3.5,2.3,5.7,5.8,5.7s5.6-2.2,5.6-5.8c0-6.3,0.1-12.6,0-18.9
				c0-1.6,0.4-2.1,2-2.1C49.3-2,50-1.7,50,0.1c-0.1,6.1,0,12.1-0.1,18.2c0,6.1-3.7,9.7-10,9.7c-6.2,0-9.9-3.6-9.9-9.7
				s0.1-12.1-0.1-18.2C30-1.8,30.7-2,32.2-2c1.3,0,2.4-0.1,2.3,2C34.3,3.2,34.5,6.5,34.5,9.8"/>
			<g id="Group-27" transform="translate(148.000000, 110.000000)">
				<g id="Clip-26">
				</g>
				<path id="Fill-25" class="st0" d="M19.9-99.9c0,3.2,0,6.4,0,9.5c0,3.3-1.5,5.7-4.2,7.3c-5.9,3.5-13.6,0.8-15.2-5.3
					c-0.2-0.7-0.3-1.4-0.3-2.1c0-6.4,0.1-12.9-0.1-19.3c0-1.9,0.9-1.8,2.2-1.8s2.2-0.1,2.2,1.9c-0.1,6.2-0.1,12.4,0,18.7
					c0.1,5.1,4.5,7.9,8.7,5.6c2.2-1.2,2.8-3.3,2.8-5.6c0-6.1,0.1-12.2,0-18.2c0-2,0.7-2.5,2.4-2.5c1.2,0,1.6,0.4,1.5,1.6
					C19.9-106.9,19.9-103.4,19.9-99.9"/>
			</g>
			<g id="Group-30" transform="translate(0.000000, 110.000000)">
				<path id="Fill-28" class="st0" d="M13.3-107.8c-1.8,4.9-3.4,9.5-5.1,14.1h10C16.6-98.4,15-103,13.3-107.8 M26.9-82.3
					c-4.4,0.5-4.4,0.5-5.8-3.3c-2-5.4-2-5.4-7.8-5.4s-5.8,0-7.8,5.2c-0.2,0.5-0.4,1.1-0.6,1.6c-0.7,1.8-2.4,2.6-4.2,2
					c-1.1-0.4-0.4-1-0.2-1.6c2.3-6,4.6-12,7-17.9c1.2-3,2.4-5.9,3.5-9c0.5-1.3,1.3-1.2,2.3-1.1s2.3-0.6,2.9,1
					c3.6,9.3,7.2,18.6,10.8,27.9C26.9-82.8,26.9-82.5,26.9-82.3"/>
			</g>
			<path id="Fill-31" class="st0" d="M131.4,2.2c-1.7,4.6-3.1,8.8-4.7,12.9c-0.4,1-0.3,1.5,1,1.4c2.8,0,5.6,0,8.7,0
				C134.7,11.7,133.2,7.2,131.4,2.2 M145,27.7c-0.1,0-0.2,0.1-0.2,0.1c-4.2,0.4-4.2,0.4-5.6-3.4c-2-5.5-2-5.5-8-5.5
				c-5.7,0-5.7,0-7.6,5.1c-0.3,0.7-0.5,1.4-0.8,2.1c-0.6,1.4-2.9,2.3-4.3,1.6c-1-0.5-0.2-1.2,0-1.7c2.3-6.2,4.7-12.3,7.1-18.5
				c1.1-2.8,2.3-5.6,3.3-8.4c0.5-1.4,1.5-1.3,2.5-1.2c1.1,0,2.2-0.3,2.8,1.2c3.5,9.3,7.2,18.6,10.8,27.9C145,27.3,145,27.5,145,27.7
				"/>
			<path id="Fill-33" class="st0" d="M299.9,27c-2.2,0-4,0-5.8-0.7c-0.9-0.4-1.4-0.8-0.9-1.9c0.4-0.9,0.6-1.7,1.9-1.1
				c1.8,0.9,3.7,0.8,5.6,0.7c2.3-0.2,4-1.7,4.5-3.9c0.5-2.3-0.2-4.2-2.3-5.5c-1.5-0.9-3.1-1.4-4.6-2.1c-4.9-2.3-6.6-6.7-4.3-11.1
				c1.4-2.6,3.6-4.1,6.5-4.2c2.3-0.1,4.7-0.3,6.9,0.6c0.8,0.4,1.5,0.7,0.9,1.9c-0.4,0.9-0.8,1.4-1.9,0.8c-1.5-0.7-3.1-1-4.8-0.8
				c-2.1,0.3-3.6,1.4-4.2,3.7c-0.5,2.2,0.1,3.8,1.8,5.1c1.4,1.1,3.2,1.5,4.8,2.2c6.4,2.8,7.8,10,2.8,14.3
				C304.8,26.8,302.2,27.1,299.9,27"/>
			<path id="Fill-35" class="st0" d="M176,12c0.2-5.7,1.6-10.8,7.2-13.7c3.5-1.8,7.2-1.5,10.9-0.2c0.9,0.3,1,0.9,0.6,1.7
				C194.3,0.5,194,1,193,0.6c-5.4-2.4-11,0.3-12,8.1c-0.4,3.1-0.4,6.3,0.6,9.3c1.7,5.1,5.8,7.2,11.1,5.4c1.4-0.5,1.6,0.2,2.1,1
				c0.7,1.3-0.3,1.6-1.1,1.8c-7.9,2-14.5,0.1-17.2-9.3C176,15.3,176,13.7,176,12"/>
			<path id="Fill-37" class="st0" d="M201.3-2c3.8,0.5,8,0.2,12.2,0.2c1,0,1.5,0.3,1.5,1.5s-0.6,1.2-1.5,1.3c-1.5,0-3.5-0.7-4.4,0.3
				c-1.1,1.2-0.3,3.3-0.4,5c-0.1,6.5-0.1,13.1,0,19.6c0,2-0.8,2.1-2.3,2.1c-1.4,0-2.3,0-2.2-2c0.1-7.7,0-15.4,0.1-23.1
				c0-1.5-0.4-2.1-1.9-1.9c-0.8,0.1-1.7,0-2.5,0c-0.9,0-2,0.4-2-1.4s0.9-1.6,2-1.6C200.3-2,200.6-2,201.3-2"/>
			<path id="Fill-39" class="st0" d="M65.7-2c2.3,0,4.6,0,7,0c1,0,1.3,0.4,1.3,1.4C74,0.5,73.8,1,72.6,1C71,1,68.9,0.2,68,1.3
				c-1,1.2-0.3,3.3-0.3,5.1c0,6.5-0.1,13.1,0,19.6c0,1.7-0.5,2.1-2.1,2c-1.3-0.1-2.4,0.1-2.3-2c0.1-7.7,0-15.4,0.1-23.1
				c0-1.7-0.5-2.2-2-2c-1,0.1-2,0-3,0c-0.8,0-1.4,0-1.4-1.1c0-1,0.2-1.8,1.3-1.8C60.8-2,63.2-1.9,65.7-2L65.7-2z"/>
			<path id="Fill-41" class="st0" d="M361-91.1c-1.9,0.3-3-0.4-4.1-0.8c-11.7-3.5-23.6-4.1-35.6-3.3c-0.7,0-1.4,0.1-2.2,0.1
				c-2,0.2-4.1,0.4-6.1,0.6c-2.1,0.4-4.3,0.8-6.4,1.2c-1.1,0.2-1.4-0.5-1.7-1.3c-2.3-5.7-4.6-11.4-6.9-17.4c4-0.3,7.8-0.2,11.5,0.8
				c2.8,0.3,5.5,0.7,8.2,1.5C333.1-106.1,347.3-99.9,361-91.1"/>
			<path id="Fill-43" class="st0" d="M224.9,12.9c0,4.3-0.1,8.7,0.1,13c0.1,2-0.9,2.1-2.6,2.1c-1.6,0-2.5-0.1-2.4-1.9
				c0.1-8.7,0.1-17.5,0-26.2c0-2,1.2-1.8,2.5-1.8C224-2,225-1.9,225,0C224.8,4.3,224.9,8.6,224.9,12.9"/>
			<g id="Group-47" transform="translate(329.000000, 22.000000)">
				<g id="Clip-46">
				</g>
				<path id="Fill-45" class="st0" d="M62.6-85.4C56.8-71.6,51-57.8,45.2-44c-0.1,0.2-0.2,0.4-0.5,0.8c-2.3-6.9-5.2-13.4-8-19.9
					c-1.3-2.6-2.5-5.2-3.8-7.8c-1.1-2-2.3-4-3.4-6.1c-1.4-2.3-2.7-4.5-4.1-6.8c-2.3-3.2-4.5-6.5-6.8-9.7c-1.8-2.2-3.6-4.3-5.4-6.5
					c-3.9-3.9-7.7-7.8-13.1-10.7c6.6-1.3,12.6-1.6,18.7-0.7c2.8,0.3,5.6,0.6,8.3,1.7c3.6,0.7,7,1.8,10,3.9c2.4,0.5,4.2,2.1,6.2,3.3
					c1.8,1,3.6,2.2,5.2,3.6l0,0c2.1,1,3.5,2.8,5.3,4.2c3.1,2.4,5.8,5.2,8.5,8C62.9-86.4,62.9-86,62.6-85.4"/>
			</g>
		</g>
	</g>
</g>
</svg>
