<?xml version="1.0" encoding="utf-8"?>
<!-- Generator: Adobe Illustrator 21.0.0, SVG Export Plug-In . SVG Version: 6.00 Build 0)  -->
<svg version="1.1" id="Layer_1" xmlns="http://www.w3.org/2000/svg" xmlns:xlink="http://www.w3.org/1999/xlink" x="0px" y="0px"
	 viewBox="0 0 400 105" style="enable-background:new 0 0 400 105;" xml:space="preserve">
<style type="text/css">
	.st0{fill:#FFFFFF;}
</style>
<g>
	<polygon id="path-1" class="st0" points="3,81 3,49 9,49 9,81 	"/>
</g>
<title>Imperial Select</title>
<desc>Created with Sketch.</desc>
<g id="Page-1_1_">
	<g id="Imperial-Select">
		<g id="Page-1" transform="translate(3.000000, 138.000000)">
			<path id="Fill-1" class="st0" d="M31-74c5-5.3,9.9-10.6,14.9-16c0,0.4,0.1,0.7,0.1,0.9C46-79,46-69,46-58.9
				c0,0.7-0.2,0.9-0.9,0.9c-1.8,0-3.6,0-5.5,0v-15.9c-2.9,3-5.7,5.9-8.6,8.8c-2.8-2.9-5.6-5.8-8.5-8.8V-58h-1.2c-1.5,0-2.9,0-4.4,0
				c-0.7,0-0.9-0.2-0.9-0.9c0-9.2,0-18.4,0-27.6v-3.3c0.1,0,0.1-0.1,0.2-0.1C21.1-84.6,26-79.3,31-74"/>
			<path id="Fill-3" class="st0" d="M120.6-83.1v8.1c1.4,0,2.7,0.1,4.1,0c2.1-0.1,3.8-1.9,3.8-3.9c0.1-2-1.5-3.9-3.5-4.1
				C123.6-83.2,122.1-83.1,120.6-83.1 M120.5-69.4v1.4c0,3.4,0,6.8,0,10.2c0,0.6-0.2,0.8-0.8,0.8c-1.9,0-3.7,0-5.7,0v-31.9
				c0.2,0,0.4-0.1,0.6-0.1c3.3,0,6.6-0.1,9.8,0c3.4,0.1,6.5,1.1,8.7,3.7c3.5,4.1,2.6,10.7-1.9,13.8c-0.3,0.2-0.6,0.4-0.9,0.6
				c2.2,4.6,4.4,9.1,6.7,13.7c-0.4,0-0.6,0.1-0.8,0.1c-1.7,0-3.3,0-5,0c-0.6,0-0.8-0.2-1-0.7c-1.8-3.7-3.6-7.3-5.4-11
				c-0.3-0.5-0.5-0.8-1.2-0.7C122.6-69.3,121.6-69.4,120.5-69.4"/>
			<path id="Fill-5" class="st0" d="M105-89c-0.9,1.9-1.8,3.7-2.8,5.5c-0.1,0.2-0.6,0.3-0.9,0.3c-3.4,0-6.8,0-10.2,0h-1v8h9.7v5.8
				h-9.7v6.6H91c4.2,0,8.3,0,12.5,0c0.8,0,0.9,0.2,0.9,0.9c-0.1,1.6,0,3.2,0,4.9H84v-32C84-89,105-89,105-89z"/>
			<path id="Fill-7" class="st0" d="M177.9-69.8c-1.3-2.8-2.6-5.4-3.9-8.2c-1.4,2.8-2.6,5.5-3.9,8.2H177.9z M191-57
				c-2.3,0-4.4,0-6.4,0c-0.2,0-0.6-0.3-0.7-0.5c-1-2-2-4.1-3-6.2c-0.2-0.5-0.5-0.6-1-0.6c-3.9,0-7.9,0-11.8,0
				c-0.5,0-0.7,0.1-0.9,0.6c-1,2.1-2,4.1-2.9,6.1c-0.2,0.5-0.5,0.7-1.1,0.7c-2,0-4,0-6.1,0c5.7-11,11.3-21.9,17-33
				C179.7-78.9,185.3-68.1,191-57L191-57z"/>
			<path id="Fill-9" class="st0" d="M62.5-83.1v8.1c1.4,0,2.7,0.1,4,0c2.1-0.1,3.7-1.9,3.8-3.9c0-2-1.5-4-3.5-4.1
				C65.4-83.2,64-83.1,62.5-83.1L62.5-83.1z M56-89c0.3,0,0.5,0,0.7,0c3.1,0,6.2,0,9.3,0c2.1,0,4.1,0.4,6,1.4c3.7,2,5.3,5.2,5,9.4
				c-0.3,4-2.6,6.7-6.3,8.1c-1.3,0.5-2.8,0.6-4.2,0.8c-1.3,0.1-2.6,0-4,0V-57H56V-89z"/>
			<path id="Fill-11" class="st0" d="M322-89h19c0,1.2,0,2.5,0,3.7c0,0.1-0.4,0.4-0.7,0.4c-2.2,0-4.5,0-6.7,0h-4.3v9.4
				c0.3,0,0.6,0,0.8,0c2.9,0,5.8,0,8.7,0c0.7,0,0.9,0.2,0.8,0.9c-0.1,0.8-0.1,1.6,0,2.4c0,0.6-0.2,0.8-0.8,0.8c-2.9,0-5.8,0-8.8,0
				h-0.8V-61h11.6v4c-0.3,0-0.5,0-0.7,0c-5.8,0-11.6,0-17.4,0c-0.7,0-0.8-0.2-0.8-0.9c0-10.1,0-20.2,0-30.3
				C322-88.4,322-88.7,322-89"/>
			<path id="Fill-13" class="st0" d="M292-89v4h-11.6v9.5h0.9c2.9,0,5.8,0,8.8,0c0.6,0,0.8,0.1,0.8,0.8c-0.1,0.8,0,1.7,0,2.5
				c0,0.6-0.2,0.8-0.8,0.8c-2.9,0-5.9,0-8.8,0h-0.9V-61H292v4h-19v-32H292z"/>
			<path id="Fill-15" class="st0" d="M264.5-88.2c-0.6,1.3-1.1,2.5-1.5,3.5c-1.7-0.4-3.3-0.9-4.9-1.2c-1.4-0.3-2.8-0.1-4.1,0.5
				c-1.5,0.7-2.4,1.9-2.6,3.6c-0.1,1.6,0.4,2.8,1.7,3.6c1.1,0.7,2.4,1.2,3.6,1.8c1.8,0.9,3.7,1.5,5.4,2.6c5.5,3.4,4.6,10.4,0.9,13.6
				c-2,1.7-4.3,2.7-6.9,3c-3.3,0.4-6.6,0.2-9.8-0.7c-0.7-0.2-1.4-0.6-2.3-0.9c0.6-1.5,1.2-2.8,1.8-4.3c2.1,1.1,4.3,1.5,6.6,1.5
				c1.8,0,3.5-0.4,4.8-1.8c1.7-1.8,1.6-4.7-0.4-6.1c-1.2-0.9-2.6-1.4-3.9-2.1c-1.6-0.8-3.2-1.3-4.7-2.3c-5.3-3.5-4.6-9.9-0.9-13.2
				c2-1.7,4.3-2.6,6.8-2.8c3.1-0.3,6.2,0,9.2,1.1C263.7-88.6,264.1-88.4,264.5-88.2"/>
			<path id="Fill-17" class="st0" d="M370-88.1c-0.6,1.2-1.1,2.3-1.6,3.5c-1.1-0.3-2.2-0.7-3.3-0.9c-4.4-0.6-7.9,0.6-9.8,5
				c-0.4,0.9-0.7,2-0.9,3c-0.7,3.3-0.6,6.6,0.6,9.8c1.1,3.1,3.1,5.4,6.6,5.9c2,0.3,4,0.2,5.9-0.6c0.2-0.1,0.5-0.2,0.8-0.3
				c0.6,1.3,1.2,2.5,1.8,3.8c-1.2,0.8-2.6,1.2-3.9,1.5c-2.8,0.5-5.7,0.6-8.5,0c-4.5-1-7.9-3.6-9.7-7.8c-2.6-5.9-2.5-11.8,0.6-17.5
				c2.5-4.6,6.7-6.9,12-7.2c3-0.2,5.9,0.1,8.7,1.3c0.2,0.1,0.4,0.2,0.6,0.3C369.7-88.3,369.8-88.2,370-88.1"/>
			<path id="Fill-19" class="st0" d="M372-84.9V-89h22c0,1.2,0,2.5,0,3.7c0,0.1-0.4,0.3-0.6,0.3c-1.9,0-3.8,0-5.7,0h-0.9v27.9
				c-0.3,0-0.5,0.1-0.7,0.1c-2,0-4,0-6,0c-0.6,0-0.7-0.2-0.7-0.8c0-2.3,0-4.6,0-6.8v-19.3v-1C379.4-84.9,372-84.9,372-84.9z"/>
			<polygon id="Fill-21" class="st0" points="300,-89 307.3,-89 307.3,-61 318,-61 318,-57 300,-57 			"/>
			<path id="Fill-23" class="st0" d="M204.1-62.8c3.5,0,6.8,0.1,10.2,0c1.5-0.1,2.2,0.4,2.7,1.7c0.4,1.2,1.1,2.2,1.6,3.4
				c0.1,0.2,0.2,0.5,0.3,0.8h-21v-32h6.1L204.1-62.8L204.1-62.8z"/>
			<path id="Fill-25" class="st0" d="M214.8-86c-3.7-9.2-8-18-15.8-24.5c1.7-0.4,3.5-0.6,5.4-0.4c5.8,0.5,10.5,3.3,14.7,7.3
				c0.6,0.5,1.1,1.1,1.7,1.7c0.2,0.2,0.3,0.6,0.2,0.9C219-96,216.9-91,214.8-86C214.8-86.1,214.8-86,214.8-86"/>
			<path id="Fill-27" class="st0" d="M147-89h6v31.9c-0.2,0-0.4,0-0.6,0.1c-1.6,0-3.1,0-4.7,0c-0.6,0-0.7-0.2-0.7-0.8
				c0-2.8,0-5.6,0-8.3c0-7.3,0-14.5,0-21.8V-89z"/>
			<g id="Group-31" transform="translate(0.000000, 30.000000)">
				<g id="Clip-30">
				</g>
				<path id="Fill-29" class="st0" d="M0-87v-32h5.9c0,0.2,0,0.5,0,0.7c0,10.1,0,20.2,0,30.4C6-87.2,5.8-87,5.2-87
					C3.5-87.1,1.8-87,0-87"/>
			</g>
			<path id="Fill-32" class="st0" d="M189-119l2.8,6c4.1-0.8,9.3-0.7,15.2-0.2C203.2-116.3,198.1-118.7,189-119"/>
		</g>
	</g>
</g>
</svg>
