<?xml version="1.0" encoding="utf-8"?>
<!-- Generator: Adobe Illustrator 21.0.0, SVG Export Plug-In . SVG Version: 6.00 Build 0)  -->
<svg version="1.1" id="Layer_1" xmlns="http://www.w3.org/2000/svg" xmlns:xlink="http://www.w3.org/1999/xlink" x="0px" y="0px"
	 viewBox="0 0 326 131" style="enable-background:new 0 0 326 131;" xml:space="preserve">
<style type="text/css">
	.st0{fill:#495057;}
</style>
<title>Indeed</title>
<desc>Created with Sketch.</desc>
<g id="Page-1">
	<g id="indeed">
		<g id="Indeed">
			<path id="Fill-1" class="st0" d="M11,50c0.1-0.2,0.3-0.5,0.3-0.7c0.5-5.1,1.9-10,4-14.7c2-4.5,4.6-8.6,7.9-12.3
				c3.9-4.3,8.4-7.7,13.8-9.9c2.4-1,5-1.6,7.6-1.9c0.5,0,1.1-0.1,1.6-0.1c0.2,0,0.4-0.1,0.5-0.2h1.9c0.3,0.1,0.5,0.2,0.8,0.2
				c4.8,0.3,9.1,1.9,12.7,5c1.3,1.1,2.5,2.4,3.3,3.9c0.2,0.5,0.5,1,0.4,1.5c-0.3,0.3-0.6,0.2-0.9,0c-0.6-0.3-1.1-0.7-1.6-1
				c-2.6-1.8-5.3-3.3-8.3-4.2c-3.1-0.9-6.2-1.2-9.4-1C40.1,15,35,17,30.5,20.3c-5.4,3.9-9.7,8.7-12.8,14.5c-2.6,4.8-4.5,9.8-5.9,15
				c-0.1,0.3-0.2,0.6-0.3,0.9c-0.1,0.1-0.3,0.2-0.4,0.3V50z"/>
			<path id="Fill-4" class="st0" d="M297.9,68.3c0.1-1.6-0.1-3.4-0.5-5.1c-0.7-3.1-1.9-5.9-4.2-8c-2.7-2.6-6-3.6-9.7-2.8
				c-2.8,0.6-4.9,2.2-6.4,4.5c-2,3-2.8,6.4-3,9.9c-0.1,1.9,0,3.9,0.3,5.8c0.4,2.5,1.2,4.8,2.5,6.9c3.1,4.9,9.5,6.6,14.7,3.5
				c2.5-1.5,4.1-3.8,5.1-6.6C297.7,73.8,298,71.2,297.9,68.3 M298.4,85.7c-0.2,0.2-0.4,0.4-0.6,0.6c-1.2,1.4-2.5,2.7-4,3.8
				c-2.7,2.1-5.8,3.4-9.2,3.8c-4,0.4-7.8-0.1-11.3-2.1c-3.3-1.9-5.8-4.6-7.7-7.9c-1.8-3.3-2.8-6.8-3.4-10.5
				c-0.4-2.8-0.4-5.7-0.2-8.5c0.2-3.9,1-7.7,2.8-11.2c2.9-5.6,7.3-9.3,13.5-10.3c3.8-0.7,7.5-0.5,11.2,0.7c2.3,0.8,4.3,2.1,6.1,3.7
				c0.8,0.7,1.5,1.5,2.3,2.2c0.2,0.2,0.3,0.3,0.7,0.6c0-0.5,0.1-0.8,0.1-1.1c0-3.7,0-7.3,0-11c0-2.5,0-5.1,0-7.6
				c0-1.1,0.2-2.3,0.6-3.3c1-2.7,3-3.8,5.8-3.5c2.9,0.3,4.3,2.2,4.7,4.7c0.1,0.7,0.2,1.4,0.2,2.1c0,18.8,0,37.6,0,56.4
				c0,1.2-0.1,2.3-0.6,3.5c-0.8,2.1-2.6,3.3-4.8,3.4c-3,0.2-5.4-2-5.8-5.1c-0.1-0.7-0.1-1.5-0.2-2.2c0-0.3,0-0.6,0-0.9
				C298.6,85.7,298.5,85.7,298.4,85.7"/>
			<path id="Fill-6" class="st0" d="M144,67.8c-0.1-0.7-0.2-1.9-0.3-3c-0.2-2.2-0.8-4.2-1.9-6.1c-1.9-3.5-4.6-5.9-8.5-6.4
				c-2.2-0.3-4.4,0-6.4,1.1c-2.4,1.3-4,3.4-5.1,5.9c-1.2,2.7-1.6,5.6-1.7,8.5c0,0.9,0.1,1.9,0.1,2.8c0.1,2.8,0.8,5.4,2.1,7.9
				c2.7,5,8,7.1,12.9,5.6c3.6-1.1,5.9-3.6,7.3-7C143.7,74.2,144,71.2,144,67.8 M144.6,50.3v-0.9c0-5.7,0-11.4,0-17.1
				c0-1.4,0-2.8,0.4-4.2c0.5-1.7,1.4-3.1,3.2-3.8c2-0.8,4.8-0.4,6.2,1.3c0.8,0.9,1.2,2,1.4,3.1c0.1,0.7,0.2,1.4,0.2,2.1
				c0,18.7,0,37.4,0,56.1c0,1.2-0.1,2.5-0.6,3.6c-0.8,2-2.6,3.2-4.7,3.3c-3.3,0.2-5.7-2.2-6-5.6c-0.1-0.9-0.1-1.7-0.2-2.6
				c-0.4,0-0.5,0.2-0.7,0.4c-1,1-2,2-3,3c-2.5,2.3-5.3,3.8-8.6,4.4c-4.1,0.8-8.1,0.5-12-1.4c-3.3-1.6-5.9-4-7.9-7.2
				c-2.2-3.4-3.4-7.1-4-11.1c-0.4-2.7-0.5-5.3-0.4-8c0.2-4,0.8-7.9,2.5-11.5c2.4-5.3,6.3-9,11.8-10.7c2.6-0.8,5.3-0.9,8.1-0.7
				c2.5,0.1,4.8,0.7,7.1,1.9c2.4,1.2,4.4,2.9,6.3,4.9c0.2,0.2,0.4,0.4,0.7,0.7C144.5,50.4,144.6,50.4,144.6,50.3"/>
			<path id="Fill-8" class="st0" d="M173.6,62.5c0.4,0,0.7,0.1,1.1,0.1c4.2,0,8.4,0,12.7,0c2.6,0,5.1,0,7.7,0c0.4,0,0.8,0,1.3-0.2
				c-0.2-2.9-0.8-5.8-2.4-8.2c-1.4-2.2-3.4-3.6-6-4.3c-1.5-0.4-3.1-0.5-4.7-0.3c-2.5,0.3-4.6,1.5-6.3,3.4c-1.7,2-2.6,4.4-3.1,6.9
				C173.7,60.8,173.5,61.6,173.6,62.5L173.6,62.5z M187.1,69.5c-4.1,0-8.3,0-12.4,0c-1.3,0-1.2,0-1.2,1.3c0.1,1.7,0.4,3.3,1,4.9
				c1.1,2.9,2.9,5.3,5.6,6.8c1.9,1,3.9,1.5,6,1.4c2.3-0.1,4.5-0.5,6.4-1.7c1.2-0.7,2.3-1.5,3.4-2.4c1.4-1.2,2.8-2.5,4.1-3.7
				c0.7-0.7,1.6-1,2.6-1.1c0.6,0,1.1,0,1.7,0.1c2.4,0.6,3.1,2.6,2.8,4.4c-0.3,2.1-1.4,3.8-2.8,5.3c-2.1,2.5-4.8,4.1-7.8,5.3
				c-2.1,0.8-4.2,1.4-6.4,1.6c-2,0.3-4.1,0.3-6.1,0.1c-3.2-0.2-6.4-0.8-9.4-2c-4.4-1.9-7.8-4.9-10.2-9.1c-1.7-2.8-2.6-5.9-3.1-9.2
				c-0.4-2.6-0.4-5.2-0.3-7.9c0.4-5.2,1.8-10.1,5-14.3c2.7-3.5,6.2-5.9,10.3-7.2c2.4-0.8,4.8-1.2,7.3-1.3c3.4-0.1,6.8,0.1,10.1,1.2
				c4.6,1.6,8.3,4.4,10.9,8.5c1.6,2.5,2.6,5.2,3,8.1c0.3,1.9,0.4,3.9,0,5.8c-0.4,1.9-1.5,3.3-3.4,3.9c-1.6,0.5-3.2,0.8-4.9,0.9
				C195.4,69.5,191.2,69.5,187.1,69.5L187.1,69.5z"/>
			<path id="Fill-10" class="st0" d="M246.1,62.5c0-0.4,0-0.8,0-1.1c-0.2-1.6-0.5-3.2-1-4.7c-0.8-2.2-2-4.1-4-5.4
				c-2.4-1.6-5-2.1-7.9-1.7c-3.2,0.4-5.6,2-7.3,4.7c-1.2,1.9-1.9,4.1-2.2,6.3c-0.1,0.6-0.1,1.2-0.2,1.9c0.5,0,0.9,0.1,1.2,0.1
				c6.7,0,13.5,0,20.2,0C245.3,62.6,245.7,62.6,246.1,62.5 M237.1,69.5c-4.2,0-8.3,0-12.5,0c-1.2,0-1.2,0.1-1.1,1.2
				c0.1,1.3,0.3,2.6,0.7,3.9c1,3.4,2.8,6.1,5.9,7.8c1.6,0.9,3.3,1.3,5.1,1.4c2.3,0.1,4.5-0.2,6.6-1.2c1.6-0.7,3-1.7,4.3-2.9
				c1.4-1.2,2.8-2.4,4.1-3.8c1.3-1.3,4.3-1.4,5.7-0.2c1.2,1,1.6,2.2,1.4,3.7c-0.3,1.8-1.1,3.3-2.2,4.7c-2.1,2.7-4.9,4.6-8,5.8
				c-2.2,0.9-4.5,1.5-6.8,1.8c-2,0.3-4.1,0.3-6.1,0.1c-3.5-0.2-7-0.9-10.2-2.4c-5-2.4-8.5-6.1-10.7-11.2c-1.1-2.5-1.7-5.1-1.9-7.8
				c-0.1-1.3-0.3-2.7-0.2-4c0.1-5.3,1.1-10.5,3.9-15.1c2.4-4,5.8-6.7,10-8.5c2.8-1.2,5.8-1.7,8.9-1.8c3.6-0.1,7.1,0.1,10.5,1.4
				c7.3,2.8,11.8,8.1,13.4,15.8c0.2,1.1,0.4,2.3,0.4,3.4c0,1.6-0.1,3.2-0.9,4.7c-0.5,0.9-1.2,1.6-2.1,2c-1.3,0.5-2.6,0.8-3.9,1
				c-2.2,0.3-4.5,0.1-6.7,0.2C241.9,69.5,239.5,69.5,237.1,69.5"/>
			<path id="Fill-12" class="st0" d="M70.9,49.2c0.2-0.2,0.4-0.5,0.6-0.7c1.6-1.9,3.5-3.6,5.7-4.9c2.3-1.4,4.9-2.1,7.6-2.4
				c1.8-0.2,3.6-0.2,5.4,0c5.2,0.8,9.4,3.1,11.9,7.8c0.9,1.8,1.6,3.7,1.7,5.7c0.1,1.7,0.3,3.3,0.3,5c0,8,0,16.1,0,24.1
				c0,1.2-0.2,2.5-0.6,3.6c-0.8,2-2.3,3.3-4.5,3.6c-3.8,0.5-6.3-1.6-7-4.7c-0.2-1-0.3-2-0.3-3c0-7.1,0-14.2,0-21.4
				c0-2-0.3-4-0.8-5.9c-0.3-1.1-0.7-2.2-1.4-3.1c-1-1.3-2.4-2-4.1-2.3c-2.6-0.5-5.1-0.3-7.4,1c-3.4,1.8-5.4,4.7-6,8.4
				c-0.4,2.5-0.4,4.9-0.4,7.4c0,5.5,0,11.1,0,16.6c0,1.2-0.2,2.4-0.7,3.6c-1,2.2-2.7,3.3-5.2,3.4c-3.4,0.2-5.9-2.1-6.3-5.3
				C59.1,84.9,59,84,59,83.2c0-11.6,0-23.2,0-34.8c0-1.1,0-2.3,0.3-3.4c0.5-1.8,1.6-3.2,3.6-3.7c4-1.1,7.3,1.2,7.6,5.2
				c0.1,0.6,0,1.3,0,1.9c0,0.3,0.1,0.5,0.1,0.8C70.7,49.1,70.8,49.2,70.9,49.2"/>
			<path id="Fill-14" class="st0" d="M50.9,51c0,0.2,0.1,0.4,0.1,0.6c0,10.7,0,21.3,0,32c0,1.4-0.3,2.8-1,4.1
				c-1.2,2.1-3.1,3.2-5.6,3.3c-0.9,0-1.7,0-2.6-0.2c-2.2-0.7-3.7-2.1-4.4-4.2c-0.4-1-0.5-2-0.5-3.1c0-9.7,0-19.4,0-29
				c0-0.2,0-0.5,0-0.7C44.7,53.6,44.4,53.5,50.9,51"/>
			<path id="Fill-16" class="st0" d="M44.4,27C50.4,26.9,55,31.6,55,37c0,5.6-4.8,10-10.6,10c-6,0-10.5-4.8-10.4-10
				C34,31.1,39.2,26.9,44.4,27"/>
			<path id="Fill-18" class="st0" d="M290.4,110.9c-0.1-0.6-0.1-1.2-0.2-1.9c-0.1-0.4-0.2-0.8-0.4-1.1c-0.7-1.5-2.1-2.4-3.8-2.2
				c-1.6,0.1-2.7,1-3.3,2.4c-0.8,1.9-0.8,3.9,0,5.8c0.6,1.7,2.4,2.5,4.2,2.2c1.4-0.3,2.3-1.1,2.9-2.2
				C290.3,112.9,290.4,111.9,290.4,110.9 M282.3,116.3c0,0.4,0,0.8-0.1,1.3c-0.7,0.1-1.5,0.1-2.3,0V99h2.4c0.1,2.1,0,4.3,0.1,6.5
				c0.2-0.2,0.3-0.2,0.4-0.3c2.4-2.2,6.8-1.5,8.6,0.8c0.9,1.2,1.4,2.6,1.5,4.1c0.1,1.4,0,2.7-0.6,4c-1,2.2-2.7,3.6-5.4,3.9
				c-1.6,0.2-3.1-0.3-4.2-1.4c-0.1-0.1-0.2-0.2-0.3-0.3C282.4,116.3,282.4,116.3,282.3,116.3"/>
			<path id="Fill-20" class="st0" d="M169.6,110.6c-1,0.2-2,0.4-3,0.6c-1,0.2-2,0.3-3,0.6c-1.2,0.3-1.8,1.1-1.7,2.1
				c0,1,0.7,1.8,1.8,2.1c0.6,0.1,1.3,0.2,1.9,0.1c1.7-0.2,3.1-0.9,3.7-2.4C169.7,112.7,169.7,111.6,169.6,110.6 M169.6,108.6
				c0.1-0.7,0.1-1.3-0.1-1.9c-0.2-0.6-0.6-1-1.2-1.2c-1.5-0.6-3-0.6-4.5-0.1c-0.7,0.2-1.1,0.8-1.4,1.4c-0.1,0.3-0.3,0.6-0.4,1
				c-0.8-0.1-1.5-0.2-2.3-0.3c0-0.1-0.1-0.2,0-0.3c0.4-1.5,1.2-2.8,2.8-3.4c2.3-0.9,4.7-1,7.1-0.3c1.7,0.5,2.6,1.6,2.7,3.2
				c0.1,0.7,0.1,1.4,0.1,2.1c0,1.2,0,2.5,0,3.7c0,1.7-0.2,3.4,0.8,5.2c-0.9,0-1.6,0-2.4,0c-0.3,0-0.4-0.2-0.5-0.4
				c-0.1-0.4-0.2-0.8-0.4-1.2c-0.3,0.2-0.6,0.4-0.9,0.6c-2,1.3-4.3,1.7-6.7,1.1c-1.7-0.4-2.9-1.7-3.1-3.2c-0.2-1.8,0.5-3.3,2.2-4.2
				c1-0.6,2.1-0.7,3.3-0.9c1.3-0.2,2.7-0.4,4-0.6C168.9,108.8,169.2,108.7,169.6,108.6"/>
			<path id="Fill-22" class="st0" d="M235.5,110.6c-1.4,0.3-2.9,0.5-4.3,0.8c-0.6,0.1-1.2,0.2-1.8,0.4c-1,0.3-1.6,1-1.6,2
				c0,1,0.6,1.8,1.6,2.1c0.5,0.2,1.1,0.2,1.7,0.2C233.9,116,236.1,114.2,235.5,110.6 M239,117.7c-0.9,0-1.6,0-2.3,0
				c-0.3,0-0.5-0.2-0.6-0.4c-0.1-0.4-0.2-0.8-0.4-1.2c-0.3,0.2-0.6,0.4-0.8,0.5c-2,1.4-4.3,1.8-6.7,1.2c-1.7-0.4-2.9-1.7-3.1-3.2
				c-0.2-1.8,0.5-3.3,2.1-4.2c1-0.6,2.1-0.7,3.3-0.9c1.4-0.2,2.7-0.4,4.1-0.6c0.3-0.1,0.7-0.2,1-0.3c0.2-0.7,0.1-1.3-0.1-1.9
				c-0.2-0.6-0.7-1-1.3-1.3c-1.4-0.5-2.9-0.5-4.3,0c-0.6,0.2-1,0.6-1.3,1.2c-0.2,0.4-0.3,0.7-0.6,1.2c-0.8-0.1-1.6-0.2-2.4-0.3
				c0.2-1.3,0.8-2.4,1.9-3.2c0.4-0.3,0.9-0.5,1.4-0.7c2.1-0.7,4.2-0.8,6.3-0.2c2,0.5,2.9,1.5,3.1,3.5c0.1,0.6,0.1,1.3,0.1,1.9
				c0,1.5,0,3,0,4.4C238.2,114.7,238.1,116.1,239,117.7"/>
			<path id="Fill-24" class="st0" d="M155.2,109.1c0-2.5-2-4.3-4.4-4.1c-2.2,0.2-4.1,2.1-3.9,4.1H155.2z M158,111.2h-11.2
				c-0.2,2.7,2.1,5.5,5.7,4.7c1-0.2,1.7-0.8,2.2-1.7c0.2-0.4,0.4-0.7,0.6-1.1c0.8,0.1,1.7,0.2,2.5,0.3c-0.1,0.2-0.1,0.4-0.1,0.6
				c-0.9,2.3-2.7,3.7-5.3,3.9c-1,0.1-2,0.1-2.9-0.1c-2.7-0.5-4.5-2.1-5.2-4.6c-0.5-1.9-0.5-3.8,0.1-5.7c0.9-2.6,2.8-4.2,5.7-4.5
				c3-0.3,5.5,0.8,6.8,3.1C157.9,107.7,158.1,109.4,158,111.2L158,111.2z"/>
			<path id="Fill-26" class="st0" d="M111.9,109.1h8.3c0-2.7-2.1-4.1-4.1-4.1C113.4,105,111.8,107.2,111.9,109.1 M122.9,111.2h-11.1
				c-0.1,2.7,2,5.3,5.2,4.8c1.1-0.2,1.9-0.7,2.5-1.5c0.3-0.4,0.5-0.8,0.8-1.4c0.4,0,0.8,0.1,1.2,0.1c0.4,0,0.9,0.1,1.4,0.2
				c-0.4,1.5-1.2,2.7-2.5,3.6c-1.3,0.8-2.8,1.1-4.3,1.1c-0.6,0-1.2-0.1-1.8-0.2c-2.4-0.5-4-1.9-4.8-4.1c-0.7-2.1-0.7-4.2,0.1-6.3
				c0.9-2.6,3.3-4.2,6.2-4.3c3.8-0.2,6.7,2.2,7.1,6c0.1,0.6,0.1,1.1,0.1,1.7C123,110.8,123,110.9,122.9,111.2"/>
			<path id="Fill-28" class="st0" d="M206,118h-2c0-0.3,0-0.5,0-0.8c0-2.5,0-5.1,0-7.6c0-0.6,0-1.2-0.2-1.8
				c-0.2-1.1-0.9-1.7-1.9-1.9c-1.5-0.3-3.5,0.6-3.7,3c-0.1,0.5-0.1,1-0.1,1.5c0,2.2,0,4.4,0,6.6v0.9h-2V99h2v6.7
				c0.3-0.2,0.4-0.4,0.5-0.5c1.5-1.4,3.7-1.7,5.5-0.7c1,0.6,1.6,1.5,1.8,2.7c0.1,0.5,0.2,1.1,0.2,1.6c0,2.9,0,5.9,0,8.8
				C206,117.7,206,117.8,206,118"/>
			<path id="Fill-30" class="st0" d="M266.5,110.5c0.1,1.1,0.2,2.1,0.7,3.1c0.8,1.5,2,2.4,3.8,2.4c1.8,0,3.1-0.9,3.8-2.4
				c0.8-1.9,0.8-3.9,0.1-5.8c-0.6-1.7-2.2-2.7-4-2.7c-1.8,0-3.3,1.1-3.9,2.9C266.7,108.7,266.7,109.6,266.5,110.5 M278,110.5
				c-0.1,0.9-0.2,1.8-0.4,2.7c-0.6,2.6-2.7,4.4-5.4,4.8c-1,0.1-2.1,0.1-3.1-0.1c-2.4-0.6-3.9-2-4.6-4.2c-0.6-2-0.6-3.9-0.1-5.9
				c0.7-2.6,2.8-4.3,5.6-4.6c2.3-0.2,4.4,0.3,6,1.9c1.3,1.3,1.7,2.9,1.9,4.6C277.9,109.9,277.9,110.2,278,110.5
				C277.9,110.5,278,110.5,278,110.5"/>
			<path id="Fill-32" class="st0" d="M91.5,110.5c-0.1-1-0.2-2-0.6-2.9c-0.7-1.7-2.2-2.7-4-2.6c-1.8,0-3.3,1.1-3.9,2.8
				c-0.6,1.7-0.6,3.5,0,5.3c0.6,1.8,2.1,2.9,4,2.9c1.9,0,3.4-1.1,4-2.9C91.2,112.2,91.3,111.4,91.5,110.5 M94,110.9
				c-0.1,0.8-0.2,1.6-0.4,2.4c-0.7,2.5-2.8,4.2-5.4,4.6c-1.1,0.1-2.3,0.1-3.4-0.2c-2.6-0.7-4-2.5-4.6-5c-0.4-1.7-0.3-3.4,0.1-5
				c0.7-2.7,3.1-4.6,6.1-4.7c2-0.1,3.8,0.3,5.4,1.7c1.2,1.1,1.8,2.5,2.1,4.1C93.9,109.4,93.9,110.1,94,110.9"/>
			<path id="Fill-34" class="st0" d="M306.3,107c-0.2,0-0.4,0.1-0.6,0.1c-0.6,0.1-1.2,0.1-1.8,0.2c-0.1-0.1-0.1-0.2-0.1-0.3
				c-0.4-1.2-1.3-1.8-2.6-1.9c-0.8-0.1-1.7,0-2.5,0.1c-0.3,0-0.6,0.2-0.9,0.4c-1.1,0.7-1.1,2,0.1,2.6c0.3,0.2,0.7,0.3,1.1,0.4
				c1.5,0.4,3,0.8,4.5,1.2c0.2,0.1,0.4,0.1,0.6,0.2c3.6,1.1,3.4,4.7,1.5,6.4c-0.9,0.8-2,1.3-3.3,1.5c-1.7,0.3-3.3,0.2-4.9-0.3
				c-2-0.6-3.4-2.3-3.5-4.2c0.8-0.1,1.6-0.2,2.5-0.4c0.1,0.3,0.1,0.5,0.2,0.7c0.4,1.1,1.2,1.8,2.4,2.1c1.1,0.2,2.2,0.2,3.3-0.1
				c0.7-0.2,1.2-0.5,1.6-1.1c0.6-1,0.3-2-0.8-2.4c-0.7-0.3-1.5-0.4-2.2-0.6c-1-0.3-2-0.5-3-0.8c-0.3-0.1-0.6-0.2-0.9-0.3
				c-1.6-0.6-2.5-1.7-2.6-3.3c0-1.6,0.8-2.8,2.4-3.5c2.5-1,5-1,7.5,0.1C305.5,104.4,306.2,105.5,306.3,107"/>
			<path id="Fill-36" class="st0" d="M133.5,113c0.1,0.3,0.2,0.5,0.2,0.7c0.4,1.1,1.2,1.8,2.4,2.1c1.1,0.2,2.2,0.2,3.3-0.1
				c0.6-0.2,1.2-0.5,1.5-1c0.7-1,0.3-2-0.8-2.5c-0.7-0.3-1.5-0.4-2.2-0.6c-1-0.3-2-0.5-3-0.8c-0.3-0.1-0.6-0.2-0.9-0.3
				c-1.6-0.6-2.5-1.6-2.6-3.3c-0.1-1.7,0.8-2.9,2.4-3.6c0.6-0.3,1.3-0.4,1.9-0.5c1.5-0.3,3.1-0.2,4.6,0.3c1.9,0.6,2.8,1.6,3.1,3.6
				c-0.8,0.1-1.6,0.2-2.5,0.3c-0.1-0.1-0.1-0.2-0.2-0.3c-0.3-1.2-1.3-1.9-2.6-2c-0.8-0.1-1.6,0-2.4,0.1c-0.2,0-0.5,0.1-0.7,0.2
				c-0.6,0.3-1.1,0.8-1.1,1.5c0,0.7,0.5,1.1,1.1,1.4c0.6,0.2,1.3,0.4,2,0.6c1,0.3,2.1,0.5,3.1,0.8c0.3,0.1,0.6,0.2,1,0.3
				c3.7,1.1,3.6,4.9,1.3,6.6c-0.7,0.5-1.4,0.9-2.3,1.1c-1.9,0.5-3.7,0.4-5.6-0.1c-2-0.6-3.4-2.3-3.6-4.1c0.1,0,0.1-0.1,0.2-0.1
				C132,113.2,132.7,113.1,133.5,113"/>
			<path id="Fill-38" class="st0" d="M98.1,118H96v-14.6c0.6-0.2,1.2-0.1,1.8-0.1c0,0.6,0,1.2,0.1,1.8c0.2-0.2,0.3-0.3,0.4-0.5
				c1.6-2.2,4.7-2.1,6.2-0.8c0.9,0.8,1.3,1.9,1.4,3.2c0,0.4,0,0.8,0,1.3c0,2.9,0,5.9,0,8.8c0,0.3,0,0.5,0,0.8h-2c0-0.3,0-0.6,0-0.9
				c0-2.9,0-5.8,0-8.7c0-0.4,0-0.7-0.1-1.1c-0.2-1.2-0.8-1.8-1.8-2.1c-0.9-0.2-1.7-0.1-2.5,0.5c-0.6,0.4-1,1-1.2,1.8
				c-0.1,0.8-0.3,1.5-0.3,2.3c0,2.4,0,4.8,0,7.2V118z"/>
			<path id="Fill-40" class="st0" d="M195.8,107.5c-0.8,0.1-1.6,0.2-2.4,0.4c-0.1-0.2-0.2-0.3-0.2-0.5c-0.5-1.3-1.3-2.2-2.8-2.4
				c-1.5-0.2-2.9,0.3-3.8,1.5c-0.3,0.3-0.5,0.7-0.6,1.1c-0.6,2-0.7,3.9,0,5.9c0.6,1.7,2.1,2.6,4,2.5c1.5-0.1,2.6-0.8,3.1-2.2
				c0.2-0.4,0.3-0.9,0.5-1.4c0.8,0.1,1.6,0.2,2.4,0.3c-0.1,0.9-0.3,1.6-0.7,2.3c-1.3,2.2-3.3,3.1-5.8,3c-3.5-0.2-5.7-2.2-6.3-5.5
				c-0.3-1.8-0.2-3.6,0.3-5.3c0.9-2.7,3.1-3.9,5.6-4.2c1.2-0.1,2.4,0,3.5,0.5C194.4,104.3,195.4,105.6,195.8,107.5"/>
			<path id="Fill-42" class="st0" d="M258.8,103h2.1c0,0.2,0.1,0.4,0.1,0.6c0,4.7,0,9.4,0,14.1c0,0.7-0.1,1.5-0.3,2.2
				c-0.3,1.3-1.2,2-2.4,2.1c-0.8,0.1-1.5,0.1-2.3-0.2c0.1-0.6,0.3-1.2,0.4-1.9c0.3,0,0.6,0.1,0.9,0.1c0.8,0,1.2-0.3,1.4-1.1
				c0.1-0.5,0.1-1.1,0.1-1.6c0-4.4,0-8.9,0-13.3V103z"/>
			<polygon id="Fill-44" class="st0" points="246.1,117.3 248.7,117.3 248.7,98.4 246.1,98.4 			"/>
			<polygon id="Fill-46" class="st0" points="240.3,117.3 243,117.3 243,98.4 240.3,98.4 			"/>
			<path id="Fill-47" class="st0" d="M176.8,118.1h-2.3v-14.4h2.1v1.7c0.1,0,0.1,0,0.2,0.1c0.6-1,1.2-2,2.5-2.1
				c0.7-0.1,1.8,0.1,2.7,0.8c-0.2,0.7-0.5,1.4-0.8,2.1c-0.3-0.1-0.6-0.2-0.8-0.3c-1.4-0.5-2.7,0.2-3.1,1.7c-0.2,0.9-0.4,1.8-0.4,2.7
				c-0.1,2.2,0,4.5,0,6.7V118.1z"/>
			<polygon id="Fill-48" class="st0" points="212,117.5 214.5,117.5 214.5,115 212,115 			"/>
			<polygon id="Fill-48-Copy" class="st0" points="259,100.5 261,100.5 261,98 259,98 			"/>
		</g>
	</g>
</g>
</svg>
