<?xml version="1.0" encoding="utf-8"?>
<!-- Generator: Adobe Illustrator 21.0.0, SVG Export Plug-In . SVG Version: 6.00 Build 0)  -->
<svg version="1.1" id="Layer_1" xmlns="http://www.w3.org/2000/svg" xmlns:xlink="http://www.w3.org/1999/xlink" x="0px" y="0px"
	 viewBox="0 0 400 400" style="enable-background:new 0 0 400 400;" xml:space="preserve">
<style type="text/css">
	.st0{fill:#FFFFFF;}
</style>
<title>IX</title>
<desc>Created with Sketch.</desc>
<g id="Page-1_1_">
	<g id="IX">
		<g id="Page-1" transform="translate(79.000000, 100.000000)">
			<g id="Group-3">
				<g id="Clip-2">
				</g>
				<path id="Fill-1" class="st0" d="M3,116.8c0,23.5,0.1,46.9-0.1,70.4c0,3.7,0.9,5.4,4.9,5.2c6.9-0.2,13.8-0.2,20.7,0
					c3.6,0.1,4.8-1.2,4.8-4.8c-0.1-47.3-0.1-94.5,0-141.8c0-3.8-1.5-4.8-4.9-4.7c-6.6,0.1-13.1,0.3-19.7,0c-4.6-0.2-5.9,1.4-5.9,5.9
					C3.1,70.3,3,93.5,3,116.8 M115.7,116.2c-9.2,8.4-18.3,16.1-26.8,24.4c-12.5,12.2-26.3,21.3-44.4,22.1c-1.1,0-2.9,2-2.9,3.1
					c-0.2,7.9-0.2,15.9,0.1,23.8c0,1.2,2.1,3.2,3.4,3.3c21.6,1.4,41.7-2.9,58.6-17.4c11.9-10.2,23.5-20.9,35-31.6
					c3-2.8,4.9-3.1,8.1-0.2c11.3,10.5,23.4,20.1,34.1,31c16,16.3,35.8,17.6,56.6,16.5c2.9-0.2,3.9-1.5,3.8-4.3
					c-0.1-4.8,0.1-9.7,0-14.5c-0.3-15,2-10.9-11.9-12.9c-10.1-1.4-19.4-4.2-27-11.8c-9.4-9.4-19.3-18.4-29-27.4
					c-1.4-1.3-3.2-2.1-4.9-3.2c1.8-2.2,2.4-3.2,3.2-4c10.8-10.2,21.5-20.5,32.5-30.5c2.2-2,5.1-3.8,8-4.6c8.9-2.3,18-4.1,27.8-6.2
					c0-7.7-0.2-16.3,0.1-24.9c0.1-3.7-1.4-4.9-4.9-4.8c-6.9,0.2-13.9-0.3-20.8,0.4c-11.9,1.1-22.8,4.5-31.9,13.2
					c-11.6,11.1-24,21.5-35.8,32.3c-3,2.8-4.9,3-8,0.1c-9.7-9.1-19.8-17.8-29.5-26.9C91.8,45.1,71,39.1,47.7,40.2
					c-3.5,0.2-4.4,1.7-4.4,4.8c0.1,6.2-0.1,12.4-0.1,18.6c0,7,0,7.2,7,7.7c12.8,1,23.5,6.5,32.9,14.8c8.9,8,17.7,16,26.5,24
					C111.6,112.3,113.4,114,115.7,116.2"/>
			</g>
			<path id="Fill-4" class="st0" d="M20.2-3.5C21.5-3,22.7-2.4,24-2c7.9,2.8,12.7,10.6,11.4,18.7c-1.2,7.7-7.9,13.5-15.9,13.7
				c-8.8,0.3-15.7-4.9-17.5-13C0.2,9.8,4.5,1.7,11.9-1.5c1.4-0.6,2.7-1.3,4.1-2H20.2z"/>
			<path id="Fill-6" class="st0" d="M115.8,116.5c-2.3-2.2-4.1-4-6-5.7c-8.8-8-17.6-16.1-26.5-24.1c-9.4-8.4-20.1-13.9-32.9-14.9
				c-7-0.5-7-0.7-7-7.7c0-6.2,0.2-12.4,0.1-18.7c0-3.2,0.9-4.7,4.4-4.9c23.3-1,44.1,4.9,61.5,21c9.8,9.1,19.9,17.8,29.5,26.9
				c3.1,3,5,2.7,8-0.1c11.8-10.9,24.2-21.2,35.8-32.4c9.1-8.7,20-12.1,31.9-13.3c6.9-0.7,13.8-0.2,20.8-0.4c3.4-0.1,5,1,4.9,4.8
				c-0.2,8.6-0.1,17.2-0.1,24.9c-9.8,2.1-18.9,3.9-27.8,6.2c-2.9,0.7-5.8,2.6-8,4.6c-11,10.1-21.7,20.3-32.5,30.6
				c-0.8,0.8-1.5,1.8-3.2,4c1.7,1.1,3.5,1.9,4.9,3.2c9.7,9.1,19.6,18,29,27.5c7.6,7.6,16.9,10.3,27,11.8c14,2,11.6-2.1,11.9,12.9
				c0.1,4.8-0.1,9.7,0,14.5c0.1,2.8-0.9,4.1-3.8,4.3c-20.8,1.1-40.6-0.2-56.7-16.5c-10.8-11-22.9-20.6-34.2-31.1
				c-3.2-2.9-5.1-2.6-8.1,0.2c-11.5,10.7-23.1,21.4-35,31.7c-16.8,14.5-36.9,18.8-58.6,17.4c-1.3-0.1-3.4-2.1-3.4-3.3
				c-0.3-7.9-0.3-15.9-0.1-23.8c0-1.1,1.9-3,2.9-3.1c18.1-0.8,31.9-9.9,44.4-22.1C97.5,132.6,106.6,124.8,115.8,116.5"/>
			<path id="Fill-8" class="st0" d="M2.6,117.1c0-23.2,0.1-46.4-0.1-69.7c0-4.5,1.2-6.1,5.8-5.9c6.4,0.3,12.9,0.2,19.4,0
				c3.3,0,4.8,1,4.8,4.8c-0.1,47.1-0.1,94.3,0,141.4c0,3.6-1.2,4.9-4.7,4.8c-6.8-0.2-13.6-0.2-20.4,0c-3.9,0.1-4.9-1.6-4.9-5.2
				C2.7,163.9,2.6,140.5,2.6,117.1"/>
		</g>
	</g>
</g>
</svg>
