<?xml version="1.0" encoding="utf-8"?>
<!-- Generator: Adobe Illustrator 21.0.0, SVG Export Plug-In . SVG Version: 6.00 Build 0)  -->
<svg version="1.1" id="Layer_1" xmlns="http://www.w3.org/2000/svg" xmlns:xlink="http://www.w3.org/1999/xlink" x="0px" y="0px"
	 viewBox="0 0 400 172" style="enable-background:new 0 0 400 172;" xml:space="preserve">
<style type="text/css">
	.st0{fill:#495057;}
	.st1{fill:#FFFFFF;}
</style>
<title>job Mail</title>
<desc>Created with Sketch.</desc>
<g id="Page-1">
	<g id="job-Mail">
		<g id="Group-9" transform="translate(25.000000, 134.000000)">
			<g id="Group-45">
				<path id="Fill-36" class="st0" d="M304.4-30.2c0-0.7,0,0.3,0-0.4c0-5.5,0-11,0-16.4v-33.6H323V-47c0,5.5,0,11,0,16.4
					c0,0.7,0-0.3,0,0.4H304.4z"/>
				<polygon id="Fill-38" class="st0" points="304.6,-85.9 304.6,-101 322.1,-101 322.1,-85.9 				"/>
				<polygon id="Fill-39" class="st0" points="331.1,-29.9 331.1,-114.7 349,-114.7 349,-29.9 				"/>
				<path id="Fill-40" class="st0" d="M252.4-35.8L252.4-35.8c-5.1-5.6-6.1-13.3-5.8-20.5c1.1-14.4,11.7-23.6,25.7-24.8
					c7.9-0.1,15.8-0.3,23.6-0.4l0.2,51.3h-33.3C258.9-31.1,255.2-32.9,252.4-35.8L252.4-35.8z M280.8-67.9v25.8h-4.3
					c-8,0-13.5-5.5-13.5-13.6C263.8-65.2,270-69,280.8-67.9L280.8-67.9z"/>
				<path id="Fill-41" class="st0" d="M164.7-30.3c0-0.3,0-0.5,0-0.8c0-12,0-24.1,0-36.1v-19.6l0.2-24.6c0-1.2,0-2.4,0-3.6h20.2
					l1.8,2.4c5.1,6.9,9.9,13.4,15,20.2c0.2,0.2,0.7,0.8,0.9,1c5.8-7.9,11.7-15.8,17.5-23.6h20.5c0,1.1,0.1,2.3,0.1,3.4
					c0,9.5-0.1,19-0.1,28.6v52.7h-19h-2.7l-0.3-50.9c-5.3,7.1-10.7,14.3-16,21.4L186.4-81l0.1,50.7H164.7z"/>
				<path id="Fill-42" class="st0" d="M19.6-35.2c0,17.8-5.3,26.1-19,30.8V18c13.8-4.2,26.7-9.5,34.5-18.4c7.7-8.7,9.2-17,9.2-34.8
					v-79.6H0.6v26.1h19.1L19.6-35.2z"/>
				<path id="Fill-43" class="st0" d="M70.6-81.9h14.7c9.9,0,18.1,8.4,18.1,18.7v13.5c0,10.3-8.1,18.7-18.1,18.7H70.6
					c-9.9,0-18.1-8.4-18.1-18.7v-13.5C52.5-73.4,60.6-81.9,70.6-81.9L70.6-81.9z M76.9-70.7h2c4.6,0,8.4,3.9,8.4,8.7v11.1
					c0,4.8-3.8,8.7-8.4,8.7h-2c-4.6,0-8.4-3.9-8.4-8.7V-62C68.5-66.8,72.3-70.7,76.9-70.7L76.9-70.7z"/>
				<path id="Fill-44" class="st0" d="M108.8-115v83.9h10.7c11.4,0,20.6-0.2,27.3-5.8c7.7-6.3,11.8-13.6,11.8-23.9
					c0-12.5-8.2-21.1-22.1-21.1h-10V-115H108.8z M126.3-43.9v-11.4l0,0V-67c3.2,0,6.3-0.1,9.5,0.1c2,0.2,2.8,0.5,4,1.5
					s1.7,2.5,1.8,3.3c0.3,2.3,0.2,4.4,0.2,6.7l0,0c0,2.3,0.1,4.2-0.2,6.5c-0.1,0.8-0.6,2.3-1.8,3.3s-2,1.3-4,1.5
					C132.6-43.8,129.5-43.9,126.3-43.9L126.3-43.9z"/>
			</g>
			<path id="Fill-47" class="st0" d="M66.6-9.5c-0.7-0.6-1.5-1.1-2.3-1.4c-0.8-0.3-1.7-0.5-2.6-0.5c-1.7,0-3.2,0.6-4.3,1.7
				s-1.6,2.6-1.6,4.3s0.5,3.1,1.6,4.3c1.1,1.1,2.4,1.7,4,1.7c0.9,0,1.9-0.2,2.7-0.5c0.9-0.3,1.7-0.8,2.5-1.5v2.9
				c-0.7,0.5-1.5,0.9-2.3,1.1C63.4,2.9,62.5,3,61.6,3c-1.2,0-2.4-0.2-3.4-0.6s-2-1-2.7-1.8c-0.8-0.8-1.4-1.7-1.8-2.7
				c-0.4-1-0.6-2.1-0.6-3.3s0.2-2.3,0.6-3.3c0.4-1,1-1.9,1.8-2.7s1.7-1.4,2.7-1.8c1-0.4,2.1-0.6,3.3-0.6c0.9,0,1.8,0.1,2.7,0.4
				c0.9,0.3,1.7,0.7,2.5,1.2L66.6-9.5z M81.8-3.7h4.5l-1.6-3.6c-0.1-0.2-0.2-0.5-0.3-0.8c-0.1-0.3-0.2-0.6-0.3-1
				c-0.1,0.3-0.2,0.7-0.3,1c-0.1,0.3-0.2,0.6-0.3,0.8L81.8-3.7z M89,2.6l-1.8-4.1h-6.4L79,2.6h-2.7L84-14l7.8,16.6
				C91.8,2.6,89,2.6,89,2.6z M104.5-6.6h0.5c1.4,0,2.3-0.2,2.7-0.5c0.5-0.3,0.7-0.9,0.7-1.7c0-0.9-0.2-1.5-0.7-1.9s-1.4-0.5-2.7-0.5
				h-0.5V-6.6z M104.3-4.6v7.1h-2.4v-15.9h3.6c1.1,0,1.9,0.1,2.5,0.2c0.6,0.1,1.1,0.4,1.5,0.7c0.5,0.4,0.9,0.9,1.2,1.5
				c0.3,0.6,0.4,1.3,0.4,2c0,1.3-0.3,2.3-0.9,3s-1.5,1.2-2.7,1.3l5.5,7.3h-2.9l-5.3-7.1h-0.5V-4.6z M123,2.6v-15.9h8.9v2.2h-6.3v4
				h6.3v2.3h-6.3v5.2h6.3v2.3H123V2.6z M143.6,2.6v-15.9h8.9v2.2h-6.3v4h6.3v2.3h-6.3v5.2h6.3v2.3h-8.9V2.6z M166.7-6.6h0.5
				c1.4,0,2.3-0.2,2.7-0.5c0.5-0.3,0.7-0.9,0.7-1.7c0-0.9-0.2-1.5-0.7-1.9s-1.4-0.5-2.7-0.5h-0.5V-6.6z M166.5-4.6v7.1h-2.4v-15.9
				h3.6c1.1,0,1.9,0.1,2.5,0.2c0.6,0.1,1.1,0.4,1.5,0.7c0.5,0.4,0.9,0.9,1.2,1.5s0.4,1.3,0.4,2c0,1.3-0.3,2.3-0.9,3
				c-0.6,0.7-1.5,1.2-2.7,1.3l5.5,7.3h-2.9L167-4.5h-0.5V-4.6z M184.3-0.6l2.1-1c0.2,0.7,0.6,1.3,1.1,1.6c0.5,0.4,1.2,0.6,2,0.6
				s1.4-0.2,1.8-0.6c0.5-0.4,0.7-1,0.7-1.7c0-0.9-0.8-1.8-2.3-2.5c-0.2-0.1-0.4-0.2-0.5-0.2c-1.8-0.9-2.9-1.6-3.5-2.3
				s-0.9-1.5-0.9-2.5c0-1.3,0.4-2.4,1.3-3.2c0.9-0.8,2.1-1.2,3.5-1.2c1.2,0,2.2,0.2,3,0.7s1.3,1.1,1.7,2l-2,1
				c-0.3-0.5-0.7-0.9-1.1-1.1c-0.4-0.2-0.8-0.3-1.3-0.3c-0.7,0-1.3,0.2-1.7,0.5c-0.4,0.4-0.6,0.8-0.6,1.5c0,1,0.9,1.9,2.7,2.7
				c0.1,0.1,0.2,0.1,0.3,0.2c1.6,0.7,2.7,1.4,3.3,2.1s0.9,1.6,0.9,2.6c0,1.5-0.5,2.7-1.4,3.6c-1,0.9-2.2,1.3-3.9,1.3
				c-1.4,0-2.5-0.3-3.4-0.9C185.2,1.4,184.6,0.5,184.3-0.6L184.3-0.6z M217.3,2.6v-15.9h8.9v2.2h-6.3v4h6.3v2.3h-6.3v7.5h-2.6V2.6z
				 M251.4-5.4c0-0.8-0.1-1.6-0.4-2.3c-0.3-0.7-0.7-1.4-1.3-1.9c-0.5-0.6-1.2-1-1.9-1.3s-1.5-0.5-2.2-0.5c-0.8,0-1.5,0.1-2.3,0.4
				c-0.7,0.3-1.3,0.7-1.9,1.3c-0.6,0.6-1,1.2-1.3,1.9s-0.4,1.5-0.4,2.3s0.1,1.6,0.4,2.3c0.3,0.7,0.7,1.4,1.3,1.9
				c0.6,0.6,1.2,1,1.9,1.3s1.5,0.4,2.3,0.4s1.5-0.1,2.2-0.4s1.3-0.7,1.9-1.3c0.6-0.6,1-1.2,1.3-1.9C251.2-3.8,251.4-4.6,251.4-5.4
				L251.4-5.4z M254.1-5.4c0,1.1-0.2,2.2-0.6,3.2c-0.4,1-1,1.9-1.9,2.7c-0.8,0.8-1.8,1.4-2.8,1.8s-2.1,0.6-3.3,0.6s-2.3-0.2-3.3-0.6
				s-2-1-2.8-1.8s-1.4-1.7-1.9-2.7c-0.4-1-0.6-2.1-0.6-3.2s0.2-2.2,0.6-3.2c0.4-1,1-1.9,1.9-2.7c0.8-0.8,1.7-1.4,2.8-1.8
				c1-0.4,2.1-0.6,3.3-0.6s2.2,0.2,3.3,0.6c1,0.4,2,1,2.8,1.8s1.4,1.7,1.9,2.7C253.9-7.6,254.1-6.5,254.1-5.4L254.1-5.4z M268.3-6.6
				h0.5c1.4,0,2.3-0.2,2.7-0.5c0.5-0.3,0.7-0.9,0.7-1.7c0-0.9-0.2-1.5-0.7-1.9s-1.4-0.5-2.7-0.5h-0.5V-6.6z M268.1-4.6v7.1h-2.4
				v-15.9h3.6c1.1,0,1.9,0.1,2.5,0.2c0.6,0.1,1.1,0.4,1.5,0.7c0.5,0.4,0.9,0.9,1.2,1.5c0.3,0.6,0.4,1.3,0.4,2c0,1.3-0.3,2.3-0.9,3
				s-1.5,1.2-2.7,1.3l5.5,7.3h-2.9l-5.3-7.1h-0.5V-4.6z M301.4-3.7h4.5l-1.6-3.6c-0.1-0.2-0.2-0.5-0.3-0.8c-0.1-0.3-0.2-0.6-0.3-1
				c-0.1,0.3-0.2,0.7-0.3,1c-0.1,0.3-0.2,0.6-0.3,0.8L301.4-3.7z M308.6,2.6l-1.8-4.1h-6.4l-1.9,4.1h-2.7l7.8-16.6l7.8,16.6
				C311.4,2.6,308.6,2.6,308.6,2.6z M321.4,2.6v-15.9h2.6V0.3h5.8v2.3H321.4z M340.6,2.6v-15.9h2.6V0.3h5.8v2.3H340.6z"/>
		</g>
	</g>
</g>
<path class="st1" d="M101.9,63.3h2c4.6,0,8.4,3.9,8.4,8.7v11.1c0,4.8-3.8,8.7-8.4,8.7h-2c-4.6,0-8.4-3.9-8.4-8.7V72
	C93.5,67.2,97.3,63.3,101.9,63.3L101.9,63.3z"/>
<path class="st1" d="M305.8,68.1v25.8h-4.3c-8,0-13.5-5.5-13.5-13.6C288.8,70.8,295,67,305.8,68.1L305.8,68.1z"/>
</svg>
