<?xml version="1.0" encoding="utf-8"?>
<!-- Generator: Adobe Illustrator 21.0.0, SVG Export Plug-In . SVG Version: 6.00 Build 0)  -->
<svg version="1.1" id="Layer_1" xmlns="http://www.w3.org/2000/svg" xmlns:xlink="http://www.w3.org/1999/xlink" x="0px" y="0px"
	 viewBox="0 0 400 170" style="enable-background:new 0 0 400 170;" xml:space="preserve">
<style type="text/css">
	.st0{fill:#495057;}
	.st1{fill:#FFFFFF;}
</style>
<title>JunkMail</title>
<desc>Created with Sketch.</desc>
<g id="Page-1">
	<g id="JunkMail">
		<g id="Group-23" transform="translate(24.000000, 143.000000)">
			<path id="Fill-28" class="st0" d="M312-38c0-0.6,0,0.3,0-0.3c0-4.8,0-9.6,0-14.4V-82h16v29.3c0,4.8,0,9.6,0,14.4
				c0,0.6,0-0.3,0,0.3C328-38,312-38,312-38z"/>
			<polygon id="Fill-29" class="st0" points="312,-87 312,-100 327,-100 327,-87 			"/>
			<polygon id="Fill-30" class="st0" points="335,-38 335,-112 351,-112 351,-38 			"/>
			<path id="Fill-31" class="st0" d="M266.1-42.9L266.1-42.9c-4.4-4.9-5.3-11.6-5-18c0.9-12.6,10.1-20.7,22.3-21.8
				c6.8-0.1,13.7-0.2,20.5-0.4l0.2,45h-28.9C271.7-38.8,268.5-40.3,266.1-42.9L266.1-42.9z M290.7-71v22.6H287
				c-6.9,0-11.7-4.9-11.7-11.9C275.9-68.7,281.4-72,290.7-71L290.7-71z"/>
			<path id="Fill-32" class="st0" d="M189-38c0-0.2,0-0.5,0-0.7c0-10.5,0-21,0-31.6v-17.1l0.2-21.5c0-1,0-2.1,0-3.1H207
				c0.5,0.7,1,1.4,1.6,2.1c4.5,6,8.7,11.7,13.2,17.7c0.1,0.2,0.6,0.7,0.8,0.9c5.1-6.9,10.3-13.8,15.4-20.6h18c0,1,0,2,0,3
				c0,8.3,0,16.6,0,24.9v46h-16.7h-2.4l-0.3-44.4c-4.7,6.2-9.4,12.5-14.1,18.7L208-82.2l0.1,44.3L189-38z"/>
			<path id="Fill-33" class="st0" d="M139.9-113h17.3v43.8L166-84l17,0.2L170.9-64L184-40h-17.3l-11.2-18.4l0.2,18.4h-15.8V-113z
				 M91.4-83.4h23.8c7.2,0,12.3,1.3,15.2,3.8s4.3,7,4.3,13.4v26.4H117v-29.7h-9.2v29.7H91.4V-83.4z M85.2-39.9H61.7
				c-7.3,0-11.8-1.5-14.6-4s-4.2-6.8-4.2-13.2v-26.7l17.3,0.1v30h9v-30.1h16V-39.9z M16.5-42v-47.8H0.2l-0.1-22.4h37.6V-42
				c0,17.9-1.8,21-7,27.9C25.7-7.5,12.5-1.5,0.5,2L0-16.4c6.4-3,10.3-6,12.8-9.8C15.3-30.1,16.5-35.3,16.5-42L16.5-42z"/>
			<path id="Fill-34" class="st0" d="M45.8-7.4v-6.5L41-21.7h3.6l2.1,3.9c0.1,0.2,0.2,0.4,0.3,0.7c0.1,0.3,0.2,0.6,0.3,1
				c0.1-0.3,0.2-0.6,0.3-0.9s0.2-0.6,0.4-0.9l2.1-3.9h3.6L48.9-14v6.5L45.8-7.4L45.8-7.4z M70.6-14.5c0,1-0.2,2-0.6,2.9
				s-0.9,1.7-1.6,2.4s-1.6,1.3-2.5,1.6C65-7.2,64-7,63-7c-0.9,0-1.7-0.1-2.6-0.4s-1.6-0.7-2.3-1.3c-0.9-0.7-1.6-1.6-2.1-2.6
				s-0.7-2.1-0.7-3.2c0-1,0.2-2,0.6-2.9c0.4-0.9,0.9-1.7,1.7-2.4c0.7-0.7,1.5-1.2,2.5-1.6C61-21.8,62-22,63-22s2,0.2,2.9,0.6
				s1.8,0.9,2.5,1.6s1.3,1.5,1.7,2.4C70.5-16.5,70.6-15.5,70.6-14.5L70.6-14.5z M63-9.7c1.3,0,2.4-0.5,3.2-1.4
				c0.8-0.9,1.3-2,1.3-3.4s-0.4-2.5-1.3-3.4s-1.9-1.4-3.2-1.4s-2.4,0.5-3.2,1.4c-0.9,0.9-1.3,2.1-1.3,3.4c0,1.4,0.4,2.5,1.3,3.4
				C60.6-10.2,61.7-9.7,63-9.7L63-9.7z M87.2-21.7v8.9c0,1.9-0.5,3.4-1.5,4.3c-1,1-2.6,1.4-4.6,1.4c-2.1,0-3.6-0.5-4.7-1.4
				c-1-1-1.5-2.4-1.5-4.3v-8.9h3v8.4c0,1.2,0.3,2.1,0.8,2.7C79.2-10,80-9.7,81-9.7s1.8-0.3,2.4-0.9c0.5-0.6,0.8-1.5,0.8-2.7v-8.4
				C84.2-21.7,87.2-21.7,87.2-21.7z M102.4-7.4h-3.5l-3.8-6.7v6.7H92v-14.3h4.4c1.7,0,3,0.3,3.9,1s1.3,1.7,1.3,3
				c0,1-0.3,1.8-0.9,2.5s-1.4,1.1-2.3,1.2L102.4-7.4z M95.1-15.6h0.5c1.2,0,2.1-0.1,2.5-0.4s0.6-0.7,0.6-1.4c0-0.7-0.2-1.2-0.6-1.5
				s-1.2-0.4-2.4-0.4h-0.5L95.1-15.6L95.1-15.6z M112-7.4v-14.3h3.1v6.5l4.8-6.5h3.5l-5.1,6.5l5.3,7.8h-3.7l-4.8-7.5v7.5
				C115.1-7.4,112-7.4,112-7.4z M126.7-7.4v-14.3h3.1v14.3C129.8-7.4,126.7-7.4,126.7-7.4z M134.7-7.4v-14.3h3.2l6.3,8.3
				c0.2,0.2,0.4,0.6,0.6,1c0.2,0.4,0.4,0.9,0.7,1.5c-0.1-0.4-0.1-0.8-0.2-1.3c0-0.4-0.1-0.9-0.1-1.6v-8h2.9v14.3h-3l-6.5-8.5
				c-0.2-0.2-0.4-0.6-0.6-1c-0.2-0.4-0.4-0.9-0.7-1.5c0.1,0.4,0.1,0.8,0.2,1.2c0,0.4,0.1,0.9,0.1,1.6v8.2L134.7-7.4L134.7-7.4z
				 M160.2-14.9h6.5c0,0.1,0,0.2,0,0.3s0,0.2,0,0.4c0,2.1-0.6,3.9-1.8,5.2s-2.8,2-4.7,2c-2.2,0-4.1-0.7-5.5-2.1s-2.2-3.2-2.2-5.4
				s0.7-3.9,2.2-5.4c1.4-1.4,3.3-2.1,5.5-2.1c1.2,0,2.2,0.2,3.2,0.7s1.8,1.2,2.6,2.2l-2.1,1.5c-0.5-0.6-1.1-1.1-1.6-1.4
				c-0.6-0.3-1.2-0.4-2-0.4c-1.4,0-2.5,0.4-3.4,1.3c-0.8,0.9-1.3,2.1-1.3,3.5s0.4,2.6,1.3,3.5c0.9,0.9,2,1.3,3.3,1.3
				c1,0,1.8-0.2,2.4-0.7c0.6-0.5,0.9-1.1,0.9-1.8v-0.2h-3.4v-2.4H160.2z M191.7-14.5c0,1-0.2,2-0.6,2.9c-0.4,0.9-0.9,1.7-1.6,2.4
				c-0.7,0.7-1.6,1.3-2.5,1.6c-1,0.4-2,0.6-3,0.6c-0.9,0-1.7-0.1-2.6-0.4c-0.8-0.3-1.6-0.7-2.3-1.3c-0.9-0.7-1.6-1.6-2.1-2.6
				s-0.7-2.1-0.7-3.2c0-1,0.2-2,0.6-2.9c0.4-0.9,0.9-1.7,1.7-2.4c0.7-0.7,1.5-1.2,2.5-1.6S183-22,184-22s2,0.2,2.9,0.6
				s1.8,0.9,2.5,1.6s1.3,1.5,1.7,2.4C191.5-16.5,191.7-15.5,191.7-14.5L191.7-14.5z M184-9.7c1.3,0,2.4-0.5,3.2-1.4s1.3-2,1.3-3.4
				s-0.4-2.5-1.3-3.4c-0.9-0.9-1.9-1.4-3.2-1.4s-2.4,0.5-3.2,1.4c-0.9,0.9-1.3,2.1-1.3,3.4c0,1.4,0.4,2.5,1.3,3.4
				C181.6-10.2,182.7-9.7,184-9.7L184-9.7z M195.9-7.4v-14.3h8.4v2.6H199v2.9h5.4v2.6H199v6.2C199-7.4,195.9-7.4,195.9-7.4z
				 M226.1-17.9c-0.6-0.6-1.3-1-1.9-1.2c-0.7-0.3-1.3-0.4-2.1-0.4c-1.5,0-2.7,0.5-3.6,1.4c-0.9,0.9-1.4,2.1-1.4,3.7
				c0,1.5,0.4,2.7,1.3,3.6c0.8,0.9,2,1.3,3.4,1.3c0.8,0,1.6-0.1,2.3-0.4c0.7-0.3,1.4-0.7,2-1.2V-8c-0.7,0.4-1.3,0.7-2,0.9
				c-0.7,0.2-1.5,0.3-2.3,0.3c-2.3,0-4.2-0.7-5.6-2.1c-1.5-1.4-2.2-3.2-2.2-5.4s0.7-4,2.2-5.4s3.4-2.1,5.7-2.1
				c0.8,0,1.5,0.1,2.2,0.2c0.7,0.2,1.4,0.4,2.1,0.8L226.1-17.9z M230.6-7.4v-14.3h3.1V-10h4.9v2.6H230.6z M249.5-12.8l-1.6-4.6
				c0-0.1-0.1-0.4-0.2-0.7c-0.1-0.3-0.1-0.7-0.2-1.2c-0.1,0.5-0.2,0.9-0.2,1.2c-0.1,0.4-0.1,0.6-0.2,0.7l-1.5,4.6
				C245.6-12.8,249.5-12.8,249.5-12.8z M240.4-7.4l5.4-14.3h3.5l5.5,14.3h-3.5l-1.2-3h-5.5l-1,3C243.6-7.4,240.4-7.4,240.4-7.4z
				 M257.2-9.2l1.7-1.9c0.2,0.5,0.6,0.9,1,1.2c0.5,0.3,1,0.5,1.6,0.5c0.7,0,1.3-0.2,1.7-0.5c0.4-0.3,0.6-0.8,0.6-1.4
				c0-0.7-0.7-1.3-2.1-2c-0.5-0.2-0.8-0.4-1.1-0.5c-1.3-0.6-2.1-1.3-2.6-1.9c-0.5-0.6-0.7-1.4-0.7-2.2c0-1.2,0.5-2.1,1.4-2.9
				s2.1-1.1,3.6-1.1c0.9,0,1.6,0.1,2.2,0.5c0.6,0.3,1.2,0.8,1.7,1.4l-1.8,1.7c-0.2-0.4-0.5-0.7-0.9-0.9c-0.4-0.2-0.8-0.3-1.3-0.3
				c-0.6,0-1.1,0.1-1.5,0.5c-0.4,0.3-0.6,0.7-0.6,1.2c0,0.8,0.7,1.4,2.2,2.1c0.3,0.1,0.5,0.2,0.7,0.3c1.2,0.6,2.1,1.2,2.7,1.9
				s0.9,1.5,0.9,2.4c0,1.3-0.5,2.4-1.4,3.2s-2.1,1.2-3.7,1.2c-1.1,0-2-0.2-2.8-0.6C258.1-7.9,257.5-8.5,257.2-9.2L257.2-9.2z
				 M270-9.2l1.7-1.9c0.2,0.5,0.6,0.9,1,1.2c0.5,0.3,1,0.5,1.6,0.5c0.7,0,1.3-0.2,1.7-0.5c0.4-0.3,0.6-0.8,0.6-1.4
				c0-0.7-0.7-1.3-2.1-2c-0.5-0.2-0.8-0.4-1.1-0.5c-1.3-0.6-2.1-1.3-2.6-1.9c-0.5-0.6-0.7-1.4-0.7-2.2c0-1.2,0.5-2.1,1.4-2.9
				s2.1-1.1,3.6-1.1c0.9,0,1.6,0.1,2.2,0.5c0.6,0.3,1.2,0.8,1.7,1.4l-1.8,1.7c-0.2-0.4-0.5-0.7-0.9-0.9c-0.4-0.2-0.8-0.3-1.3-0.3
				c-0.6,0-1.1,0.1-1.5,0.5c-0.4,0.3-0.6,0.7-0.6,1.2c0,0.8,0.7,1.4,2.2,2.1c0.3,0.1,0.5,0.2,0.7,0.3c1.2,0.6,2.1,1.2,2.7,1.9
				s0.9,1.5,0.9,2.4c0,1.3-0.5,2.4-1.4,3.2s-2.1,1.2-3.7,1.2c-1.1,0-2-0.2-2.8-0.6C271-7.9,270.4-8.5,270-9.2L270-9.2z M283.9-7.4
				v-14.3h3.1v14.3C287-7.4,283.9-7.4,283.9-7.4z M291.9-7.4v-14.3h8.4v2.6H295v2.9h5.4v2.6H295v6.2C295-7.4,291.9-7.4,291.9-7.4z
				 M304.4-7.4v-14.3h3.1v14.3C307.5-7.4,304.4-7.4,304.4-7.4z M312.4-7.4v-14.3h8.4v2.6h-5.4v2.9h5.4v2.6h-5.4v3.6h5.4v2.6H312.4z
				 M328.6-10h1.7c1.6,0,2.8-0.4,3.5-1.1c0.7-0.7,1.1-1.9,1.1-3.5s-0.4-2.7-1.1-3.5c-0.7-0.7-1.9-1.1-3.5-1.1h-1.7V-10z M325.5-7.4
				v-14.3h3.9c1.5,0,2.7,0.1,3.6,0.3c0.9,0.2,1.7,0.6,2.3,1.1c0.9,0.6,1.5,1.5,2,2.4c0.4,1,0.7,2.1,0.7,3.3c0,1.3-0.2,2.4-0.7,3.4
				s-1.1,1.8-2,2.4c-0.7,0.5-1.4,0.8-2.2,1c-0.8,0.2-2,0.3-3.5,0.3h-1.1h-3V-7.4z M341.4-9.2l1.7-1.9c0.2,0.5,0.6,0.9,1,1.2
				c0.5,0.3,1,0.5,1.6,0.5c0.7,0,1.3-0.2,1.7-0.5c0.4-0.3,0.6-0.8,0.6-1.4c0-0.7-0.7-1.3-2.1-2c-0.4-0.2-0.8-0.4-1.1-0.5
				c-1.3-0.6-2.1-1.3-2.6-1.9c-0.5-0.6-0.7-1.4-0.7-2.2c0-1.2,0.5-2.1,1.4-2.9s2.1-1.1,3.6-1.1c0.9,0,1.6,0.1,2.2,0.5
				c0.6,0.3,1.2,0.8,1.7,1.4l-1.8,1.7c-0.2-0.4-0.5-0.7-0.9-0.9c-0.4-0.2-0.8-0.3-1.3-0.3c-0.6,0-1.1,0.1-1.5,0.5
				c-0.4,0.3-0.6,0.7-0.6,1.2c0,0.8,0.7,1.4,2.2,2.1c0.3,0.1,0.5,0.2,0.7,0.3c1.2,0.6,2.1,1.2,2.7,1.9s0.9,1.5,0.9,2.4
				c0,1.3-0.5,2.4-1.4,3.2s-2.1,1.2-3.7,1.2c-1.1,0-2-0.2-2.8-0.6C342.3-7.9,341.8-8.5,341.4-9.2L341.4-9.2z"/>
		</g>
	</g>
</g>
<path class="st1" d="M315.7,72v22.6H312c-6.9,0-11.7-4.9-11.7-11.9C300.9,74.3,306.4,71,315.7,72L315.7,72z"/>
</svg>
