<?xml version="1.0" encoding="utf-8"?>
<!-- Generator: Adobe Illustrator 21.0.0, SVG Export Plug-In . SVG Version: 6.00 Build 0)  -->
<svg version="1.1" id="Layer_1" xmlns="http://www.w3.org/2000/svg" xmlns:xlink="http://www.w3.org/1999/xlink" x="0px" y="0px"
	 viewBox="0 0 400 116" style="enable-background:new 0 0 400 116;" xml:space="preserve">
<style type="text/css">
	.st0{fill:#FFFFFF;}
</style>
<title>Mascus</title>
<desc>Created with Sketch.</desc>
<g id="Page-1">
	<g id="Mascus">
		<g id="mascus" transform="translate(27.000000, 176.000000)">
			<path id="Shape" class="st0" d="M135.7-116.1l5.2-11.8h-5c-3,0-5.7,1.6-7.5,5.5l-2.8,6.3H135.7L135.7-116.1L135.7-116.1z
				 M118.7-134.1c4.5-3.9,11.3-6.9,17.4-6.9h27.6l-20.5,46.7H126l5.8-13.1h-10.1L116-94.3H98.8l11.3-25.9
				C112.7-126,114-130.2,118.7-134.1L118.7-134.1z"/>
			<polygon id="Shape_1_" class="st0" points="0,-93 18.9,-93 24.7,-107.3 5.7,-107.3 			"/>
			<path id="Shape_2_" class="st0" d="M106.2-134c-1.2-4-4.9-7-13-7H45.4L26-94.3h17.2l14.5-34.8h3c4.8,0,4.2,1.6,2.6,5.5L51-94.3
				h16.3l14.5-34.8h3c4.9,0,4.2,1.6,2.6,5.5L75.1-94.3h17.3l10.6-25.6C105.9-127,107.5-130.1,106.2-134L106.2-134z M161.8-126.5
				c-3.7,8.9,1.3,14.7,10.2,14.7h7.3c2.1,0,2.7,0.9,2.3,2l-0.2,0.4c-0.5,1.1-1.6,2-4.6,2h-21.6l-5.5,13.1h24.4
				c11.4,0,21-7.1,23.6-13.4l1.3-3.2c2.6-6.2,0.3-14-10.3-14h-8.4c-1.1,0-2.1-0.8-1.6-2c0.6-1.4,1.9-2.2,3.4-2.2H203l5-12h-23.3
				C175.7-141,165.6-135.7,161.8-126.5z M222.4-116.5l1.4-3.4c1.1-2.6,3.1-6.3,4.3-7.4c1.3-1.3,2.2-1.8,4.5-1.8h14.3l4.9-11.9h-18.7
				c-6.3,0-12.5,3.3-16.8,7.1c-4.2,3.5-7,7.5-10.2,15l-1.2,2.9c-3.1,7.5-3.4,11.4-2.4,15c1.1,4.1,5,6.7,11.1,6.7h18.7l5.5-13.1
				h-14.5c-2.2,0-2.5-1.1-2.6-1.8C220.3-111,221.3-114,222.4-116.5L222.4-116.5z M243-101.2c1.1,3.9,5.4,7,11.5,7h27.6l19.4-46.7
				h-17.2l-13.9,33.6h-5c-3,0-4.4-1.6-2.7-5.6l11.6-28H257l-10.7,25.7C243.9-109.4,241.6-105.1,243-101.2L243-101.2z M300.7-126.5
				c-3.7,8.9,1.3,14.7,10.2,14.7h7.3c2.1,0,2.7,0.9,2.3,2l-0.2,0.4c-0.5,1.1-1.6,2-4.6,2h-21.6l-5.5,13.1H313
				c11.4,0,21-7.1,23.6-13.4l1.3-3.2c2.6-6.2,0.3-14-10.3-14h-8.4c-1.1,0-2.1-0.8-1.6-2c0.6-1.4,1.9-2.2,3.4-2.2h21l5-12h-23.3
				C314.6-141,304.5-135.7,300.7-126.5L300.7-126.5z"/>
		</g>
	</g>
</g>
</svg>
