<?xml version="1.0" encoding="utf-8"?>
<!-- Generator: Adobe Illustrator 21.0.0, SVG Export Plug-In . SVG Version: 6.00 Build 0)  -->
<svg version="1.1" id="Layer_1" xmlns="http://www.w3.org/2000/svg" xmlns:xlink="http://www.w3.org/1999/xlink" x="0px" y="0px"
	 viewBox="0 0 400 400" style="enable-background:new 0 0 400 400;" xml:space="preserve">
<style type="text/css">
	.st0{fill:#495057;}
</style>
<title>OLX</title>
<desc>Created with Sketch.</desc>
<g id="Page-1_1_">
	<g id="OLX">
		<g id="Page-1" transform="translate(33.000000, 33.000000)">
			<path id="Fill-1" class="st0" d="M165,5.4C78.8,6.1,5.4,76.7,5.3,167.5c-0.1,89.7,72.1,160.5,158.4,162.2
				c89.5,1.8,163.7-69.9,165.1-159.6C330.1,77.6,254.6,4,165,5.4 M334,167.5c0.2,90.8-72.3,164.9-162.1,167.4
				c-94,2.6-169.4-72.1-171.8-162.6C-2.5,78.2,71.9,2.5,162.2,0.1C257.1-2.5,334.3,74.2,334,167.5"/>
			<path id="Fill-4" class="st0" d="M250.9,140.1c2.9-3.4,5.7-6.5,8.4-9.6c6.6-7.6,13.1-15.2,19.8-22.7c3.5-3.9,7.9-6,13.3-5.7
				c5.3,0.3,8.1,4.6,6.1,10.1c-0.8,2.4-2.3,4.5-3.7,6.6c-9.4,13.9-18.8,27.8-28.3,41.7c-0.8,1.2-0.7,2,0.1,3.2
				c13.2,19.7,26.3,39.4,39.4,59.1c0.9,1.3,1.7,2.9,1.9,4.4c0.7,4.1-1.1,7.3-5.1,8.5c-7.3,2.2-14.7,4.3-22.1,6.1
				c-5.4,1.2-11.3-2.4-14-7.5c-7.2-13.3-14.4-26.6-21.7-39.9c-0.1-0.3-0.3-0.5-0.7-0.9c-0.5,0.6-0.9,1.1-1.2,1.6
				c-8.5,12.6-17.1,25.2-25.6,37.8c-1.4,2.1-3,3.9-5.6,4.3c-3.2,0.5-5.5-1.1-7.2-3.7c-2.9-4.5-5.8-9-8.6-13.6
				c-3.3-5.5-2.5-13.7,1.9-18.6c10.2-11.7,20.5-23.3,30.8-34.9c0.9-1,1.2-1.8,0.5-3.2c-6.2-12.5-12.3-25-18.5-37.4
				c-0.9-1.9-1.8-3.7-2.7-5.6c-3.8-7.8,1.1-15.8,9.8-15.9c6.1,0,10.9,2.5,14.3,7.6c5.7,8.7,11.5,17.3,17.3,26
				C249.8,138.5,250.3,139.1,250.9,140.1"/>
			<path id="Fill-6" class="st0" d="M42.6,170.5c0.7,5.3,1.1,10.6,2.1,15.8c1.6,8.1,4.8,15.7,10.5,21.9c7.7,8.3,17.8,8.5,25.8,0.5
				c3.4-3.4,5.9-7.4,7.7-11.7c5.7-13.7,6.5-27.8,3.4-42.1c-1.8-8.2-4.8-15.8-10.7-22c-7.5-8-17.1-8.4-25.1-0.9
				c-2.3,2.1-4.3,4.8-5.8,7.5C45,149,43.1,159.5,42.6,170.5 M123,168.3c-0.3,20.5-5.6,36.9-18.3,50.3
				c-10.7,11.4-23.9,17.5-39.8,16.2c-18-1.5-30.9-11.2-40.3-26.1c-8.5-13.5-11.6-28.4-10.4-44.3c1.2-15.7,6.6-29.7,17.3-41.4
				c8.7-9.6,19.5-15.7,32.6-16.9c14.3-1.3,26.7,3.3,37.3,12.9c11.2,10.1,17.6,22.9,20.2,37.6C122.5,161.3,122.7,165.9,123,168.3"/>
			<path id="Fill-8" class="st0" d="M159.3,113.3c0,14.7,0,29.3,0,44c0,4.6,2.8,7.7,7.4,8.2c3,0.3,6.1,0.3,9.1,0.4
				c4.7,0.1,9.5,0,14.2,0c1.4,0,2.8,0.2,4.2,0.5c3,0.6,4.7,2.3,4.8,5.6c0.1,5.6-0.1,11.3-0.7,16.9c-0.5,4.6-2.5,5.9-7.2,5.9
				c-8.8,0-17.6,0-26.5,0.1c-6.8,0-13.6,0.4-20.4,0.3c-7.2-0.1-14-4.9-13.9-13.7c0.1-9.4-0.2-18.8-0.4-28.3
				c-0.1-6.8-0.2-13.6-0.4-20.4c-0.1-7.2-0.2-14.3-0.4-21.5c-0.1-4.9-0.3-9.8-0.3-14.8c0-4.9,3.4-8.2,8.3-8.3c4.5-0.1,9,0,13.5,0
				c3.9,0,6.6,2.1,7.4,6c0.4,1.7,0.6,3.5,0.7,5.2c0.1,4.7,0,9.4,0,14.1C159.1,113.3,159.2,113.3,159.3,113.3"/>
		</g>
	</g>
</g>
</svg>
