<?xml version="1.0" encoding="utf-8"?>
<!-- Generator: Adobe Illustrator 21.0.0, SVG Export Plug-In . SVG Version: 6.00 Build 0)  -->
<svg version="1.1" id="Layer_1" xmlns="http://www.w3.org/2000/svg" xmlns:xlink="http://www.w3.org/1999/xlink" x="0px" y="0px"
	 viewBox="0 0 400 156" style="enable-background:new 0 0 400 156;" xml:space="preserve">
<style type="text/css">
	.st0{fill:#FFFFFF;}
</style>
<title>Private Property</title>
<desc>Created with Sketch.</desc>
<g id="Page-1_1_">
	<g id="Private-Property">
		<g id="Page-1" transform="translate(21.000000, 140.000000)">
			<path id="Fill-1" class="st0" d="M97.7-37.6c-2.8-1.9-5.6-3.8-8.5-5.8c8.3-11.3,11.2-23.7,8-37.3C95-90.1,90.1-98,82.7-104.2
				c-14.9-12.5-36.3-13.8-52.3-3.2c-16.6,11-23.9,31.2-18,49.9C15.9-46.3,22.9-37.7,33.1-32s21.1,6.9,32.7,4.1
				c0.3,3.4,0.7,6.6,0.9,9.7c0,0.3-0.7,0.8-1.1,0.9c-4.9,1.1-10,1.4-15,1.1C26.1-17.6,5.2-36.4,0.9-60.7
				c-4.8-27.1,11-53.4,37.2-61.7c26-8.3,54.8,4.3,65.8,29.3c8.4,18.8,6.4,37-5,54.1C98.5-38.6,98.1-38.1,97.7-37.6"/>
			<path id="Fill-3" class="st0" d="M79.8-51.7c-5.9-3.9-11.6-7.7-17.2-11.4c-0.1,0.1-0.3,0.1-0.4,0.2c0.5,4.9,1,9.8,1.5,14.8
				C63-48.1,62.5-48,62-48c-10.1,0-20.2,0-30.3,0c-1.3,0-1.7-0.4-1.7-1.7c0.1-7.5,0-15,0-22.5c0-1,0.3-1.6,1.1-2.2
				c7.6-5,15.1-10.1,22.7-15.2c0.9-0.6,1.5-0.6,2.4,0c7.6,5.1,15.2,10.2,22.7,15.3c0.5,0.3,1,1.1,1,1.7c0.1,6.6,0,13.1,0,19.7
				C80-52.6,79.9-52.3,79.8-51.7"/>
			<path id="Fill-5" class="st0" d="M73-10.5c-1.4-13.6-2.7-26.8-4-40.5c11.1,7.7,21.9,15.2,33,22.8c-2.5,0.9-4.8,1.7-7,2.5
				c-1,0.4-2,0.7-3,1c-1.1,0.3-1.4,0.7-0.7,1.8c2.7,4.4,5.3,9,8,13.4c0.6,0.9,0.5,1.4-0.5,1.9c-2.5,1.4-4.9,2.9-7.4,4.5
				C88.3-8.4,85.2-13.5,82-19C79-16.1,76.1-13.4,73-10.5"/>
			<path id="Fill-7" class="st0" d="M139.7-86c-5.1,0-8.6-3.9-8.6-9.3c0-5.2,3.6-8.9,8.7-8.9c5.1,0,8.7,3.7,8.7,9.1
				C148.5-89.9,144.8-86,139.7-86 M154.9-101.5c-3.4-9.4-14.5-12.5-22.3-6.2c-0.3,0.2-0.6,0.4-1.1,0.7c0-0.7-0.1-1.2-0.1-1.6
				c0.2-1.3-0.3-1.8-1.7-1.7c-1.4,0.1-2.8,0.1-4.2,0c-1.3-0.1-1.6,0.4-1.6,1.6c0.1,4.8,0,9.7,0,14.5c0,7.9,0,15.8,0,23.7
				c0,0.5,0.3,1.3,0.5,1.4c2.2,0.1,4.5,0.1,6.9,0.1v-14.3c0.7,0.5,1.1,0.8,1.5,1.1c4.5,3.6,11,3.9,15.7,0.7
				C155.2-85.9,157.6-93.8,154.9-101.5"/>
			<path id="Fill-9" class="st0" d="M139.8-34c-5.1,0-8.7-3.8-8.7-9.1s3.6-9.2,8.7-9.2c5.1,0,8.8,3.8,8.7,9.1
				C148.5-37.8,144.9-34,139.8-34 M154.6-49.9c-4.1-9.9-15.5-11.5-22-5.7c-0.3,0.2-0.6,0.4-1.1,0.7c0-0.7-0.1-1.2-0.1-1.7
				c0.1-1.1-0.3-1.5-1.5-1.5c-1.4,0.1-2.8,0.1-4.2,0c-1.4-0.1-1.8,0.4-1.8,1.7c0.1,12.7,0,25.5,0,38.2c0,0.4,0.1,0.8,0.1,1.2h7.3
				v-14.4c0.8,0.6,1.3,0.9,1.7,1.3c5,3.7,11.3,3.7,16.4,0.1C156.1-34.8,157.4-43.3,154.6-49.9"/>
			<path id="Fill-11" class="st0" d="M239.7-39.2c-1.5,3.7-5.1,5.6-9.4,5.1c-4.3-0.5-7.4-4.5-7.3-10.5c0-2.3,1.4-5.2,4.7-6.8
				c3.1-1.5,6.3-1.3,9.2,0.7C240.3-48.3,241.5-43.4,239.7-39.2 M245-53c-4.7-6.4-13-7.9-19.5-3.4c-0.6,0.4-1.2,0.9-2,1.5
				c0-0.8-0.1-1.3-0.1-1.8c0.1-1.1-0.3-1.5-1.5-1.5c-1.4,0.1-2.9,0.1-4.4,0c-1.3-0.1-1.7,0.3-1.7,1.6c0,12.7,0,25.3,0,38
				c0,0.5,0.1,1,0.1,1.6c2,0,3.8-0.1,5.6,0c1.3,0.1,1.8-0.3,1.7-1.6c-0.1-3.8,0-7.5,0-11.3c0-0.4,0.1-0.8,0.1-1.4
				c0.5,0.3,0.8,0.5,1,0.7c5.4,4.7,13.8,4.1,19-1.3C248.8-37.4,249.5-46.9,245-53"/>
			<path id="Fill-13" class="st0" d="M249.8-94.5c-0.2,3.6-1.6,6.4-5,7.9c-3.2,1.4-6.4,1.2-9.1-1.1c-0.1-0.1-0.2-0.1-0.2-0.2
				c-0.1-0.1-0.1-0.1-0.2-0.2c-0.1-0.1-0.1-0.1-0.2-0.2c-0.1-0.1-0.1-0.1-0.2-0.2c-0.1-0.1-0.2-0.2-0.2-0.3
				c-0.1-0.1-0.2-0.2-0.2-0.3c0,0,0,0-0.1-0.1s-0.1-0.2-0.2-0.3c-0.1-0.1-0.1-0.2-0.2-0.3l0,0c-0.1-0.1-0.1-0.2-0.2-0.3
				c-0.1-0.2-0.3-0.4-0.4-0.6c0-0.1-0.1-0.2-0.1-0.3c0-0.1-0.1-0.1-0.1-0.2s-0.1-0.1-0.1-0.2c-0.1-0.1-0.1-0.3-0.1-0.4
				s-0.1-0.3-0.1-0.4s-0.1-0.3-0.1-0.4s-0.1-0.2-0.1-0.4c0,0,0,0,0-0.1s0-0.2,0-0.2c0-0.3-0.1-0.5-0.1-0.8c0-0.1,0-0.2,0-0.2
				c0-0.3,0-0.6,0-1v0.3v-0.1c0-0.2,0-0.3,0-0.5l0,0l0,0l0,0c0-0.1,0-0.2,0-0.4v-0.1c0-0.1,0-0.1,0-0.2s0-0.2,0-0.2
				c0-0.1,0-0.2,0-0.3c0-0.1,0-0.2,0-0.3v-0.1c0-0.1,0-0.2,0.1-0.3c0-0.1,0-0.2,0.1-0.2l0,0c0-0.1,0.1-0.2,0.1-0.3
				c0-0.1,0.1-0.3,0.1-0.4s0.1-0.3,0.1-0.4s0.1-0.2,0.1-0.3v-0.1c0.1-0.1,0.1-0.2,0.2-0.3c0-0.1,0.1-0.1,0.1-0.2
				c0.1-0.1,0.1-0.2,0.2-0.4c0.1-0.1,0.1-0.2,0.2-0.3c0.1-0.1,0.2-0.2,0.2-0.3c0.1-0.1,0.1-0.2,0.2-0.3l0,0l0.1-0.1
				c0.1-0.1,0.3-0.3,0.4-0.4l0.1-0.1c0.1-0.1,0.2-0.2,0.3-0.3c0.2-0.2,0.4-0.4,0.6-0.5c0.2-0.2,0.4-0.3,0.7-0.5
				c0.1-0.1,0.2-0.1,0.2-0.1s0,0,0.1,0c0,0,0.1,0,0.1-0.1c0.1-0.1,0.2-0.1,0.3-0.2c0.1,0,0.1-0.1,0.2-0.1c0,0,0,0,0.1,0
				s0.1-0.1,0.2-0.1l0,0l0,0l0,0c0.1,0,0.2-0.1,0.2-0.1c0.1,0,0.3-0.1,0.4-0.1c0.1,0,0.3-0.1,0.4-0.1c0.1,0,0.2,0,0.3-0.1l0,0h0.2
				c0.3-0.1,0.6-0.1,0.9-0.1c0.1,0,0.2,0,0.3,0l0,0l0,0l0,0l0,0c0.1,0,0.2,0,0.4,0c0.1,0,0.2,0,0.3,0s0.2,0,0.3,0s0.2,0,0.2,0
				c0.1,0,0.1,0,0.2,0c0.1,0,0.2,0,0.3,0s0.2,0,0.3,0c0.3,0,0.5,0.1,0.8,0.2c0.2,0,0.4,0.1,0.5,0.2c0.1,0,0.1,0,0.2,0.1h0.1h0.1
				c0.1,0,0.2,0.1,0.3,0.1c0.2,0.1,0.4,0.2,0.5,0.3C248.8-101.4,250-98.2,249.8-94.5 M257-108.7c0-1.2-0.3-1.6-1.5-1.5
				c-1.2,0.1-2.3,0-3.5,0c-2.3,0-2.3,0-2.4,2.3c0,0.2-0.1,0.4-0.2,1c-0.6-0.5-1-0.8-1.4-1.1c-4.5-3.5-10.5-4-15.3-1.2
				c-9.1,5.2-9.2,18.1-4.4,24.2c5.5,7.1,14.8,7.7,20.3,2.7c0.2-0.2,0.5-0.3,1-0.5c0.1,0.6,0.2,1,0.1,1.4c-0.2,1.4,0.5,1.7,1.7,1.6
				c0.8-0.1,1.5,0,2.3,0c3.4,0,3.4,0,3.4-3.4C257-91.7,257-100.2,257-108.7"/>
			<path id="Fill-15" class="st0" d="M266.1-52.8c4.8-0.3,8.6,2,9.4,6h-16.6C259.1-49.7,262.5-52.5,266.1-52.8L266.1-52.8z
				 M282.9-40.9c1.1-8.3-4.2-16-11.8-17.6c-8.9-1.8-16.9,2.5-19.3,10.5c-2.6,8.6,1.3,17.1,9.1,20c6.9,2.6,16,0.5,18.9-4.5
				c-1.7-1-3.4-2.1-5.2-3c-0.3-0.2-0.9,0-1.2,0.2c-2.7,1.8-5.6,2.3-8.8,1.6c-3.5-0.7-6.3-3.9-6.2-7.2H282.9z"/>
			<path id="Fill-17" class="st0" d="M287.7-98.8c1-4,4.8-6.1,8.8-6c3.8,0.1,7.2,2.6,7.9,6H287.7z M312-94.4
				c-0.2-1.4-0.1-2.8-0.4-4.1c-1.7-8.1-8.2-12.9-16.7-12.4c-6.4,0.3-11.8,4.4-13.9,10.2c-2.3,6.6-0.5,13.8,4.3,17.9
				c4.5,3.9,9.8,4.4,15.3,3.3c3.3-0.6,6-2.2,8.3-5c-1.9-1.1-3.6-2.2-5.4-3.1c-0.3-0.2-0.9,0.1-1.3,0.2c-1.5,0.6-2.8,1.4-4.3,1.7
				c-4.1,0.9-8.3-1-10-4.5c-1.3-2.6-1.1-2.9,1.7-2.9c7,0,13.9,0,20.9,0C311.7-93,312.1-93.3,312-94.4L312-94.4z"/>
			<path id="Fill-19" class="st0" d="M193.9-33.8c-4.9,0-8.5-3.9-8.5-9.2s3.6-9,8.6-9c5.1,0,8.6,3.7,8.6,9S198.9-33.8,193.9-33.8
				 M194.1-59c-8.9-0.1-16.1,7-16.1,15.8c-0.1,9.1,6.8,16.2,15.8,16.2c9,0.1,16.2-6.9,16.2-15.8C210.1-51.7,203-58.9,194.1-59"/>
			<path id="Fill-21" class="st0" d="M20-79.6c0.5-0.4,0.8-0.7,1.2-1c10.7-7.7,21.5-15.3,32.2-23c0.8-0.6,1.4-0.7,2.3-0.1
				C66.4-96,77.2-88.3,88-80.6c0.3,0.2,0.6,0.5,1.1,0.9c-2.7,0.9-5.2,1.8-7.7,2.5c-0.4,0.1-1-0.2-1.4-0.5
				C71.9-83.5,63.8-89.2,55.8-95c-0.9-0.7-1.5-0.6-2.4,0c-8,5.8-16.1,11.6-24.2,17.3c-0.4,0.3-1.1,0.6-1.5,0.5
				C25.1-77.8,22.7-78.7,20-79.6"/>
			<path id="Fill-23" class="st0" d="M359-58c-1.1,2.4-2.1,4.6-3.1,6.8c-5.2,11.3-10.4,22.7-15.5,34c-0.4,0.9-0.8,1.2-1.8,1.2
				c-2-0.1-4.1,0-6.3,0c1.6-3.5,3-6.9,4.7-10.1c1.4-2.4,1.2-4.5,0.1-7c-3.3-7.7-6.4-15.5-9.6-23.3c-0.2-0.5-0.3-1-0.6-1.6
				c2.4,0,4.6-0.1,6.8,0.1c0.4,0,0.9,0.6,1.1,1.1c2.2,5.1,4.3,10.3,6.4,15.4c0.4,0.9,0.7,1.7,1.3,3c0.8-1.6,1.3-2.8,1.9-4
				c2.2-4.8,4.4-9.6,6.5-14.4c0.4-0.9,0.9-1.2,1.8-1.2C354.8-57.9,356.8-58,359-58"/>
			<path id="Fill-25" class="st0" d="M224-109c-3,7-5.8,13.7-8.7,20.4c-1.3,3.1-2.7,6.2-3.9,9.4c-0.3,0.8-0.8,1.2-1.7,1.2
				c-3.6,0-3.6,0-5-3.3c-3.8-8.9-7.5-17.7-11.3-26.6c-0.1-0.3-0.2-0.6-0.4-1.1c2.4,0,4.6,0,6.9,0c0.4,0,0.8,0.6,1,1
				c2.3,5.3,4.6,10.7,6.8,16c0.2,0.4,0.4,0.8,0.8,1.6c1.4-3.2,2.6-6,3.8-8.8c1.2-2.9,2.4-5.8,3.7-8.7c0.2-0.5,0.7-1,1.1-1.1
				C219.3-109,221.5-109,224-109"/>
			<path id="Fill-27" class="st0" d="M308-51.3c0-2-0.1-3.8,0.1-5.5c0-0.3,0.7-0.8,1.2-0.8c3.1-0.2,3.1-0.2,3.1-3.1
				c0-2.3,0-4.6,0-6.9c0-1,0.3-1.5,1.4-1.4c1.6,0.1,3.3,0.1,4.9,0c1.3-0.1,1.6,0.4,1.5,1.5c-0.1,2.8,0,5.6,0,8.5
				c0,1.1,0.4,1.4,1.5,1.4c3.4,0,3.4,0.1,3.4,3.3c0,3,0,3.1-3.1,3c-1.5,0-1.8,0.5-1.8,1.8c0,6.9,0,13.8,0,20.7c0,1.9,0,1.9-2,1.9
				c-1.4,0-2.9-0.1-4.3,0c-1.2,0.1-1.5-0.4-1.5-1.5c0-6.9,0-13.8,0-20.7c0-2.1,0-2.1-2.2-2.1C309.5-51.3,308.9-51.3,308-51.3"/>
			<path id="Fill-29" class="st0" d="M262.2-109.6c0.8,0,1.5,0,2.3,0c1.3,0.1,1.9-0.3,1.8-1.7c-0.1-2.7,0-5.5-0.1-8.2
				c0-1.2,0.3-1.7,1.6-1.6c1.6,0.1,3.2,0.1,4.7,0c1.2-0.1,1.6,0.3,1.6,1.5c-0.1,2.7,0.1,5.5-0.1,8.2c-0.1,1.5,0.6,2,2,1.8
				c0.9-0.1,1.8,0,2.9,0c0,1.9,0,3.7,0,5.5c0,0.3-0.5,0.7-0.9,0.7c-0.8,0.1-1.6,0.1-2.4,0c-1.2-0.1-1.6,0.4-1.6,1.5
				c0,7,0,14,0.1,20.9c0,1.5-0.5,1.9-2,1.8c-1.4-0.1-2.9-0.1-4.3,0s-1.7-0.4-1.7-1.6c0.1-6.9,0-13.8,0-20.7c0-1.9,0-1.9-2.1-1.9
				s-2.1,0-2.1-2c0-1.2,0-2.5,0-3.7C262-109.1,262.1-109.2,262.2-109.6"/>
			<path id="Fill-31" class="st0" d="M167.6-54.8c0.3-0.4,0.5-0.7,0.8-1.1c1.3-1.9,3-2.9,5.2-3.1c1-0.1,1.6,0.2,1.4,1.3
				c0,0.3,0,0.6,0,0.9c0.3,2.4,0,4.1-2.7,5.2c-2.9,1.3-4,4.3-4,7.6c0,4.8-0.1,9.6,0,14.4c0,1.3-0.4,1.7-1.6,1.6
				c-1.4-0.1-2.9,0-4.4,0c-0.9,0-1.3-0.2-1.3-1.2c0-9.5,0-19,0-28.4c0-0.8,0.2-1.2,1-1.1c1.4,0,2.7,0,4.1,0c0.8,0,1.1,0.3,1,1.1
				c0,0.9,0,1.9,0,2.8C167.3-54.9,167.4-54.8,167.6-54.8"/>
			<path id="Fill-33" class="st0" d="M166.6-104.7c0.5-0.6,0.9-1.3,1.5-1.9c1.2-1.5,2.8-2.2,4.7-2.4c0.9-0.1,1.3,0.2,1.3,1.2
				c-0.1,1.3,0.1,2.6,0,3.9c0,0.4-0.4,1.1-0.8,1.2c-4.1,1.7-6,4.9-5.9,9.4c0.1,4.6,0,9.1,0,13.7c0,0.4,0,0.9-0.1,1.5
				c-2.2,0-4.4,0-6.6-0.1c-0.2,0-0.5-0.7-0.5-1.1c-0.1-2,0-4,0-6c0-7.3,0-14.5,0-21.8c0-1.9,0-1.9,1.9-1.9c0.8,0,1.7,0.1,2.5,0
				c1.3-0.2,1.9,0.3,1.7,1.8c-0.1,0.8,0,1.6,0,2.3C166.3-104.7,166.4-104.7,166.6-104.7"/>
			<path id="Fill-35" class="st0" d="M295.6-54.8c0.2-0.3,0.5-0.7,0.7-1c1.3-1.9,3-3,5.3-3.2c1-0.1,1.5,0.2,1.4,1.4c0,0.3,0,0.7,0,1
				c0.1,2.1,0.2,3.8-2.5,4.9c-2.9,1.2-4.3,4.2-4.3,7.6c0,4.9,0,9.8,0,14.7c0,1.2-0.3,1.5-1.4,1.5c-1.5-0.1-3.1,0-4.6,0
				c-0.8,0-1.2-0.3-1.2-1.2c0-9.5,0-19,0-28.5c0-0.9,0.2-1.2,1.1-1.2c1.3,0,2.6,0,3.9,0c0.8,0,1.1,0.3,1.1,1.1c0,0.9,0,1.9,0,2.8
				C295.3-54.9,295.4-54.8,295.6-54.8"/>
			<path id="Fill-37" class="st0" d="M186.8-78h-6.7c0-0.6-0.1-1.1-0.1-1.6c0-9.2,0-18.4,0-27.6c0-1.3,0.3-1.8,1.5-1.7
				c1.5,0.1,2.9,0.1,4.4,0c0.7,0,1.1,0.2,1.1,1.1c0,9.7,0,19.5-0.1,29.2C186.9-78.5,186.9-78.3,186.8-78"/>
			<path id="Fill-39" class="st0" d="M189-116.9c0,2.8-2,4.9-4.5,4.9c-2.6,0-4.6-2.2-4.5-5.2c0-2.8,2-4.9,4.5-4.8
				C187.1-122,189-119.8,189-116.9"/>
			<path id="Fill-41" class="st0" d="M232-93.3c0-0.2,0-0.5,0-0.7C232-93.8,232-93.5,232-93.3c0,0.1,0,0.2,0,0.3
				C232-93.1,232-93.2,232-93.3"/>
		</g>
	</g>
</g>
</svg>
