<?xml version="1.0" encoding="utf-8"?>
<!-- Generator: Adobe Illustrator 21.0.0, SVG Export Plug-In . SVG Version: 6.00 Build 0)  -->
<svg version="1.1" id="Layer_1" xmlns="http://www.w3.org/2000/svg" xmlns:xlink="http://www.w3.org/1999/xlink" x="0px" y="0px"
	 viewBox="0 0 400 114" style="enable-background:new 0 0 400 114;" xml:space="preserve">
<style type="text/css">
	.st0{fill:#FFFFFF;}
	.st1{fill:#495057;}
</style>
<g>
	<polygon id="path-1" class="st0" points="396,77.8 396,21.3 354.1,21.3 354.1,77.8 	"/>
</g>
<title>Property 24</title>
<desc>Created with Sketch.</desc>
<g id="Page-1_1_">
	<g id="Property-24">
		<g id="Page-1" transform="translate(6.000000, 163.000000)">
			<path id="Fill-1" class="st1" d="M30.3-106.1c0.1-2.4-0.4-5.2-2.1-7.6c-3.8-5.9-12.6-5.9-16,0.1c-3,5.3-2.9,10.9,0.3,16.2
				c2.8,4.5,8.7,5.5,13,2.5C29.3-97.5,30.3-101.3,30.3-106.1L30.3-106.1z M0-126.1c2.6,0,5.2,0.2,7.8,0.1c1.5,0,2,0.4,1.9,1.9
				c-0.1,0.9,0,1.8,0,3c0.6-0.5,0.8-0.6,1.1-0.8c8.1-8,21.5-6.4,26.9,3.5c4.6,8.4,4.5,17.2-0.4,25.6C32-83.7,18.7-82,11.9-88.6
				c-0.3-0.3-0.6-0.4-1.2-0.8c0,0.9-0.1,1.6-0.1,2.3c0,4.4-0.1,8.8,0,13.1c0,1.5-0.5,1.9-1.9,1.9c-3,0-5.8,0.1-8.7,0.1V-126.1z"/>
			<path id="Fill-3" class="st1" d="M272.8-69c-1.9-0.7-3.7-1.3-5.6-2c-1.2-0.4-1.6-1-0.9-2.3c1-1.9,1.8-3.9,2.7-6
				c0.7,0.3,1.2,0.5,1.8,0.8c3.2,1.4,6.4,0.7,8.4-2.2c1-1.5,1.8-3.3,2.5-5.1c0.2-0.7-0.1-1.6-0.5-2.4c-5.2-12.1-10.5-24.2-15.7-36.4
				c-0.2-0.3-0.3-0.7-0.5-1.4c3.8,0,7.3,0,10.9,0.1c0.4,0,0.9,0.9,1.1,1.4c3,8.3,6,16.6,9,25c0.1,0.2,0.3,0.4,0.6,1
				c0.4-1.3,0.6-2.2,0.9-3.1c2.6-7.6,5.2-15.3,7.8-22.9c0.2-0.5,0.7-1.3,1.1-1.3c3.4-0.1,6.8-0.1,10.6-0.1
				c-1.7,4.2-3.2,8.1-4.7,12.1c-4.3,11.1-8.7,22.1-13,33.2c-2.4,6.1-6.2,10.5-13.1,11.3c-0.2,0-0.5,0.2-0.7,0.4L272.8-69L272.8-69z"
				/>
			<g id="Group-7" transform="translate(348.000000, 1.000000)">
				<g id="Clip-6">
				</g>
				<path id="Fill-5" class="st1" d="M27.2-108.7v-22.8c-5.8,7.7-11.3,15.1-17.1,22.8H27.2z M42-100.8h-6.2v14.6h-8.3
					c-0.1-0.7-0.2-1.4-0.2-2.2c0-3.5-0.1-7,0-10.5c0-1.6-0.5-2.1-2.1-2.1c-7.6,0.1-15.3,0-22.9,0.1c-1.8,0-2.2-0.5-2.3-2.3
					c0-2.1,0.5-3.8,1.8-5.5C9.6-119.4,17.3-130.2,25-141c0.8-1.1,1.6-1.5,2.8-1.5c2.5,0.1,5.1,0,7.8,0v34H42V-100.8z"/>
			</g>
			<path id="Fill-8" class="st1" d="M329.9-143c1.2,0.3,2.4,0.6,3.6,0.8c12.5,3,17.5,16.8,9.3,26.7c-2.5,3-5.9,5.4-9,7.9
				c-3.2,2.6-6.6,4.8-9.8,7.4c-1.9,1.6-3.2,3.7-3.3,6.6H347v7.6h-35.6c-0.9-6-0.7-11.9,3.6-16.7c2.8-3.1,6.1-5.7,9.4-8.4
				c3.3-2.7,6.9-5.1,10.1-7.9c2.7-2.4,3.8-5.7,2.6-9.3c-1.8-5.7-9-8.3-14.7-5c-2.4,1.4-4.3,3.6-6.6,5.5c-1.4-1.9-3-4.1-4.7-6.4
				c3.2-4.4,7.4-7.2,12.8-8.2c0.6-0.1,1.1-0.3,1.6-0.5h4.4V-143z"/>
			<path id="Fill-10" class="st1" d="M139.9-118.1c-4.3,0-7.5,2.2-9,6.3c-1.5,4.1-1.5,8.4,0.2,12.4c1.6,3.8,4.4,6.1,8.6,6
				c4.1,0,7.4-2.3,8.9-6.3c1.6-4.3,1.6-8.7-0.4-13C146.6-116.1,143.8-118.1,139.9-118.1 M129.7-121.3c2.2-2.5,4.8-4.3,8-5.1
				c9.3-2.2,17.6,2.4,20.7,11.6c2.2,6.4,2.1,12.9-0.5,19.2c-3.8,9-13.8,13.4-22.3,9.8c-1.8-0.8-3.5-2.1-5.3-3.3
				c0,0.4-0.1,0.9-0.1,1.4c0,4.7,0,9.3,0,14c0,1.4-0.5,1.8-1.8,1.8c-2.2-0.1-4.4-0.1-6.5,0c-1.4,0.1-1.9-0.4-1.9-1.9
				c0.1-6.8,0-13.6,0-20.4c0-9.8,0.1-19.5,0-29.3c0-2,0.6-2.7,2.5-2.5c1.6,0.2,3.2,0.1,4.8,0c1.4-0.1,2,0.4,1.9,1.9
				c-0.1,0.9,0,1.8,0,2.7C129.4-121.5,129.5-121.4,129.7-121.3"/>
			<path id="Fill-12" class="st1" d="M92.5-92.9c6.8,0,11.9-5.4,12-12.5c0-7.2-5.3-12.7-12.1-12.7c-6.8,0.1-12,5.5-12,12.6
				C80.4-98.3,85.6-92.9,92.5-92.9 M92.5-127c10.2,0.3,18.6,6,21.4,15c4,12.5-4.1,25.6-16.9,27.6c-6.8,1.1-13.1,0.1-18.7-4.1
				c-6.7-5-9.4-12-8.1-20.2c1.4-9,6.9-14.6,15.4-17.1C87.9-126.5,90.2-126.6,92.5-127"/>
			<path id="Fill-14" class="st1" d="M182.9-110.6L182.9-110.6c2,0,4,0,6,0c2.7,0,3-0.3,2.1-3c-1.2-3.6-4.4-5.7-8.1-5.4
				c-4.4,0.4-8.2,3.5-8.6,7.1c-0.2,1.2,0.6,1.3,1.4,1.3C178.1-110.6,180.5-110.6,182.9-110.6 M173.9-103.5c0,2.5,0.8,4.4,2.2,6.1
				c3.6,4.4,8.5,5.1,13.5,4.1c3.3-0.6,6.3-2.1,9.7-3.2c0,2.4,0,5,0,7.6c0,0.4-0.4,0.8-0.8,1.1c-9.1,5.7-22.7,5.4-30.3-3.5
				c-5.7-6.6-6.5-14.4-3.8-22.4c2.6-7.7,8.3-12.1,16.1-13.1c13.2-1.7,21.1,6.2,21.4,18.6c0.1,4.6,0,4.6-4.5,4.6c-7,0-14.1,0-21.1,0
				C175.6-103.6,174.8-103.5,173.9-103.5"/>
			<path id="Fill-16" class="st1" d="M241.2-107.8c0-2.5-0.1-5,0-7.5c0-1.3-0.4-1.8-1.8-1.9c-3.5,0-3.5-0.1-3.5-3.6v-0.8
				c0-4.1,0-4.1,4.1-4.4c1.1-0.1,1.5-0.5,1.5-1.6c0-2.6,0-5.3,0-7.9c0-1.2,0.3-1.7,1.6-1.6c2.2,0.1,4.5,0.1,6.7,0
				c1.4-0.1,1.9,0.4,1.8,1.8c-0.1,2.4,0,4.9,0,7.3c-0.1,1.6,0.6,2.1,2.1,2c1.9-0.1,3.8,0,5.7,0c1.1,0,1.7,0.3,1.7,1.5
				c-0.1,2-0.1,3.9,0,5.9c0,1-0.4,1.4-1.4,1.4c-2.1,0-4.2,0-6.3,0c-1,0-1.7,0.2-1.7,1.4c0.1,5.2-0.1,10.4,0.3,15.5
				c0.3,4.1,3.1,6.3,7.5,6.2c2.1-0.1,2.7,0.6,2.5,2.6c-0.2,1.6-0.1,3.2,0,4.7c0.1,1.2-0.4,1.6-1.6,1.7c-3.6,0.2-7.1-0.1-10.5-1.4
				c-6.4-2.6-8.5-7.8-8.6-14.2C241.2-103.1,241.3-105.4,241.2-107.8"/>
			<path id="Fill-18" class="st1" d="M217.5-117.9c0.4-0.6,0.7-1.1,1.1-1.7c2.8-4,6.5-6.4,11.6-6.4c1.3,0,1.7,0.4,1.7,1.7
				c-0.1,2.5,0,5,0,7.6c-1.5,0.1-2.8,0-4,0.3c-5.5,1-9.7,5.2-10.1,10.8c-0.4,5.7-0.4,11.5-0.4,17.2c0,1.8-0.5,2.5-2.4,2.4
				c-2.2-0.1-4.3-0.1-6.5,0c-1.1,0-1.5-0.4-1.5-1.5c0-12.2,0-24.4,0-36.7c0-1,0.4-1.4,1.4-1.4c2.4,0,4.9,0,7.3,0
				c1.1,0,1.4,0.5,1.3,1.4c0,2,0,4.1,0,6.1C217.2-118,217.4-118,217.5-117.9"/>
			<path id="Fill-20" class="st1" d="M55-117.6c1.8-2,3-3.7,4.5-5.1c2.5-2.3,5.5-3.4,9-3.3c1.1,0,1.5,0.4,1.5,1.5
				c-0.1,2.2,0,4.4,0,6.5c0,1.1-0.4,1.5-1.5,1.4c-7.5-0.3-12.6,5.4-12.9,12.6c-0.2,5.2-0.2,10.5-0.2,15.7c0,1.6-0.5,2.3-2.3,2.2
				c-2.1-0.1-4.2-0.1-6.4,0c-1.3,0-1.8-0.5-1.8-1.7c0-12.1,0-24.2,0-36.3c0-1.2,0.5-1.6,1.7-1.5c2.2,0.1,4.4,0.1,6.6,0
				c1.3,0,1.8,0.4,1.7,1.7C54.9-121.9,55-120,55-117.6"/>
		</g>
	</g>
</g>
</svg>
