<?xml version="1.0" encoding="utf-8"?>
<!-- Generator: Adobe Illustrator 21.0.0, SVG Export Plug-In . SVG Version: 6.00 Build 0)  -->
<svg version="1.1" id="Layer_1" xmlns="http://www.w3.org/2000/svg" xmlns:xlink="http://www.w3.org/1999/xlink" x="0px" y="0px"
	 viewBox="0 0 400 400" style="enable-background:new 0 0 400 400;" xml:space="preserve">
<style type="text/css">
	.st0{filter:url(#Adobe_OpacityMaskFilter);}
	.st1{fill:#FFFFFF;}
	.st2{mask:url(#mask-2);fill:#495057;}
	.st3{fill:#495057;}
</style>
<title>Toyota</title>
<desc>Created with Sketch.</desc>
<g id="Page-1_1_">
	<g id="Toyota">
		<g id="Page-1" transform="translate(22.000000, 53.000000)">
			<g id="Group-3" transform="translate(0.000000, 231.000000)">
				<g id="Clip-2">
				</g>
				<defs>
					<filter id="Adobe_OpacityMaskFilter" filterUnits="userSpaceOnUse" x="0" y="0" width="356" height="63">
						<feColorMatrix  type="matrix" values="1 0 0 0 0  0 1 0 0 0  0 0 1 0 0  0 0 0 1 0"/>
					</filter>
				</defs>
				<mask maskUnits="userSpaceOnUse" x="0" y="0" width="356" height="63" id="mask-2">
					<g class="st0">
						<polygon id="path-1" class="st1" points="0,0 0,63 356,63 356,0 						"/>
					</g>
				</mask>
				<path id="Fill-1" class="st2" d="M146.7,61.3h6.7V39l23.4-36.5h-15l-15,24.9L132.6,2.5h-15.8L140.1,39v22.4H146.7L146.7,61.3z
					 M85,51.4c9.6-0.1,17.5-9,17.5-19.9c0-11.1-7.9-20-17.5-19.9c-9.8-0.1-17.7,8.8-17.5,19.9C67.3,42.4,75.2,51.2,85,51.4L85,51.4z
					 M53.4,31.5C53.4,14.1,67.5,0,85,0c17.3,0,31.4,14.1,31.7,31.5C116.5,48.7,102.3,62.8,85,63C67.5,62.8,53.4,48.7,53.4,31.5
					L53.4,31.5z M31.7,13.3v48.1H18.3V13.3H0V2.5h50v10.8H31.7L31.7,13.3z M323.5,38.1h8.3l-8.3-21.6l-8.3,21.6H323.5L323.5,38.1z
					 M311,48.1l-5,13.3h-15.8l25-58.9h16.7L356,61.3h-15.8l-5-13.3H311z M276.8,13.3v48.1h-13.3V13.3h-19.2V2.5h50.9v10.8H276.8
					L276.8,13.3z M209.3,51.4c9.5-0.1,17.4-9,17.5-19.9c-0.1-11.1-8-20-17.5-19.9c-9.9-0.1-17.8,8.8-17.5,19.9
					C191.4,42.4,199.3,51.2,209.3,51.4L209.3,51.4z M177.6,31.5C177.5,14.1,191.6,0,209.3,0c17.2,0,31.3,14.1,31.7,31.5
					c-0.3,17.2-14.5,31.3-31.7,31.5C191.6,62.8,177.5,48.7,177.6,31.5L177.6,31.5z"/>
			</g>
			<path id="Fill-4" class="st3" d="M198.3,181.6c13.2-15.6,21.1-44.6,21.1-78.2c0,0,0-2.5-0.1-4.4c34.8-6.6,59.5-20.9,66.1-38.1
				c14.2,12.9,21.7,27.7,21.7,43.1C307.1,142.3,260.8,174.9,198.3,181.6 M256.8,46.2c0.3,0.8,0.5,1.7,0.5,2.5c0,1.4-0.4,2.7-1.2,4.1
				c-4.3,7.4-19.1,13.9-39.5,17.7C212.9,50.7,206,34.3,197,24.2C228.5,27,253.1,36,256.8,46.2 M175,154.4
				c-9.3,0-19.1-20.9-19.5-52.2c6.4,0.5,12.9,0.8,19.5,0.8c6.6,0,13.1-0.3,19.5-0.8C194.1,133.5,184.3,154.4,175,154.4 M133.5,70.5
				C113,66.7,98.3,60.2,94,52.9c-0.4-0.7-0.7-1.4-0.9-2.1c-0.2-0.7-0.3-1.4-0.3-2c0-0.9,0.1-1.7,0.5-2.5C96.9,36,121.5,27,153,24.2
				C144,34.3,137.1,50.7,133.5,70.5 M42.9,104c0-7.7,1.9-15.3,5.5-22.5c3.7-7.2,9.1-14.2,16.2-20.6c6.6,17.1,31.3,31.4,66.1,38.1
				c0,2-0.1,4.4-0.1,4.4c0,33.6,8,62.6,21.1,78.2C89.2,174.9,42.9,142.3,42.9,104 M175,46.5c7,0,13.5,10.5,17,27
				c-5.6,0.4-11.2,0.6-17,0.6c-5.7,0-11.4-0.2-17-0.6C161.4,57,168,46.5,175,46.5 M175,0C84.6,0,11,46,11,102.5
				C11,159,84.6,205,175,205c90.4,0,164-46,164-102.5C339,46,265.4,0,175,0"/>
		</g>
	</g>
</g>
</svg>
