<?xml version="1.0" encoding="utf-8"?>
<!-- Generator: Adobe Illustrator 21.0.0, SVG Export Plug-In . SVG Version: 6.00 Build 0)  -->
<svg version="1.1" id="Layer_1" xmlns="http://www.w3.org/2000/svg" xmlns:xlink="http://www.w3.org/1999/xlink" x="0px" y="0px"
	 viewBox="0 0 400 400" style="enable-background:new 0 0 400 400;" xml:space="preserve">
<style type="text/css">
	.st0{fill:#FFFFFF;}
</style>
<title>Toyota</title>
<desc>Created with Sketch.</desc>
<g id="Page-1_1_">
	<g id="Toyota">
		<g id="Page-1" transform="translate(22.000000, 53.000000)">
			<g id="Group-3" transform="translate(0.000000, 231.000000)">
				<g id="Clip-2">
				</g>
				<path id="Fill-1" class="st0" d="M146.7,55.8h6.7V33.5L176.8-3h-15l-15,24.9L132.6-3h-15.8l23.3,36.5v22.4h6.6L146.7,55.8
					L146.7,55.8z M85,45.9c9.6-0.1,17.5-9,17.5-19.9c0-11.1-7.9-20-17.5-19.9C75.2,6,67.3,14.9,67.5,26C67.3,36.9,75.2,45.7,85,45.9
					L85,45.9z M53.4,26C53.4,8.6,67.5-5.5,85-5.5c17.3,0,31.4,14.1,31.7,31.5c-0.2,17.2-14.4,31.3-31.7,31.5
					C67.5,57.3,53.4,43.2,53.4,26L53.4,26z M31.7,7.8v48.1H18.3V7.8H0V-3h50V7.8H31.7L31.7,7.8z M323.5,32.6h8.3L323.5,11l-8.3,21.6
					H323.5L323.5,32.6z M311,42.6l-5,13.3h-15.8l25-58.9h16.7L356,55.8h-15.8l-5-13.3L311,42.6L311,42.6z M276.8,7.8v48.1h-13.3V7.8
					h-19.2V-3h50.9V7.8H276.8L276.8,7.8z M209.3,45.9c9.5-0.1,17.4-9,17.5-19.9c-0.1-11.1-8-20-17.5-19.9
					c-9.9-0.1-17.8,8.8-17.5,19.9C191.4,36.9,199.3,45.7,209.3,45.9L209.3,45.9z M177.6,26c-0.1-17.4,14-31.5,31.7-31.5
					c17.2,0,31.3,14.1,31.7,31.5c-0.3,17.2-14.5,31.3-31.7,31.5C191.6,57.3,177.5,43.2,177.6,26L177.6,26z"/>
			</g>
			<path id="Fill-4" class="st0" d="M198.3,176.1c13.2-15.6,21.1-44.6,21.1-78.2c0,0,0-2.5-0.1-4.4c34.8-6.6,59.5-20.9,66.1-38.1
				c14.2,12.9,21.7,27.7,21.7,43.1C307.1,136.8,260.8,169.4,198.3,176.1 M256.8,40.7c0.3,0.8,0.5,1.7,0.5,2.5c0,1.4-0.4,2.7-1.2,4.1
				c-4.3,7.4-19.1,13.9-39.5,17.7C212.9,45.2,206,28.8,197,18.7C228.5,21.5,253.1,30.5,256.8,40.7 M175,148.9
				c-9.3,0-19.1-20.9-19.5-52.2c6.4,0.5,12.9,0.8,19.5,0.8s13.1-0.3,19.5-0.8C194.1,128,184.3,148.9,175,148.9 M133.5,65
				C113,61.2,98.3,54.7,94,47.4c-0.4-0.7-0.7-1.4-0.9-2.1c-0.2-0.7-0.3-1.4-0.3-2c0-0.9,0.1-1.7,0.5-2.5
				c3.6-10.3,28.2-19.3,59.7-22.1C144,28.8,137.1,45.2,133.5,65 M42.9,98.5c0-7.7,1.9-15.3,5.5-22.5c3.7-7.2,9.1-14.2,16.2-20.6
				c6.6,17.1,31.3,31.4,66.1,38.1c0,2-0.1,4.4-0.1,4.4c0,33.6,8,62.6,21.1,78.2C89.2,169.4,42.9,136.8,42.9,98.5 M175,41
				c7,0,13.5,10.5,17,27c-5.6,0.4-11.2,0.6-17,0.6c-5.7,0-11.4-0.2-17-0.6C161.4,51.5,168,41,175,41 M175-5.5
				C84.6-5.5,11,40.5,11,97s73.6,102.5,164,102.5s164-46,164-102.5S265.4-5.5,175-5.5"/>
		</g>
	</g>
</g>
</svg>
