<?xml version="1.0" encoding="utf-8"?>
<!-- Generator: Adobe Illustrator 21.0.0, SVG Export Plug-In . SVG Version: 6.00 Build 0)  -->
<svg version="1.1" id="Layer_1" xmlns="http://www.w3.org/2000/svg" xmlns:xlink="http://www.w3.org/1999/xlink" x="0px" y="0px"
	 viewBox="0 0 400 133" style="enable-background:new 0 0 400 133;" xml:space="preserve">
<style type="text/css">
	.st0{fill:#FFFFFF;}
</style>
<title>Truck and Trailer</title>
<desc>Created with Sketch.</desc>
<g id="Page-1">
	<g id="Truck-and-Trailer">
		<g id="Group-7" transform="translate(25.000000, 155.000000)">
			<path id="Fill-63" class="st0" d="M27.9-134v12.1h-7.5v48.6H7.6v-48.6H0V-134H27.9z M42.6-123l-0.4,6.5c1.8-4.7,4.4-7.2,7.8-7.5
				v17.5c-2.2,0-3.9,0.4-5,1.1c-1.1,0.8-1.7,1.8-1.9,3.1c-0.2,1.3-0.4,4.4-0.4,9.2v19.6H30.5V-123H42.6z M80.7-123v49.7H68.3
				l0.2-4.1c-0.8,1.7-1.9,3-3.1,3.8s-2.7,1.3-4.3,1.3c-1.8,0-3.4-0.4-4.6-1.2c-1.2-0.8-2.1-1.9-2.7-3.2c-0.6-1.3-0.9-2.7-1.1-4.1
				c-0.1-1.4-0.2-4.3-0.2-8.6V-123h12.2v33.8c0,3.9,0.1,6.2,0.3,6.9c0.2,0.7,0.7,1.1,1.6,1.1s1.5-0.4,1.6-1.1
				c0.2-0.7,0.3-3.2,0.3-7.2V-123H80.7z M112.3-104.2h-11.6v-5.8c0-2-0.1-3.4-0.4-4.1s-0.8-1.1-1.5-1.1s-1.2,0.3-1.5,0.9
				c-0.2,0.6-0.4,2-0.4,4.2v23.5c0,1.8,0.2,3.1,0.6,4s0.9,1.3,1.6,1.3c0.8,0,1.4-0.5,1.7-1.4c0.3-0.9,0.4-2.7,0.4-5.2v-5.9h10.9
				c0,4-0.1,6.9-0.4,8.9c-0.2,2-0.9,4-2,6.1s-2.6,3.7-4.5,4.7c-1.8,1.1-4.1,1.6-6.8,1.6c-3.5,0-6.2-0.7-8.2-2.2s-3.5-3.5-4.3-6.1
				s-1.3-6.4-1.3-11.2v-14.1c0-4.2,0.3-7.4,1-9.6c0.7-2.1,2.2-4.1,4.4-5.8c2.2-1.7,5-2.5,8.2-2.5s5.9,0.8,8.2,2.5
				c2.3,1.7,3.8,3.8,4.5,6.3C112-112.5,112.3-108.9,112.3-104.2L112.3-104.2z M142.3-123l-5,19.8l6.4,29.9H132L128.2-95v21.7H116
				V-134h12.2v25.5L132-123H142.3z M180.9-96.3v10.2l-3.5,2.7l4.3,10.1h-11.4l-1.5-3.3C165-73.5,161.4-72,158-72
				c-3.5,0-6.3-1.5-8.2-4.4s-2.9-6.5-2.9-10.6c0-3.3,0.6-5.9,1.7-7.8c1.1-1.9,2.8-3.4,5.1-4.6c-3.2-2.9-4.9-6.8-4.9-11.7
				c0-4.2,1.2-7.6,3.5-10.2s5.5-3.9,9.5-3.9c3.6,0,6.5,1.3,8.6,3.8s3.1,5.7,3.1,9.6c0,4.1-1.3,7.7-3.8,10.9l4.3,9.7L180.9-96.3z
				 M162-106.9c1.4-2.2,2.1-4.4,2.1-6.4c0-0.9-0.2-1.7-0.6-2.4c-0.4-0.7-1-1.1-1.7-1.1s-1.2,0.3-1.5,0.8c-0.3,0.6-0.5,1.4-0.5,2.5
				C159.7-111.1,160.5-109,162-106.9L162-106.9z M164.8-83.5l-4-8.2c-1.5,1.7-2.2,3.5-2.2,5.5c0,1.4,0.2,2.5,0.7,3.2
				s1.2,1.1,2.1,1.1C162.3-81.9,163.5-82.4,164.8-83.5L164.8-83.5z M207.5-134v12.1H200v48.6h-12.8v-48.6h-7.6V-134H207.5z
				 M222.3-123l-0.4,6.5c1.8-4.7,4.4-7.2,7.8-7.5v17.5c-2.2,0-3.9,0.4-5,1.1c-1.1,0.8-1.7,1.8-1.9,3.1c-0.2,1.3-0.4,4.4-0.4,9.2
				v19.6h-12.2V-123H222.3z M243.3-103.8h-11.5v-3.3c0-3.8,0.4-6.8,1.1-8.9c0.7-2.1,2.2-3.9,4.3-5.5c2.2-1.6,5-2.4,8.4-2.4
				c4.1,0,7.3,0.9,9.4,2.7c2.1,1.8,3.4,4,3.8,6.7c0.4,2.6,0.6,8.1,0.6,16.3v25h-11.9v-4.4c-0.7,1.8-1.7,3.1-2.9,4s-2.6,1.3-4.2,1.3
				c-2.1,0-4.1-0.7-5.9-2.2c-1.8-1.5-2.7-4.7-2.7-9.8v-4.1c0-3.7,0.5-6.3,1.4-7.6c1-1.4,3.3-2.9,7.1-4.7c4-2,6.2-3.3,6.5-3.9
				c0.3-0.7,0.4-2,0.4-4.1c0-2.6-0.2-4.3-0.5-5.1c-0.3-0.8-0.8-1.2-1.6-1.2s-1.4,0.3-1.6,1c-0.2,0.7-0.3,2.4-0.3,5.2v5H243.3z
				 M247.2-97c-2,1.8-3.1,3.3-3.4,4.5c-0.3,1.2-0.5,2.9-0.5,5.2c0,2.6,0.1,4.2,0.4,5c0.3,0.8,0.8,1.1,1.6,1.1s1.3-0.3,1.5-0.9
				s0.4-2.1,0.4-4.6V-97z M276.3-134v7.9h-12.6v-7.9H276.3z M276.3-123v49.7h-12.6V-123H276.3z M293.3-134v60.7h-12.6V-134H293.3z
				 M325.5-97.3h-15.9v10.8c0,2.3,0.1,3.7,0.4,4.4c0.3,0.7,0.8,1,1.5,1c0.9,0,1.6-0.4,1.9-1.3s0.5-2.5,0.5-5V-94h11.6v3.7
				c0,3.1-0.2,5.4-0.5,7.1c-0.3,1.6-1.1,3.4-2.2,5.3c-1.2,1.9-2.6,3.3-4.4,4.2c-1.8,0.9-4,1.4-6.7,1.4c-2.6,0-4.9-0.5-6.9-1.4
				s-3.5-2.2-4.6-3.8c-1.1-1.6-1.9-3.4-2.3-5.3s-0.6-4.7-0.6-8.5v-14.5c0-4.3,0.5-7.8,1.4-10.3c1-2.5,2.5-4.4,4.7-5.8
				c2.2-1.3,4.7-2,7.5-2c3.4,0,6.3,0.8,8.5,2.4s3.8,3.7,4.7,6.4c0.9,2.6,1.3,6.4,1.3,11.2v6.6L325.5-97.3L325.5-97.3z M313.2-105.4
				v-3.6c0-2.6-0.1-4.2-0.3-5c-0.2-0.8-0.7-1.1-1.4-1.1c-0.9,0-1.4,0.3-1.6,1c-0.2,0.6-0.3,2.4-0.3,5.2v3.6L313.2-105.4L313.2-105.4
				z M341.7-123l-0.4,6.5c1.8-4.7,4.4-7.2,7.8-7.5v17.5c-2.2,0-3.9,0.4-5,1.1c-1.1,0.8-1.7,1.8-1.9,3.1c-0.2,1.3-0.4,4.4-0.4,9.2
				v19.6h-12.2V-123H341.7z"/>
			<path id="Fill-64" class="st0" d="M5.6-43.2v-10.9H3v-2.6h8.4v2.6H8.8v10.9C8.8-43.2,5.6-43.2,5.6-43.2z M19-51.1
				c0.1,0,0.1,0,0.2,0s0.1,0,0.2,0c0.7,0,1.1-0.1,1.4-0.4c0.3-0.3,0.4-0.7,0.4-1.3s-0.1-1-0.4-1.2s-0.7-0.4-1.4-0.4c0,0-0.1,0-0.2,0
				s-0.2,0-0.2,0V-51.1z M15.9-43.2v-13.5h3.6c1.2,0,2,0.1,2.6,0.2c0.5,0.1,1,0.3,1.3,0.6c0.4,0.3,0.7,0.7,0.9,1.2
				c0.2,0.5,0.3,1,0.3,1.6c0,0.8-0.1,1.4-0.4,2c-0.3,0.5-0.7,1-1.3,1.3c1,0.4,1.5,1.5,1.6,3.1l0,0c0,0.2,0,0.4,0,0.7
				c0,1.5,0.3,2.5,0.8,2.9h-3.7c-0.1-0.3-0.1-0.6-0.2-0.9c0-0.3-0.1-0.6-0.1-1c0-0.2,0-0.5,0-0.8s0-0.5,0-0.6c0-0.8-0.1-1.4-0.3-1.7
				c-0.2-0.3-0.6-0.5-1.2-0.5H19v5.4H15.9z M29.7-56.7h3.2v8.4c0,1.3,0.1,2.1,0.2,2.4c0.2,0.3,0.4,0.5,0.9,0.5
				c0.4,0,0.7-0.2,0.9-0.5s0.2-1.1,0.2-2.4v-8.4h3.2v8.6c0,1,0,1.7-0.1,2.2S38-45,37.8-44.6c-0.3,0.6-0.8,1.1-1.4,1.3
				C35.8-43,35-42.9,34-42.9c-0.9,0-1.7-0.1-2.2-0.4c-0.6-0.3-1-0.7-1.4-1.3c-0.2-0.4-0.4-0.9-0.5-1.6c-0.1-0.6-0.1-1.7-0.1-3.3
				L29.7-56.7L29.7-56.7z M49.2-48.4h3.1c0,0.1,0,0.2,0,0.3s0,0.2,0,0.4c0,1.6-0.4,2.9-1.1,3.7c-0.7,0.8-1.8,1.2-3.4,1.2
				c-0.9,0-1.6-0.1-2.3-0.4c-0.6-0.3-1.1-0.7-1.5-1.3c-0.3-0.4-0.5-1-0.6-1.7s-0.2-1.9-0.2-3.6c0-1.6,0.1-2.8,0.2-3.6
				c0.1-0.7,0.3-1.3,0.6-1.7c0.4-0.6,0.9-1,1.5-1.3s1.4-0.4,2.2-0.4c1.5,0,2.6,0.4,3.4,1.2c0.7,0.8,1.1,2,1.1,3.7v0.1h-3.1
				c0-0.9-0.1-1.6-0.3-1.9c-0.2-0.4-0.5-0.6-1-0.6s-0.9,0.2-1.1,0.7c-0.2,0.5-0.3,1.6-0.3,3.6v0.3c0,2.1,0.1,3.4,0.3,3.8
				c0.2,0.5,0.5,0.7,1.1,0.7c0.5,0,0.8-0.2,1-0.5s0.3-1,0.3-1.9L49.2-48.4L49.2-48.4z M57.6-43.2v-13.5h3.2v5.6l2.4-5.6h3.3l-3,5.9
				l3,7.6h-3.4l-1.7-4.9l-0.7,1.3v3.6C60.7-43.2,57.6-43.2,57.6-43.2z M70.1-47.8H73v0.4c0,0.7,0.1,1.3,0.3,1.6
				c0.2,0.3,0.5,0.5,0.9,0.5c0.3,0,0.6-0.1,0.8-0.3c0.2-0.2,0.3-0.5,0.3-0.9c0-0.7-0.5-1.3-1.4-1.9c-0.2-0.1-0.3-0.2-0.4-0.2
				l-0.2-0.1c-1.3-0.9-2.1-1.5-2.4-1.9c-0.2-0.3-0.4-0.7-0.5-1.1c-0.1-0.4-0.2-0.9-0.2-1.3c0-1.2,0.3-2.1,1-2.8s1.6-1,2.9-1
				s2.3,0.3,3,1s1,1.6,1,2.9c0,0.1,0,0.1,0,0.2c0,0.1,0,0.2,0,0.2h-2.9v-0.2c0-0.6-0.1-1-0.3-1.3c-0.2-0.3-0.5-0.5-0.8-0.5
				s-0.5,0.1-0.7,0.3s-0.3,0.5-0.3,0.8c0,0.6,0.5,1.2,1.6,1.8c0.2,0.1,0.3,0.2,0.4,0.3c0.1,0,0.2,0.1,0.3,0.2
				c1.1,0.7,1.8,1.3,2.1,1.8c0.2,0.3,0.3,0.7,0.4,1.1c0.1,0.4,0.2,0.8,0.2,1.3c0,1.3-0.4,2.4-1.1,3.1c-0.7,0.7-1.7,1.1-3,1.1
				c-1.4,0-2.4-0.3-3.1-1s-1-1.7-1-3.1c0-0.1,0-0.2,0-0.3C70.1-47.4,70.1-47.6,70.1-47.8L70.1-47.8z M97-43.2v-13.5h7.4v2.6h-4.3
				v2.5h3.9v2.7h-3.9v2.9h4.3v2.7L97-43.2L97-43.2z M115.1-48.7v-2.4c0-1.5-0.1-2.4-0.3-2.8c-0.2-0.4-0.5-0.5-1-0.5s-0.8,0.2-1,0.5
				c-0.2,0.4-0.3,1.3-0.3,2.8v2.4c0,1.5,0.1,2.4,0.3,2.7c0.2,0.4,0.5,0.6,1,0.6s0.8-0.2,1-0.5C115-46.3,115.1-47.2,115.1-48.7
				L115.1-48.7z M114.5-42.9c-0.2,0-0.3,0-0.5,0s-0.3,0-0.5,0c-0.7,0-1.2-0.1-1.7-0.3s-0.9-0.5-1.3-0.9c-0.4-0.5-0.8-1.1-1-1.9
				c-0.2-0.8-0.3-2.1-0.3-4.1c0-1.6,0.1-2.8,0.2-3.6c0.1-0.7,0.3-1.3,0.6-1.7c0.4-0.6,0.9-1,1.5-1.3s1.4-0.4,2.3-0.4
				s1.7,0.1,2.3,0.4c0.6,0.3,1.1,0.7,1.5,1.3c0.3,0.4,0.5,1,0.6,1.8s0.2,1.9,0.2,3.5c0,2-0.1,3.4-0.3,4.2c-0.2,0.8-0.6,1.4-1.2,1.8
				l1.1,1.2l-1.8,1.7L114.5-42.9z M123.5-56.7h3.2v8.4c0,1.3,0.1,2.1,0.2,2.4c0.2,0.3,0.4,0.5,0.9,0.5c0.4,0,0.7-0.2,0.9-0.5
				s0.2-1.1,0.2-2.4v-8.4h3.2v8.6c0,1,0,1.7-0.1,2.2s-0.2,0.9-0.4,1.3c-0.3,0.6-0.8,1.1-1.4,1.3c-0.6,0.3-1.4,0.4-2.4,0.4
				c-0.9,0-1.7-0.1-2.2-0.4c-0.6-0.3-1-0.7-1.4-1.3c-0.2-0.4-0.4-0.9-0.5-1.6c-0.1-0.6-0.1-1.7-0.1-3.3L123.5-56.7L123.5-56.7z
				 M137.5-43.2v-13.5h3.2v13.5H137.5z M149.2-50.9c0,0,0.1,0,0.2,0c0.1,0,0.1,0,0.3,0c0.6,0,1.1-0.1,1.4-0.4
				c0.3-0.3,0.4-0.8,0.4-1.4c0-0.5-0.2-0.9-0.5-1.2c-0.3-0.2-0.8-0.4-1.5-0.4h-0.3L149.2-50.9L149.2-50.9z M146-43.2v-13.5h3.1
				c1.2,0,2,0.1,2.6,0.1c0.6,0.1,1,0.3,1.4,0.5c0.5,0.3,0.9,0.8,1.1,1.4c0.3,0.6,0.4,1.3,0.4,2.1c0,1.4-0.4,2.4-1.1,3.1
				c-0.7,0.7-1.8,1.1-3.2,1.1h-1.1v5.2C149.2-43.2,146-43.2,146-43.2z M159.5-43.2v-13.5h4.5l1.2,5.7c0,0,0.1,0.4,0.1,1.1
				c0.1,0.7,0.2,1.4,0.3,2.1c0.1-0.5,0.2-1.2,0.3-1.9c0.1-0.8,0.2-1.2,0.2-1.3l1.2-5.7h4.4v13.5h-3l0.3-10.4l-2.2,10.4h-2.4
				l-2.2-10.4l0.3,10.4C162.5-43.2,159.5-43.2,159.5-43.2z M177.1-43.2v-13.5h7.4v2.6h-4.3v2.5h3.9v2.7h-3.9v2.9h4.3v2.7L177.1-43.2
				L177.1-43.2z M189.6-43.2v-13.5h3.3l2.7,8.3c-0.1-1.4-0.2-2.6-0.2-3.6c-0.1-1-0.1-1.9-0.1-2.6v-2.1h2.9v13.5h-3.3l-2.7-8.6
				c0.1,1.1,0.2,2.2,0.3,3.2s0.1,2.1,0.1,3v2.3L189.6-43.2L189.6-43.2z M205.2-43.2v-10.9h-2.6v-2.6h8.4v2.6h-2.7v10.9
				C208.3-43.2,205.2-43.2,205.2-43.2z M84.8-49.9c0-0.7,0.3-1.3,0.8-1.8s1.1-0.8,1.9-0.8c0.7,0,1.3,0.3,1.8,0.8s0.8,1.1,0.8,1.8
				s-0.3,1.3-0.8,1.8s-1.1,0.8-1.9,0.8c-0.7,0-1.3-0.3-1.9-0.8C85-48.5,84.8-49.2,84.8-49.9L84.8-49.9z M217.1-49.9
				c0-0.7,0.3-1.3,0.8-1.8s1.1-0.8,1.9-0.8c0.7,0,1.3,0.3,1.8,0.8s0.8,1.1,0.8,1.8s-0.3,1.3-0.8,1.8s-1.1,0.8-1.9,0.8
				c-0.7,0-1.3-0.3-1.9-0.8C217.4-48.5,217.1-49.2,217.1-49.9L217.1-49.9z M229.4-43.2v-13.5h4.5l1.2,5.7c0,0,0.1,0.4,0.1,1.1
				c0.1,0.7,0.2,1.4,0.3,2.1c0.1-0.5,0.2-1.2,0.3-1.9c0.1-0.8,0.2-1.2,0.2-1.3l1.2-5.7h4.4v13.5h-3l0.3-10.4l-2.2,10.4h-2.4
				l-2.2-10.4l0.3,10.4C232.4-43.2,229.4-43.2,229.4-43.2z M249.9-48.2h1.8l-0.9-5.9L249.9-48.2z M246-43.2l3-13.5h3.8l2.9,13.5
				h-3.2l-0.4-2.6h-2.5l-0.4,2.6H246z M265.7-48.4h3.1c0,0.1,0,0.2,0,0.3s0,0.2,0,0.4c0,1.6-0.4,2.9-1.1,3.7s-1.8,1.2-3.4,1.2
				c-0.9,0-1.6-0.1-2.3-0.4c-0.6-0.3-1.1-0.7-1.5-1.3c-0.3-0.4-0.5-1-0.6-1.7s-0.2-1.9-0.2-3.6c0-1.6,0.1-2.8,0.2-3.6
				c0.1-0.7,0.3-1.3,0.6-1.7c0.4-0.6,0.9-1,1.5-1.3s1.4-0.4,2.2-0.4c1.5,0,2.6,0.4,3.4,1.2c0.7,0.8,1.1,2,1.1,3.7v0.1h-3.1
				c0-0.9-0.1-1.6-0.3-1.9c-0.2-0.4-0.5-0.6-1-0.6s-0.9,0.2-1.1,0.7s-0.3,1.6-0.3,3.6v0.3c0,2.1,0.1,3.4,0.3,3.8
				c0.2,0.5,0.5,0.7,1.1,0.7c0.5,0,0.8-0.2,1-0.5s0.3-1,0.3-1.9L265.7-48.4L265.7-48.4z M274-43.2v-13.5h3.2v5.1h2.6v-5.1h3.1v13.5
				h-3.1v-5.6h-2.6v5.6H274z M288.3-43.2v-13.5h3.2v13.5H288.3z M296.8-43.2v-13.5h3.3l2.7,8.3c-0.1-1.4-0.2-2.6-0.2-3.6
				c-0.1-1-0.1-1.9-0.1-2.6v-2.1h2.9v13.5H302l-2.7-8.6c0.1,1.1,0.2,2.2,0.3,3.2c0.1,1,0.1,2.1,0.1,3v2.3L296.8-43.2L296.8-43.2z
				 M310.7-43.2v-13.5h7.4v2.6h-4.3v2.5h3.9v2.7h-3.9v2.9h4.3v2.7L310.7-43.2L310.7-43.2z M326.4-51.1c0.1,0,0.1,0,0.2,0
				s0.1,0,0.2,0c0.7,0,1.1-0.1,1.4-0.4c0.3-0.3,0.4-0.7,0.4-1.3s-0.1-1-0.4-1.2s-0.7-0.4-1.4-0.4c0,0-0.1,0-0.2,0s-0.2,0-0.2,0
				V-51.1z M323.2-43.2v-13.5h3.6c1.2,0,2,0.1,2.6,0.2c0.5,0.1,1,0.3,1.3,0.6c0.4,0.3,0.7,0.7,0.9,1.2c0.2,0.5,0.3,1,0.3,1.6
				c0,0.8-0.1,1.4-0.4,2c-0.3,0.5-0.7,1-1.3,1.3c1,0.4,1.5,1.5,1.6,3.1l0,0c0,0.2,0,0.4,0,0.7c0,1.5,0.3,2.5,0.8,2.9h-3.7
				c-0.1-0.3-0.1-0.6-0.2-0.9c0-0.3-0.1-0.6-0.1-1c0-0.2,0-0.5,0-0.8s0-0.5,0-0.6c0-0.8-0.1-1.4-0.3-1.7c-0.2-0.3-0.6-0.5-1.2-0.5
				h-0.7v5.4H323.2z M338.6-43.2v-5.7l-3.1-7.8h3.4l1.3,4.3l1.3-4.3h3.5l-3.1,7.8v5.7H338.6z"/>
		</g>
	</g>
</g>
</svg>
