<?xml version="1.0" encoding="UTF-8"?>
<svg width="72px" height="72px" viewBox="0 0 72 72" version="1.1" xmlns="http://www.w3.org/2000/svg" xmlns:xlink="http://www.w3.org/1999/xlink">
    <!-- Generator: Sketch 48.2 (47327) - http://www.bohemiancoding.com/sketch -->
    <title>AI Chat</title>
    <desc>Created with Sketch.</desc>
    <defs>
        <linearGradient x1="0%" y1="0%" x2="100%" y2="100%" id="linearGradient-1">
            <stop stop-color="#007BFF" offset="0%"></stop>
            <stop stop-color="#6F42C1" offset="100%"></stop>
        </linearGradient>
    </defs>
    <g id="Graphics" stroke="none" stroke-width="1" fill="none" fill-rule="evenodd">
        <g id="AI-Chat" fill="url(#linearGradient-1)" fill-rule="nonzero">
            <path d="M35.6060704,6 C52.5100386,6 66.2121409,17.6281206 66.2121409,31.9714369 C66.2121409,46.3147532 52.5100386,57.9428738 35.6060704,57.9428738 C33.3176781,57.9428738 31.0904979,57.7280192 28.948073,57.3195594 C27.4860445,57.0433177 26.0028273,57.5580244 24.9386777,58.5992429 C21.5625927,61.8999764 16.6609128,65.025993 10.8857828,65.025993 C9.94750139,65.1217971 9.4252129,64.8218263 9.31891732,64.1260807 C9.21262174,63.4303351 9.59522098,62.9700511 10.466715,62.7452286 C15.4649218,60.4384928 16.0276026,55.4260055 15.8580921,51.7970875 C9.22363772,47.0325093 5,39.9234187 5,31.9714369 C5,17.6281206 18.7021023,6 35.6060704,6 Z M20,19 C19.4477153,19 19,19.4477153 19,20 L19,44 C19,44.5522847 19.4477153,45 20,45 L52,45 C52.5522847,45 53,44.5522847 53,44 L53,20 C53,19.4477153 52.5522847,19 52,19 L20,19 Z M30.3495347,37.392659 C29.9551635,36.726883 29.8169122,35.7875399 30.3495347,35.2945775 C30.8821572,34.8016151 32.1056288,34.9417082 32.5,35.6074842 C33.4575519,37.2240199 34.4775318,38.0000477 36.1138719,38.0000477 C37.7502121,38.0000477 38.9918606,37.2240199 39.9494125,35.6074842 C40.3437836,34.9417082 41.3455867,34.8016151 41.8782092,35.2945775 C42.4108317,35.7875399 42.2725804,36.726883 41.8782092,37.392659 C40.4664063,39.7760597 38.5080955,41 36.1138719,41 C33.7196484,41 31.7613376,39.7760597 30.3495347,37.392659 Z M27,32 C24.790861,32 23,30.209139 23,28 C23,25.790861 24.790861,24 27,24 C29.209139,24 31,25.790861 31,28 C31,30.209139 29.209139,32 27,32 Z M44,32 C41.790861,32 40,30.209139 40,28 C40,25.790861 41.790861,24 44,24 C46.209139,24 48,25.790861 48,28 C48,30.209139 46.209139,32 44,32 Z M56,26.25 L56,38.75 C56,39.4403559 56.6715729,40 57.5,40 C58.3284271,40 59,39.4403559 59,38.75 L59,26.25 C59,25.5596441 58.3284271,25 57.5,25 C56.6715729,25 56,25.5596441 56,26.25 Z M13,26.25 L13,38.75 C13,39.4403559 13.6715729,40 14.5,40 C15.3284271,40 16,39.4403559 16,38.75 L16,26.25 C16,25.5596441 15.3284271,25 14.5,25 C13.6715729,25 13,25.5596441 13,26.25 Z" id="Combined-Shape"></path>
        </g>
    </g>
</svg>