<?xml version="1.0" encoding="UTF-8"?>
<svg width="72px" height="72px" viewBox="0 0 72 72" version="1.1" xmlns="http://www.w3.org/2000/svg" xmlns:xlink="http://www.w3.org/1999/xlink">
    <!-- Generator: Sketch 48.2 (47327) - http://www.bohemiancoding.com/sketch -->
    <title>Forms</title>
    <desc>Created with Sketch.</desc>
    <defs>
        <linearGradient x1="100%" y1="0%" x2="0%" y2="100%" id="linearGradient-1">
            <stop stop-color="#42E89A" offset="0%"></stop>
            <stop stop-color="#3CB2B8" offset="100%"></stop>
        </linearGradient>
    </defs>
    <g id="Graphics" stroke="none" stroke-width="1" fill="none" fill-rule="evenodd">
        <g id="Forms" fill="url(#linearGradient-1)">
            <path d="M14,57 L60,57 C62.7614237,57 65,59.2385763 65,62 C65,64.7614237 62.7614237,67 60,67 L14,67 C11.2385763,67 9,64.7614237 9,62 C9,59.2385763 11.2385763,57 14,57 Z M35.5426829,63.0325273 L33.6463415,61.1665273 L32.2866861,62.5044281 L35.5431037,65.7010587 L41.7145993,59.628307 L40.3520005,58.3001588 L35.5426829,63.0325273 Z M28,41 L60,41 C61.6568542,41 63,42.3431458 63,44 C63,45.6568542 61.6568542,47 60,47 L28,47 C26.3431458,47 25,45.6568542 25,44 C25,42.3431458 26.3431458,41 28,41 Z M28,25 L60,25 C61.6568542,25 63,26.3431458 63,28 C63,29.6568542 61.6568542,31 60,31 L28,31 C26.3431458,31 25,29.6568542 25,28 C25,26.3431458 26.3431458,25 28,25 Z M28,8 L60,8 C61.6568542,8 63,9.34314575 63,11 C63,12.6568542 61.6568542,14 60,14 L28,14 C26.3431458,14 25,12.6568542 25,11 C25,9.34314575 26.3431458,8 28,8 Z M19.7777778,5 C20.4530556,5 21,5.54694444 21,6.22222222 L21,14.7777778 C21,15.4530556 20.4530556,16 19.7777778,16 L11.2222222,16 C10.5469444,16 10,15.4530556 10,14.7777778 L10,6.22222222 C10,5.54694444 10.5469444,5 11.2222222,5 L19.7777778,5 Z M19.7777778,22 C20.4530556,22 21,22.5469444 21,23.2222222 L21,31.7777778 C21,32.4530556 20.4530556,33 19.7777778,33 L11.2222222,33 C10.5469444,33 10,32.4530556 10,31.7777778 L10,23.2222222 C10,22.5469444 10.5469444,22 11.2222222,22 L19.7777778,22 Z M13.7656836,13.8214339 C13.7981745,13.8541899 13.8325274,13.8850449 13.8685713,13.9138452 C14.3863294,14.3275517 15.1414307,14.2432013 15.5551373,13.7254431 L19.339778,8.98892515 C19.5894288,8.67648453 19.565293,8.22654489 19.2836508,7.94260415 C19.2638939,7.92268602 19.242789,7.90415191 19.2204857,7.88713334 C18.952151,7.68237945 18.5686369,7.73392192 18.363883,8.00225666 L14.7142857,12.785139 L12.7046032,10.7590548 C12.7032752,10.757716 12.7019419,10.7563826 12.7006031,10.7550547 C12.4277043,10.4843651 11.9870388,10.486156 11.7163492,10.7590548 C11.4428031,11.0348333 11.4428031,11.4795956 11.7163492,11.7553742 L13.7656836,13.8214339 Z M13.7656836,30.8214339 C13.7981745,30.8541899 13.8325274,30.8850449 13.8685713,30.9138452 C14.3863294,31.3275517 15.1414307,31.2432013 15.5551373,30.7254431 L19.339778,25.9889252 C19.5894288,25.6764845 19.565293,25.2265449 19.2836508,24.9426041 C19.2638939,24.922686 19.242789,24.9041519 19.2204857,24.8871333 C18.952151,24.6823795 18.5686369,24.7339219 18.363883,25.0022567 L14.7142857,29.785139 L12.7046032,27.7590548 C12.7032752,27.757716 12.7019419,27.7563826 12.7006031,27.7550547 C12.4277043,27.4843651 11.9870388,27.486156 11.7163492,27.7590548 C11.4428031,28.0348333 11.4428031,28.4795956 11.7163492,28.7553742 L13.7656836,30.8214339 Z M19.7777778,39 C20.45,39 21,39.55 21,40.2222222 L21,48.7777778 C21,49.45 20.45,50 19.7777778,50 L11.2222222,50 C10.55,50 10,49.45 10,48.7777778 L10,40.2222222 C10,39.55 10.55,39 11.2222222,39 L19.7777778,39 Z M19.7777778,40.2222222 L11.2222222,40.2222222 L11.2222222,48.7777778 L19.7777778,48.7777778 L19.7777778,40.2222222 Z" id="Combined-Shape"></path>
        </g>
    </g>
</svg>