<?xml version="1.0" encoding="utf-8"?>
<!-- Generator: Adobe Illustrator 21.0.0, SVG Export Plug-In . SVG Version: 6.00 Build 0)  -->
<svg version="1.1" id="Layer_1" xmlns="http://www.w3.org/2000/svg" xmlns:xlink="http://www.w3.org/1999/xlink" x="0px" y="0px"
	 viewBox="0 0 265 144" style="enable-background:new 0 0 265 144;" xml:space="preserve">
<style type="text/css">
	.st0{fill:#FFFFFF;}
</style>
<g>
	<path id="path-2" class="st0" d="M182.5,74.3C182.5,74.3,182.5,74.3,182.5,74.3c-4.7,3.9-10.4,8.2-17.3,12.9
		c-2,1.4-4.1,2.8-6.3,4.2L147.2,72c-0.2-0.3-0.2-0.7,0-1l35.6-58.6c0.6-0.9,1.8-1.2,2.7-0.7c0.3,0.2,0.5,0.4,0.7,0.7L264.4,141
		c0.6,0.9,0.3,2.2-0.7,2.7c-0.3,0.2-0.7,0.3-1,0.3h-70.6c-0.7,0-1.3-0.4-1.7-1l-23.5-38.6c2.4-1.5,4.7-3.1,7-4.6
		c6.9-4.7,12.8-9.2,17.7-13.2l6.1,8.3c0.3,0.4,1,0.5,1.4,0.2c0.2-0.1,0.3-0.3,0.4-0.5l7.9-28.9c0.1-0.5-0.2-1.1-0.7-1.2
		c-0.1,0-0.2,0-0.3,0l-29.2,0c-0.6,0-1,0.4-1,1c0,0.2,0.1,0.4,0.2,0.6L182.5,74.3z M148,98.2c-16.3,9.8-35.3,19.5-57.1,28.7
		C76.6,133,61.4,138.7,45.3,144H2.1c-1.1,0-2-0.9-2-2c0-0.4,0.1-0.7,0.3-1L85.5,1c0.6-0.9,1.8-1.2,2.7-0.7c0.3,0.2,0.5,0.4,0.7,0.7
		L148,98.2z M156,111.3L174,141c0.6,0.9,0.3,2.2-0.7,2.7c-0.3,0.2-0.7,0.3-1,0.3H89.6c2.4-1,4.9-2,7.3-3
		C119.4,131.5,139,121.4,156,111.3z"/>
</g>
<title>Combined Shape</title>
<desc>Created with Sketch.</desc>
<g id="Symbols">
	<g id="Symbol-Copy">
		<g id="Combined-Shape">
			<path id="path-2_1_" class="st0" d="M182.5,74.3C182.5,74.3,182.5,74.3,182.5,74.3c-4.7,3.9-10.4,8.2-17.3,12.9
				c-2,1.4-4.1,2.8-6.3,4.2L147.2,72c-0.2-0.3-0.2-0.7,0-1l35.6-58.6c0.6-0.9,1.8-1.2,2.7-0.7c0.3,0.2,0.5,0.4,0.7,0.7L264.4,141
				c0.6,0.9,0.3,2.2-0.7,2.7c-0.3,0.2-0.7,0.3-1,0.3h-70.6c-0.7,0-1.3-0.4-1.7-1l-23.5-38.6c2.4-1.5,4.7-3.1,7-4.6
				c6.9-4.7,12.8-9.2,17.7-13.2l6.1,8.3c0.3,0.4,1,0.5,1.4,0.2c0.2-0.1,0.3-0.3,0.4-0.5l7.9-28.9c0.1-0.5-0.2-1.1-0.7-1.2
				c-0.1,0-0.2,0-0.3,0l-29.2,0c-0.6,0-1,0.4-1,1c0,0.2,0.1,0.4,0.2,0.6L182.5,74.3z M148,98.2c-16.3,9.8-35.3,19.5-57.1,28.7
				C76.6,133,61.4,138.7,45.3,144H2.1c-1.1,0-2-0.9-2-2c0-0.4,0.1-0.7,0.3-1L85.5,1c0.6-0.9,1.8-1.2,2.7-0.7
				c0.3,0.2,0.5,0.4,0.7,0.7L148,98.2z M156,111.3L174,141c0.6,0.9,0.3,2.2-0.7,2.7c-0.3,0.2-0.7,0.3-1,0.3H89.6c2.4-1,4.9-2,7.3-3
				C119.4,131.5,139,121.4,156,111.3z"/>
		</g>
	</g>
</g>
</svg>
