<?xml version="1.0" encoding="UTF-8"?>
<svg width="72px" height="72px" viewBox="0 0 72 72" version="1.1" xmlns="http://www.w3.org/2000/svg" xmlns:xlink="http://www.w3.org/1999/xlink">
    <!-- Generator: Sketch 48.2 (47327) - http://www.bohemiancoding.com/sketch -->
    <title>Messages</title>
    <desc>Created with Sketch.</desc>
    <defs>
        <linearGradient x1="4.23608655%" y1="124.37913%" x2="90.1248814%" y2="0%" id="linearGradient-1">
            <stop stop-color="#FBB4F7" offset="0%"></stop>
            <stop stop-color="#7767FA" offset="100%"></stop>
        </linearGradient>
    </defs>
    <g id="Graphics" stroke="none" stroke-width="1" fill="none" fill-rule="evenodd">
        <g id="Messages" fill="url(#linearGradient-1)" fill-rule="nonzero">
            <path d="M60.9768844,38.7136136 L61,62.0526316 C61,64.7736842 58.795,67 56.1,67 L16.9,67 C14.205,67 12,64.7736842 12,62.0526316 L12,37.3157895 C12,35.5347368 12.931,33.9763158 14.3275,33.1105263 L19.6065332,29.9890513 C20.0529849,29.9379501 20.4953845,29.8705846 20.9327964,29.7871899 C21.1174898,29.7522931 21.3315825,29.8222354 21.5051844,29.9920963 C22.316878,30.7856736 23.1931528,31.4689212 24.1211908,32.014256 L16,36.616 L36.5,49 L48.033003,42.032941 C49.0859222,41.6074992 50.0830066,40.9958676 51.0065495,40.2366288 L52.5552926,39.3010369 C53.5453732,39.4775129 54.5616212,39.5672753 55.5918289,39.5672753 C57.4852921,39.5672753 59.3015027,39.2656404 60.9768844,38.7136136 Z M41.1436254,22.7457604 C40.7252309,23.9421097 40.5,25.2133509 40.5,26.5336376 C40.5,26.7838723 40.5082025,27.0328626 40.5244403,27.2803853 L36.5,25 L29.3289719,29.0633494 C28.678766,28.4827072 28.3816329,27.6167711 28.3469252,26.4495916 C29.6312989,25.4280273 30.7064921,24.2404628 31.5367817,22.9347346 L36.5,20 L41.1436254,22.7457604 Z M55.5918289,15 C63.0987005,15 69.1836577,20.1639241 69.1836577,26.5336376 C69.1836577,32.9033511 63.0987005,38.0672753 55.5918289,38.0672753 C54.5755783,38.0672753 53.5865113,37.9718606 52.6350833,37.790468 C51.9858121,37.667792 51.3271312,37.8963677 50.8545537,38.3587617 C49.3552705,39.8245822 47.1784868,41.2128128 44.6138132,41.2128128 C44.1971325,41.2553583 43.9651898,41.1221445 43.917985,40.8131713 C43.8707803,40.5041982 44.0406885,40.2997909 44.4277097,40.1999497 C46.6473599,39.175553 46.8972405,36.9495609 46.8219627,35.3379972 C43.8756724,33.2220989 42,30.0650278 42,26.5336376 C42,20.1639241 48.0849572,15 55.5918289,15 Z M17.5,4 C25.5084615,4 32,9.50896429 32,16.3042857 C32,20.0716343 29.999,23.4396529 26.8558462,25.69693 C26.7755385,27.4161743 27.0421154,29.7909014 29.4100769,30.8837457 C29.8229579,30.9902581 30.004219,31.2083233 29.9538601,31.5379412 C29.9035013,31.8675592 29.6560607,32.0096741 29.2115385,31.9642857 C26.4755,31.9642857 24.1532692,30.4832971 22.5538077,28.9195343 C22.0496538,28.4262443 21.3469615,28.1823957 20.6543077,28.3132686 C19.6393077,28.5067814 18.5841538,28.6085714 17.5,28.6085714 C9.49153846,28.6085714 3,23.0996071 3,16.3042857 C3,9.50896429 9.49153846,4 17.5,4 Z" id="Combined-Shape"></path>
        </g>
    </g>
</svg>