<?xml version="1.0" encoding="UTF-8"?>
<svg width="72px" height="72px" viewBox="0 0 72 72" version="1.1" xmlns="http://www.w3.org/2000/svg" xmlns:xlink="http://www.w3.org/1999/xlink">
    <!-- Generator: Sketch 48.2 (47327) - http://www.bohemiancoding.com/sketch -->
    <title>Talk</title>
    <desc>Created with Sketch.</desc>
    <defs>
        <linearGradient x1="5.53746103%" y1="106.461453%" x2="90.1248814%" y2="0%" id="linearGradient-1">
            <stop stop-color="#F018BE" offset="0%"></stop>
            <stop stop-color="#FF7476" offset="100%"></stop>
        </linearGradient>
    </defs>
    <g id="Graphics" stroke="none" stroke-width="1" fill="none" fill-rule="evenodd">
        <g id="Talk" fill="url(#linearGradient-1)" fill-rule="nonzero">
            <path d="M13.4722222,36.9519444 C17.6322222,45.2847222 24.32,52.1011111 32.51,56.3411111 L38.8655556,49.8486111 C39.66,49.0388889 40.8011111,48.8033333 41.7977778,49.1272222 C45.0333333,50.2166667 48.5144444,50.8055556 52.1111111,50.8055556 C53.7144444,50.8055556 55,52.1158333 55,53.75 L55,64.0555556 C55,65.6897222 53.7144444,67 52.1111111,67 C24.9844444,67 3,44.5927778 3,16.9444444 C3,15.3102778 4.3,14 5.88888889,14 L16,14 C17.6033333,14 18.8888889,15.3102778 18.8888889,16.9444444 C18.8888889,20.6102778 19.4666667,24.1583333 20.5355556,27.4561111 C20.8533333,28.4719444 20.6222222,29.635 19.8277778,30.4447222 L13.4722222,36.9519444 Z M50.7938523,6 C60.6215339,6 68.5877047,12.7603929 68.5877047,21.0993547 C68.5877047,29.4383165 60.6215339,36.1987094 50.7938523,36.1987094 C49.4634197,36.1987094 48.1685747,36.0737966 46.9230051,35.8363249 C46.0730064,35.6757227 45.210689,35.9749644 44.5920104,36.5803113 C42.6292116,38.499302 39.7794577,40.3167152 36.4218947,40.3167152 C35.8763937,40.3724141 35.572744,40.1980161 35.5109456,39.7935214 C35.4491471,39.3890267 35.6715839,39.1214253 36.1782558,38.9907173 C39.0841287,37.6496201 39.4112619,34.7354447 39.3127113,32.625653 C35.4555516,29.8556078 33,25.7225026 33,21.0993547 C33,12.7603929 40.9661708,6 50.7938523,6 Z" id="Combined-Shape"></path>
        </g>
    </g>
</svg>