<?xml version="1.0" encoding="utf-8"?>
<!-- Generator: Adobe Illustrator 21.0.0, SVG Export Plug-In . SVG Version: 6.00 Build 0)  -->
<svg version="1.1"
	 id="svg6959" inkscape:version="0.91 r13725" sodipodi:docname="7 mobile concept book study education books.svg" xmlns:cc="http://creativecommons.org/ns#" xmlns:dc="http://purl.org/dc/elements/1.1/" xmlns:inkscape="http://www.inkscape.org/namespaces/inkscape" xmlns:rdf="http://www.w3.org/1999/02/22-rdf-syntax-ns#" xmlns:sodipodi="http://sodipodi.sourceforge.net/DTD/sodipodi-0.dtd" xmlns:svg="http://www.w3.org/2000/svg"
	 xmlns="http://www.w3.org/2000/svg" xmlns:xlink="http://www.w3.org/1999/xlink" x="0px" y="0px" viewBox="0 0 64 64"
	 style="enable-background:new 0 0 64 64;" xml:space="preserve">
<style type="text/css">
	.st0{fill:#C6BFD8;}
	.st1{fill:none;stroke:#6F42C1;stroke-width:1;stroke-linejoin:round;}
	.st2{fill:#F4F7F8;}
	.st3{fill:#846CB7;}
	.st4{fill:none;stroke:#6F42C1;stroke-width:1;}
	.st5{fill:#6F42C1;}
	.st6{fill:#DAD6E5;}
	.st7{fill:#7B54D1;}
	.st8{fill:none;stroke:#6F42C1;stroke-width:1;stroke-linecap:round;stroke-linejoin:round;}
	.st9{fill:#FFFFFF;}
</style>
<sodipodi:namedview  bordercolor="#666666" borderopacity="1.0" id="base" inkscape:bbox-nodes="true" inkscape:bbox-paths="true" inkscape:current-layer="layer1" inkscape:cx="-9.2540021" inkscape:cy="31.21223" inkscape:document-units="px" inkscape:pageopacity="0.0" inkscape:pageshadow="2" inkscape:snap-bbox="true" inkscape:snap-bbox-edge-midpoints="true" inkscape:snap-bbox-midpoints="true" inkscape:window-height="705" inkscape:window-maximized="1" inkscape:window-width="1366" inkscape:window-x="-8" inkscape:window-y="-8" inkscape:zoom="5.6" pagecolor="#ffffff" showgrid="true" units="px">
	<inkscape:grid  id="grid6967" type="xygrid"></inkscape:grid>
</sodipodi:namedview>
<g id="layer1" transform="translate(0,-988.3622)" inkscape:groupmode="layer" inkscape:label="Layer 1">
	<g id="g8289" transform="translate(25.812225,-1149.7426)">
		<g id="g11354" transform="translate(-4.8996591,242.95615)">
			<path id="path11356" inkscape:connector-curvature="0" sodipodi:nodetypes="cssssc" class="st0" d="M40.6,1945.8v3.5
				c0,1.9-1.5,3.5-3.4,3.5H-15c-1.9,0-3.5-1.5-3.4-3.5l0.1-3.5"/>
			<path id="path11358" inkscape:connector-curvature="0" sodipodi:nodetypes="cssssc" class="st1" d="M40.6,1945.8v3.5
				c0,1.9-1.5,3.5-3.4,3.5H-15c-1.9,0-3.5-1.5-3.4-3.5l0.1-3.5"/>
			<path id="path11360" inkscape:connector-curvature="0" sodipodi:nodetypes="cssccsccscc" class="st2" d="M38.6,1927.8
				c0-1.5-1.2-2.8-2.7-2.8h-49.4c-1.5,0-2.7,1.2-2.7,2.8l-2,18c0,2.1,1.1,4.1,3.8,4.1h25.2H14h22.4c2.7,0,4.2-2.1,4.2-4.1
				L38.6,1927.8z"/>
			<path id="path11362" inkscape:connector-curvature="0" sodipodi:nodetypes="cccc" class="st0" d="M31.4,1925.2l1.4,21.9H-11
				l1.4-21.9"/>
			<path id="path11364" inkscape:connector-curvature="0" sodipodi:nodetypes="cccccccc" class="st3" d="M-10.1,1925.3l-1.4,22.3
				h44.3l-0.2-2h-41c-1.1,0-1-1-1-1l1.2-19.4H-10.1z"/>
			<path id="path11366" inkscape:connector-curvature="0" sodipodi:nodetypes="cc" class="st4" d="M-13.4,1934l-0.4,4.1"/>
			<ellipse id="ellipse11368" class="st5" cx="-14.1" cy="1940.2" rx="0.7" ry="0.7"/>
			<path id="path11370" inkscape:connector-curvature="0" class="st6" d="M35.9,1925.1c1.4,0.2,2.4,1.3,2.4,2.7l2,18
				c0,2.1-1.1,4.1-3.8,4.1H11.5H8.1h-22.4c-1.6,0-2.8-0.8-3.5-1.9c0.3,0.1,0.7,0.1,1.1,0.1H5.6H9h25.2c2.7,0,3.8-2.1,3.8-4.1l0-0.4
				c0-0.2,0-0.4,0-0.6L35.9,1925.1L35.9,1925.1z"/>
			<path id="path11372" inkscape:connector-curvature="0" sodipodi:nodetypes="ccc" class="st3" d="M31.4,1925.2l1.4,21.9H-11"/>
			<path id="path11374" inkscape:connector-curvature="0" sodipodi:nodetypes="cccsccscsccsccc" class="st6" d="M-13.9,1925.1
				c-1.4,0.2-2.4,1.3-2.4,2.7l-2,18c0,2.1,1.1,4.1,3.8,4.1h25.2H14h22.4c1.6,0,2.8-0.8,3.5-1.9c-0.3,0.1-0.7,0.1-1.1,0.1H16.4H13
				h-25.2c-2.7,0-3.8-2.1-3.8-4.1c0-0.7,0-0.7,0-1L-13.9,1925.1z"/>
			<path id="path11376" inkscape:connector-curvature="0" class="st7" d="M-8.2,1945.7l-2.8,1.5h43.8l-0.1-1.5H-8.2z"/>
			<path id="path11378" inkscape:connector-curvature="0" sodipodi:nodetypes="cccc" class="st8" d="M31.4,1925.2l1.4,21.9H-11
				l1.4-21.9"/>
			<path id="path11380" inkscape:connector-curvature="0" sodipodi:nodetypes="cssccsccscc" class="st4" d="M38.6,1927.8
				c0-1.5-1.2-2.8-2.7-2.8h-49.4c-1.5,0-2.7,1.2-2.7,2.8l-2,18c0,2.1,1.1,4.1,3.8,4.1h25.2H14h22.4c2.7,0,4.2-2.1,4.2-4.1
				L38.6,1927.8z"/>
			<path id="ellipse8286" class="st0" d="M35.4,1936.1c0.8,0,1.5,0.6,1.6,1.4c0.1,0.8-0.4,1.4-1.2,1.4c-0.8,0-1.5-0.6-1.6-1.4
				C34.1,1936.7,34.6,1936.1,35.4,1936.1z"/>
			<path id="ellipse11382" inkscape:connector-curvature="0" class="st5" d="M35.3,1935.6c-1,0-1.8,0.8-1.6,1.8
				c0.2,1,1.1,1.9,2.2,1.9c1,0,1.8-0.8,1.6-1.8S36.4,1935.6,35.3,1935.6z M35.5,1936.6c0.5,0,0.9,0.4,1,0.9c0.1,0.5-0.3,0.9-0.7,0.9
				c-0.5,0-0.9-0.4-1-0.9C34.7,1937,35,1936.6,35.5,1936.6L35.5,1936.6z"/>
		</g>
		<path id="path5466-4" inkscape:connector-curvature="0" class="st5" d="M-11.8,2180.1v1h35.6v-1H-11.8z"/>
		<path id="rect5355-4" class="st7" d="M-5.1,2157.2h22.6c0.7,0,1.2,0.5,1.2,1.2v21c0,0.7-0.5,1.2-1.2,1.2H-5.1
			c-0.7,0-1.2-0.5-1.2-1.2v-21C-6.3,2157.7-5.8,2157.2-5.1,2157.2z"/>
		<path id="rect5357-8" class="st0" d="M-3.8,2158.4h20.1c0.7,0,1.3,0.6,1.3,1.3v18.5c0,0.7-0.6,1.3-1.3,1.3H-3.8
			c-0.7,0-1.3-0.6-1.3-1.3v-18.5C-5.1,2158.9-4.5,2158.4-3.8,2158.4z"/>
		<path id="rect5363-8" inkscape:connector-curvature="0" sodipodi:nodetypes="csssscc" class="st6" d="M5.8,2158.4h10.4
			c0.7,0,1.3,0.6,1.3,1.3v18.5c0,0.7-0.6,1.3-1.3,1.3H5.8L5.8,2158.4z"/>
		<path id="path4806-74-4" inkscape:connector-curvature="0" class="st5" d="M-2.5,2144.1l-0.2,0.4l-1,1.7l-0.2,0.4l0.9,0.5l0.2-0.4
			l1-1.7l0.2-0.4L-2.5,2144.1z"/>
		<path id="path4808-69-2" inkscape:connector-curvature="0" class="st5" d="M-3.9,2144.4l-0.5,0.9l0.4,0.2l1.7,1l0.4,0.2l0.5-0.9
			l-0.4-0.2l-1.7-1L-3.9,2144.4z"/>
		<path id="path4806-56-3" inkscape:connector-curvature="0" class="st5" d="M8.2,2151.1v0.5v2v0.5h1v-0.5v-2v-0.5H8.2z"/>
		<path id="path4808-49-1" inkscape:connector-curvature="0" class="st5" d="M7.2,2152.1v1h0.5h2h0.5v-1H9.7h-2H7.2z"/>
		<path id="path4806-77-3" inkscape:connector-curvature="0" class="st5" d="M24.2,2163.4v0.5v2v0.5h1v-0.5v-2v-0.5H24.2z"/>
		<path id="path4808-0-5" inkscape:connector-curvature="0" class="st5" d="M23.2,2164.4v1h0.5h2h0.5v-1h-0.5h-2H23.2z"/>
		<path id="circle4798-4-5" inkscape:connector-curvature="0" class="st5" d="M18.2,2145.1c-0.8,0-1.5,0.7-1.5,1.5s0.7,1.5,1.5,1.5
			s1.5-0.7,1.5-1.5S19,2145.1,18.2,2145.1z M18.2,2146.1c0.3,0,0.5,0.2,0.5,0.5s-0.2,0.5-0.5,0.5s-0.5-0.2-0.5-0.5
			S17.9,2146.1,18.2,2146.1z"/>
		<circle id="circle4798-5-6" class="st9" cx="-11.3" cy="2163.6" r="1"/>
		<path id="circle4816-3-9" inkscape:connector-curvature="0" class="st5" d="M-1.7,2152.6c0,0.3-0.2,0.6-0.5,0.6c0,0,0,0,0,0
			c-0.3,0-0.5-0.2-0.5-0.6l0,0c0-0.3,0.2-0.6,0.5-0.6c0,0,0,0,0,0C-2,2152-1.7,2152.3-1.7,2152.6C-1.7,2152.6-1.7,2152.6-1.7,2152.6
			z"/>
		<path id="circle4816-20-1" inkscape:connector-curvature="0" class="st5" d="M22.2,2155.6c0,0.3-0.2,0.5-0.5,0.5s-0.5-0.2-0.5-0.5
			s0.2-0.5,0.5-0.5S22.2,2155.4,22.2,2155.6z"/>
		<path id="circle4816-89-1" inkscape:connector-curvature="0" class="st5" d="M-9.8,2153.6c0,0.3-0.2,0.6-0.5,0.6c0,0,0,0,0,0
			c-0.3,0-0.6-0.2-0.6-0.6l0,0c0-0.3,0.2-0.6,0.5-0.6c0,0,0,0,0,0C-10.1,2153-9.8,2153.3-9.8,2153.6L-9.8,2153.6z"/>
		<path id="rect7292-6" inkscape:connector-curvature="0" class="st5" d="M-5.1,2156.7c-0.9,0-1.7,0.8-1.7,1.7v21
			c0,0.9,0.8,1.7,1.7,1.7h22.6c0.9,0,1.7-0.8,1.7-1.7v-21c0-0.9-0.8-1.7-1.7-1.7H-5.1z M-5.1,2157.7h22.6c0.4,0,0.7,0.3,0.7,0.7v21
			c0,0.4-0.3,0.7-0.7,0.7H-5.1c-0.4,0-0.7-0.3-0.7-0.7v-21C-5.8,2158-5.5,2157.7-5.1,2157.7z"/>
		<path id="rect5359-0" inkscape:connector-curvature="0" class="st2" d="M-3.1,2155.9c-0.2,0-0.4,0.3-0.4,0.6v5.3v14.2v5.3
			c0,0.4,0.3,0.7,0.7,0.6l9-2.4v-21l-9-2.4C-2.9,2155.9-3,2155.9-3.1,2155.9L-3.1,2155.9z"/>
		<path id="circle7696" inkscape:connector-curvature="0" class="st5" d="M-11.3,2162.1c-0.8,0-1.5,0.7-1.5,1.5s0.7,1.5,1.5,1.5
			s1.5-0.7,1.5-1.5S-10.5,2162.1-11.3,2162.1z M-11.3,2163.1c0.3,0,0.5,0.2,0.5,0.5s-0.2,0.5-0.5,0.5s-0.5-0.2-0.5-0.5
			S-11.6,2163.1-11.3,2163.1z"/>
	</g>
</g>
</svg>
